<svg width="535" height="116" viewBox="0 0 535 116" fill="none" xmlns="http://www.w3.org/2000/svg">
<g clip-path="url(#clip0_222_574)">
<path d="M524.331 21.3619C522.842 21.3619 521.353 21.1135 520.113 20.6167C518.872 20.1199 517.631 19.3747 516.639 18.3812C515.646 17.3876 514.902 16.394 514.405 14.9036C513.909 13.4133 513.661 12.1713 513.661 10.6809C513.661 9.19058 513.909 7.70021 514.405 6.45824C514.902 5.21627 515.646 3.9743 516.639 2.98073C517.631 1.98715 518.624 1.24197 520.113 0.745182C521.602 0.248394 522.842 0 524.331 0C525.82 0 527.309 0.248394 528.55 0.745182C529.79 1.24197 531.031 1.98715 532.024 2.98073C533.016 3.9743 533.761 4.96788 534.257 6.45824C534.753 7.70021 535.001 9.19058 535.001 10.6809C535.001 12.1713 534.753 13.6617 534.257 14.9036C533.761 16.1456 533.016 17.3876 532.024 18.3812C531.031 19.1263 529.79 19.8715 528.55 20.3683C527.309 21.1135 525.82 21.3619 524.331 21.3619ZM524.331 19.8715C525.572 19.8715 526.813 19.6231 528.053 19.1263C529.294 18.6296 530.287 17.8844 531.031 17.1392C531.775 16.394 532.52 15.4004 533.016 14.1585C533.512 12.9165 533.761 11.9229 533.761 10.4325C533.761 9.19058 533.512 7.94861 533.016 6.70664C532.52 5.46467 532.024 4.71949 531.031 3.72591C530.287 2.98073 529.294 2.23555 528.053 1.73876C526.813 1.24197 525.82 0.993576 524.331 0.993576C522.842 0.993576 521.85 1.24197 520.609 1.73876C519.368 2.23555 518.376 2.98073 517.631 3.72591C516.887 4.47109 516.142 5.46467 515.646 6.70664C515.15 7.94861 514.902 8.94218 514.902 10.4325C514.902 11.9229 515.15 12.9165 515.646 14.1585C516.142 15.4004 516.639 16.394 517.631 17.1392C518.376 17.8844 519.368 18.6296 520.609 19.1263C521.85 19.6231 523.09 19.8715 524.331 19.8715ZM520.113 16.6424V4.71949H524.827C526.316 4.71949 527.557 5.21627 528.301 5.96146C529.046 6.70664 529.542 7.70021 529.542 8.94218C529.542 10.1842 529.046 11.1777 528.301 11.9229C527.557 12.6681 526.316 12.9165 524.827 12.9165H522.098V16.8908H520.113V16.6424ZM522.098 11.1777H524.827C525.82 11.1777 526.564 10.9293 527.061 10.4325C527.557 9.93576 527.805 9.43897 527.805 8.69379C527.805 7.94861 527.557 7.45182 527.061 6.95503C526.564 6.45824 525.82 6.45824 524.827 6.45824H522.098V11.1777ZM528.053 16.6424L525.076 11.9229H527.061L530.038 16.6424H528.053Z" fill="black"/>
<path d="M43.4253 24.0942C20.8442 24.0942 0 38.5011 0 70.0471C0 101.842 22.5812 115.752 47.1475 115.752C72.4583 115.752 82.8803 101.345 82.8803 101.345L72.2101 90.167C72.2101 90.167 64.2695 99.8544 48.1401 99.8544C34.7403 99.8544 23.5737 92.4026 20.8442 77.9957H86.1062C86.6025 75.5118 86.8506 72.7795 86.8506 70.0471C86.6025 38.5011 65.5102 24.0942 43.4253 24.0942ZM20.596 62.0985C22.333 52.1628 26.3033 40.4882 43.9216 40.4882C60.7955 40.4882 64.7658 51.1692 66.2546 62.0985H20.596Z" fill="black"/>
<path d="M217.623 23.8458C203.231 23.8458 189.583 29.8073 181.394 42.227C179.657 44.7109 177.92 45.4561 176.679 45.4561C176.431 45.4561 175.935 45.4561 175.687 45.4561C175.687 45.4561 175.686 45.4561 175.438 45.4561C174.446 45.2077 173.701 44.4625 173.701 44.4625C173.205 44.2141 172.709 43.7173 172.212 43.2205C169.979 41.2334 167.994 37.5075 167.994 37.5075C165.761 33.7816 160.053 25.5846 152.609 24.0942C152.609 24.0942 139.457 21.6103 134.494 30.8008C132.509 34.7751 132.509 39.4946 134.743 43.2205C136.48 46.4497 140.202 49.9272 147.398 50.6724L132.757 92.6509L108.687 23.5974H86.6025L122.087 115.752H140.202L165.264 51.9143C165.513 51.9143 165.761 51.6659 166.257 51.9143C167.498 52.4111 170.227 53.6531 173.205 55.8886C173.701 56.6338 175.438 58.621 174.942 60.8565C174.446 63.5888 174.198 66.818 174.198 69.7987C174.198 101.593 196.779 115.752 221.345 115.752C246.656 115.752 257.078 101.345 257.078 101.345L246.408 90.167C246.408 90.167 238.467 99.8544 222.338 99.8544C208.938 99.8544 197.771 92.1542 195.042 77.9957H260.304C260.8 75.5118 261.048 72.7794 261.048 70.0471C260.8 38.2527 239.956 23.8458 217.623 23.8458ZM194.794 61.8501C196.531 51.9143 200.501 40.2398 218.119 40.2398C234.993 40.2398 238.963 51.1691 240.452 61.8501H194.794Z" fill="black"/>
<path d="M393.558 78.9893C384.872 77.4989 376.436 74.7666 368.743 70.2955C362.043 66.5696 357.825 61.3533 355.84 55.1435C353.358 37.5075 344.673 23.8458 324.077 23.8458C309.685 23.8458 300.007 32.788 294.052 43.7173L290.081 23.8458H275.441V116H294.052V83.7088C294.052 53.9015 304.97 39.743 320.355 39.743C334.499 39.743 337.973 53.1563 337.973 72.531V116H356.584V87.1863C358.321 86.1927 360.306 85.9443 362.539 86.1927C366.014 86.9379 368.991 88.1799 371.473 90.9122C372.962 92.651 374.202 94.6381 375.443 96.3769C377.676 99.8544 379.413 103.332 382.887 105.816C389.587 110.535 396.783 111.032 404.476 108.051C414.65 103.829 415.394 93.1477 408.694 85.9443C404.724 81.7216 399.265 79.9829 393.558 78.9893Z" fill="black"/>
<path d="M521.35 69.7991C521.35 38.253 500.258 23.8462 477.677 23.8462C463.781 23.8462 450.629 29.3109 442.44 40.4886C442.44 40.4886 440.703 43.4693 438.718 45.9533C437.974 46.9468 436.981 47.692 436.237 48.6856C433.507 51.1695 430.281 52.6599 426.559 51.4179C424.078 50.4243 421.844 48.6856 420.107 46.9468C417.378 44.2145 414.896 40.9854 412.415 38.0046C404.722 28.5657 392.811 27.3237 384.126 32.54C376.434 37.2595 375.193 46.9468 381.645 53.4051C385.119 56.8826 389.585 58.6213 394.3 59.6149C399.263 60.8569 404.226 61.3537 409.189 62.844C416.881 64.8312 423.829 68.5571 429.537 74.2702C432.763 77.4993 434.748 81.722 436.237 85.6963C437.974 91.161 440.455 95.8804 443.681 99.8548C444.674 101.097 445.666 102.587 446.907 103.581V103.332C455.84 112.026 468.495 116 481.647 116C507.206 116 517.876 101.594 517.876 101.594L507.206 90.4158C507.206 90.4158 499.265 100.103 482.888 100.103C469.488 100.103 458.073 92.6513 455.096 78.2445H520.854C521.35 75.2637 521.35 72.5314 521.35 69.7991ZM454.848 61.8505C456.585 51.9147 460.555 40.2402 478.421 40.2402C495.295 40.2402 499.265 51.1695 500.754 61.8505H454.848Z" fill="black"/>
</g>
<defs>
<clipPath id="clip0_222_574">
<rect width="535" height="116" fill="white"/>
</clipPath>
</defs>
</svg>
