<svg width="191" height="113" viewBox="0 0 191 113" fill="none" xmlns="http://www.w3.org/2000/svg">
<path d="M86.04 111C84.8667 107.16 83.5333 103.213 82.04 99.16C80.6533 95.1067 79.2667 91.0533 77.88 87H34.68C33.2933 91.0533 31.8533 95.1067 30.36 99.16C28.9733 103.213 27.6933 107.16 26.52 111H0.6C4.76 99.0533 8.70667 88.0133 12.44 77.88C16.1733 67.7467 19.8 58.2 23.32 49.24C26.9467 40.28 30.4667 31.8 33.88 23.8C37.4 15.6933 41.0267 7.79999 44.76 0.119997H68.6C72.2267 7.79999 75.8 15.6933 79.32 23.8C82.84 31.8 86.36 40.28 89.88 49.24C93.5067 58.2 97.1867 67.7467 100.92 77.88C104.653 88.0133 108.6 99.0533 112.76 111H86.04ZM56.12 25.24C55.5867 26.84 54.7867 29.0267 53.72 31.8C52.6533 34.5733 51.4267 37.7733 50.04 41.4C48.6533 45.0267 47.1067 49.0267 45.4 53.4C43.8 57.7733 42.1467 62.36 40.44 67.16H71.96C70.2533 62.36 68.6 57.7733 67 53.4C65.4 49.0267 63.8533 45.0267 62.36 41.4C60.9733 37.7733 59.7467 34.5733 58.68 31.8C57.6133 29.0267 56.76 26.84 56.12 25.24ZM155.954 94.36C158.3 94.36 160.54 94.3067 162.674 94.2C164.807 94.0933 166.514 93.9333 167.794 93.72V75.64C166.834 75.4267 165.394 75.2133 163.474 75C161.554 74.7867 159.794 74.68 158.194 74.68C155.954 74.68 153.82 74.84 151.794 75.16C149.874 75.3733 148.167 75.8533 146.674 76.6C145.18 77.3467 144.007 78.36 143.154 79.64C142.3 80.92 141.874 82.52 141.874 84.44C141.874 88.1733 143.1 90.7867 145.554 92.28C148.114 93.6667 151.58 94.36 155.954 94.36ZM154.034 24.6C161.074 24.6 166.94 25.4 171.634 27C176.327 28.6 180.06 30.8933 182.834 33.88C185.714 36.8667 187.74 40.4933 188.914 44.76C190.087 49.0267 190.674 53.7733 190.674 59V108.6C187.26 109.347 182.514 110.2 176.434 111.16C170.354 112.227 162.994 112.76 154.354 112.76C148.914 112.76 143.954 112.28 139.474 111.32C135.1 110.36 131.314 108.813 128.114 106.68C124.914 104.44 122.46 101.56 120.754 98.04C119.047 94.52 118.194 90.2 118.194 85.08C118.194 80.1733 119.154 76.0133 121.074 72.6C123.1 69.1867 125.767 66.4667 129.074 64.44C132.38 62.4133 136.167 60.9733 140.434 60.12C144.7 59.16 149.127 58.68 153.714 58.68C156.807 58.68 159.527 58.84 161.874 59.16C164.327 59.3733 166.3 59.6933 167.794 60.12V57.88C167.794 53.8267 166.567 50.5733 164.114 48.12C161.66 45.6667 157.394 44.44 151.314 44.44C147.26 44.44 143.26 44.76 139.314 45.4C135.367 45.9333 131.954 46.7333 129.074 47.8L126.034 28.6C127.42 28.1733 129.127 27.7467 131.154 27.32C133.287 26.7867 135.58 26.36 138.034 26.04C140.487 25.6133 143.047 25.2933 145.714 25.08C148.487 24.76 151.26 24.6 154.034 24.6Z" fill="#3C454D"/>
</svg>
