<svg width="41" height="17" viewBox="0 0 41 17" fill="none" xmlns="http://www.w3.org/2000/svg">
<path d="M7.14 10.66C7.14 8.74 6.43333 7.78 5.02 7.78C4.71333 7.78 4.40667 7.82 4.1 7.9C3.80667 7.98 3.56667 8.08 3.38 8.2V13.62C3.52667 13.6467 3.71333 13.6733 3.94 13.7C4.16667 13.7133 4.41333 13.72 4.68 13.72C5.49333 13.72 6.10667 13.44 6.52 12.88C6.93333 12.32 7.14 11.58 7.14 10.66ZM10.18 10.74C10.18 11.58 10.0533 12.34 9.8 13.02C9.56 13.7 9.20667 14.28 8.74 14.76C8.27333 15.24 7.7 15.6133 7.02 15.88C6.34 16.1333 5.56667 16.26 4.7 16.26C4.34 16.26 3.96 16.24 3.56 16.2C3.17333 16.1733 2.78667 16.1333 2.4 16.08C2.02667 16.0267 1.66667 15.9667 1.32 15.9C0.973333 15.82 0.666667 15.74 0.4 15.66V0.959999L3.38 0.48V5.72C3.71333 5.57333 4.06 5.46 4.42 5.38C4.78 5.3 5.16667 5.26 5.58 5.26C6.32667 5.26 6.98667 5.39333 7.56 5.66C8.13333 5.91333 8.61333 6.28 9 6.76C9.38667 7.24 9.68 7.82 9.88 8.5C10.08 9.16667 10.18 9.91333 10.18 10.74ZM22.3103 10.72C22.3103 11.5467 22.1903 12.3067 21.9503 13C21.7103 13.68 21.3636 14.2667 20.9103 14.76C20.457 15.24 19.9103 15.6133 19.2703 15.88C18.6436 16.1467 17.937 16.28 17.1503 16.28C16.377 16.28 15.6703 16.1467 15.0303 15.88C14.4036 15.6133 13.8636 15.24 13.4103 14.76C12.957 14.2667 12.6036 13.68 12.3503 13C12.097 12.3067 11.9703 11.5467 11.9703 10.72C11.9703 9.89333 12.097 9.14 12.3503 8.46C12.617 7.78 12.977 7.2 13.4303 6.72C13.897 6.24 14.4436 5.86667 15.0703 5.6C15.7103 5.33333 16.4036 5.2 17.1503 5.2C17.9103 5.2 18.6036 5.33333 19.2303 5.6C19.8703 5.86667 20.417 6.24 20.8703 6.72C21.3236 7.2 21.677 7.78 21.9303 8.46C22.1836 9.14 22.3103 9.89333 22.3103 10.72ZM19.2703 10.72C19.2703 9.8 19.0836 9.08 18.7103 8.56C18.3503 8.02667 17.8303 7.76 17.1503 7.76C16.4703 7.76 15.9436 8.02667 15.5703 8.56C15.197 9.08 15.0103 9.8 15.0103 10.72C15.0103 11.64 15.197 12.3733 15.5703 12.92C15.9436 13.4533 16.4703 13.72 17.1503 13.72C17.8303 13.72 18.3503 13.4533 18.7103 12.92C19.0836 12.3733 19.2703 11.64 19.2703 10.72ZM28.8188 16.2C27.9521 16.1867 27.2454 16.0933 26.6988 15.92C26.1654 15.7467 25.7388 15.5067 25.4188 15.2C25.1121 14.88 24.8988 14.5 24.7788 14.06C24.6721 13.6067 24.6188 13.1 24.6188 12.54V0.959999L27.5988 0.48V11.94C27.5988 12.2067 27.6188 12.4467 27.6588 12.66C27.6988 12.8733 27.7721 13.0533 27.8788 13.2C27.9988 13.3467 28.1654 13.4667 28.3788 13.56C28.5921 13.6533 28.8788 13.7133 29.2388 13.74L28.8188 16.2ZM33.4869 10.66C33.4869 11.58 33.6935 12.32 34.1069 12.88C34.5202 13.44 35.1335 13.72 35.9469 13.72C36.2135 13.72 36.4602 13.7133 36.6869 13.7C36.9135 13.6733 37.1002 13.6467 37.2469 13.62V8.2C37.0602 8.08 36.8135 7.98 36.5069 7.9C36.2135 7.82 35.9135 7.78 35.6069 7.78C34.1935 7.78 33.4869 8.74 33.4869 10.66ZM40.2269 15.66C39.9602 15.74 39.6535 15.82 39.3069 15.9C38.9602 15.9667 38.5935 16.0267 38.2069 16.08C37.8335 16.1333 37.4469 16.1733 37.0469 16.2C36.6602 16.24 36.2869 16.26 35.9269 16.26C35.0602 16.26 34.2869 16.1333 33.6069 15.88C32.9269 15.6267 32.3535 15.2667 31.8869 14.8C31.4202 14.32 31.0602 13.7467 30.8069 13.08C30.5669 12.4 30.4469 11.64 30.4469 10.8C30.4469 9.94667 30.5535 9.18 30.7669 8.5C30.9802 7.80667 31.2869 7.22 31.6869 6.74C32.0869 6.26 32.5735 5.89333 33.1469 5.64C33.7335 5.38667 34.4002 5.26 35.1469 5.26C35.5602 5.26 35.9269 5.3 36.2469 5.38C36.5802 5.46 36.9135 5.57333 37.2469 5.72V0.959999L40.2269 0.48V15.66Z" fill="black"/>
</svg>
