<svg width="59" height="14" viewBox="0 0 59 14" fill="none" xmlns="http://www.w3.org/2000/svg">
<path d="M2.744 1.912C2.97867 2.31733 3.24 2.81333 3.528 3.4C3.816 3.98667 4.10933 4.60533 4.408 5.256C4.70667 5.896 5 6.552 5.288 7.224C5.58667 7.88533 5.85867 8.49867 6.104 9.064C6.34933 8.49867 6.616 7.88533 6.904 7.224C7.192 6.552 7.48533 5.896 7.784 5.256C8.08267 4.60533 8.376 3.98667 8.664 3.4C8.952 2.81333 9.21333 2.31733 9.448 1.912H11.272C11.368 2.72267 11.4587 3.58667 11.544 4.504C11.6293 5.41067 11.704 6.344 11.768 7.304C11.8427 8.25333 11.9067 9.21333 11.96 10.184C12.024 11.144 12.0773 12.0827 12.12 13H10.136C10.0933 11.7093 10.04 10.3813 9.976 9.016C9.92267 7.65067 9.83733 6.328 9.72 5.048C9.60267 5.29333 9.464 5.58667 9.304 5.928C9.144 6.26933 8.97333 6.64267 8.792 7.048C8.61067 7.44267 8.424 7.85333 8.232 8.28C8.05067 8.70667 7.86933 9.12267 7.688 9.528C7.51733 9.92267 7.35733 10.296 7.208 10.648C7.05867 10.9893 6.93067 11.2827 6.824 11.528H5.32C5.21333 11.2827 5.08533 10.984 4.936 10.632C4.78667 10.28 4.62133 9.90667 4.44 9.512C4.26933 9.10667 4.088 8.69067 3.896 8.264C3.71467 7.83733 3.53333 7.42667 3.352 7.032C3.17067 6.63733 3 6.26933 2.84 5.928C2.68 5.576 2.54133 5.28267 2.424 5.048C2.30667 6.328 2.216 7.65067 2.152 9.016C2.09867 10.3813 2.05067 11.7093 2.008 13H0.024C0.0666667 12.0827 0.114667 11.1333 0.168 10.152C0.232 9.17067 0.296 8.2 0.36 7.24C0.434667 6.26933 0.514667 5.33067 0.6 4.424C0.685333 3.51733 0.776 2.68 0.872 1.912H2.744ZM13.9086 8.856C13.9086 8.12 14.0153 7.47467 14.2286 6.92C14.4526 6.36533 14.746 5.90667 15.1086 5.544C15.4713 5.17067 15.8873 4.89333 16.3566 4.712C16.826 4.52 17.306 4.424 17.7966 4.424C18.9486 4.424 19.8446 4.78133 20.4846 5.496C21.1353 6.21067 21.4606 7.27733 21.4606 8.696C21.4606 8.80267 21.4553 8.92533 21.4446 9.064C21.4446 9.192 21.4393 9.30933 21.4286 9.416H15.9086C15.962 10.088 16.1966 10.6107 16.6126 10.984C17.0393 11.3467 17.6526 11.528 18.4526 11.528C18.922 11.528 19.3486 11.4853 19.7326 11.4C20.1273 11.3147 20.4366 11.224 20.6606 11.128L20.9166 12.712C20.81 12.7653 20.6606 12.824 20.4686 12.888C20.2873 12.9413 20.074 12.9893 19.8286 13.032C19.594 13.0853 19.338 13.128 19.0606 13.16C18.7833 13.192 18.5006 13.208 18.2126 13.208C17.4766 13.208 16.8366 13.1013 16.2926 12.888C15.7486 12.664 15.3006 12.36 14.9486 11.976C14.5966 11.5813 14.3353 11.1227 14.1646 10.6C13.994 10.0667 13.9086 9.48533 13.9086 8.856ZM19.5246 7.992C19.5246 7.72533 19.4873 7.47467 19.4126 7.24C19.338 6.99467 19.226 6.78667 19.0766 6.616C18.938 6.43467 18.762 6.296 18.5486 6.2C18.346 6.09333 18.1006 6.04 17.8126 6.04C17.514 6.04 17.2526 6.09867 17.0286 6.216C16.8046 6.32267 16.6126 6.46667 16.4526 6.648C16.3033 6.82933 16.186 7.03733 16.1006 7.272C16.0153 7.50667 15.9566 7.74667 15.9246 7.992H19.5246ZM25.0333 8.792C25.0333 9.64533 25.2359 10.3173 25.6413 10.808C26.0466 11.288 26.6066 11.528 27.3213 11.528C27.6306 11.528 27.8919 11.5173 28.1053 11.496C28.3293 11.464 28.5106 11.432 28.6493 11.4V6.6C28.4786 6.48267 28.2493 6.376 27.9613 6.28C27.6839 6.17333 27.3853 6.12 27.0653 6.12C26.3613 6.12 25.8439 6.36 25.5133 6.84C25.1933 7.32 25.0333 7.97067 25.0333 8.792ZM30.5853 12.744C30.2013 12.8613 29.7159 12.968 29.1293 13.064C28.5533 13.16 27.9453 13.208 27.3053 13.208C26.6439 13.208 26.0519 13.1067 25.5293 12.904C25.0066 12.7013 24.5586 12.4133 24.1853 12.04C23.8226 11.656 23.5399 11.1973 23.3372 10.664C23.1453 10.12 23.0493 9.512 23.0493 8.84C23.0493 8.17867 23.1293 7.58133 23.2893 7.048C23.4599 6.504 23.7053 6.04 24.0253 5.656C24.3453 5.272 24.7346 4.97867 25.1933 4.776C25.6519 4.56267 26.1799 4.456 26.7773 4.456C27.1826 4.456 27.5399 4.504 27.8493 4.6C28.1586 4.696 28.4253 4.80267 28.6493 4.92V0.903999L30.5853 0.584V12.744ZM34.9965 13H33.0605V4.632H34.9965V13ZM35.2045 2.184C35.2045 2.54667 35.0872 2.83467 34.8525 3.048C34.6178 3.26133 34.3405 3.368 34.0205 3.368C33.6898 3.368 33.4072 3.26133 33.1725 3.048C32.9378 2.83467 32.8205 2.54667 32.8205 2.184C32.8205 1.81067 32.9378 1.51733 33.1725 1.304C33.4072 1.09067 33.6898 0.983999 34.0205 0.983999C34.3405 0.983999 34.6178 1.09067 34.8525 1.304C35.0872 1.51733 35.2045 1.81067 35.2045 2.184ZM44.3304 12.744C43.957 12.84 43.4717 12.936 42.8744 13.032C42.277 13.1387 41.621 13.192 40.9064 13.192C40.2344 13.192 39.669 13.096 39.2104 12.904C38.7624 12.712 38.3997 12.4453 38.1224 12.104C37.8557 11.7627 37.6637 11.3573 37.5464 10.888C37.429 10.408 37.3704 9.88533 37.3704 9.32V4.632H39.3064V9.016C39.3064 9.912 39.4344 10.552 39.6904 10.936C39.957 11.32 40.4157 11.512 41.0664 11.512C41.301 11.512 41.5464 11.5013 41.8024 11.48C42.069 11.4587 42.2664 11.432 42.3944 11.4V4.632H44.3304V12.744ZM51.5625 8.6C51.5625 7.72533 51.4505 7.096 51.2265 6.712C51.0132 6.31733 50.6078 6.12 50.0105 6.12C49.7972 6.12 49.5625 6.136 49.3065 6.168C49.0505 6.2 48.8585 6.22667 48.7305 6.248V13H46.7945V4.904C47.1678 4.79733 47.6532 4.696 48.2505 4.6C48.8585 4.504 49.4985 4.456 50.1705 4.456C50.7465 4.456 51.2158 4.53067 51.5785 4.68C51.9518 4.82933 52.2612 5.02667 52.5065 5.272C52.6238 5.18667 52.7732 5.096 52.9545 5C53.1358 4.904 53.3385 4.81867 53.5625 4.744C53.7865 4.65867 54.0212 4.58933 54.2665 4.536C54.5225 4.48267 54.7785 4.456 55.0345 4.456C55.6852 4.456 56.2185 4.552 56.6345 4.744C57.0612 4.92533 57.3918 5.18667 57.6265 5.528C57.8718 5.85867 58.0372 6.264 58.1225 6.744C58.2185 7.21333 58.2665 7.73067 58.2665 8.296V13H56.3305V8.6C56.3305 7.72533 56.2238 7.096 56.0105 6.712C55.7972 6.31733 55.3865 6.12 54.7785 6.12C54.4692 6.12 54.1758 6.17333 53.8985 6.28C53.6212 6.376 53.4132 6.472 53.2745 6.568C53.3598 6.83467 53.4185 7.11733 53.4505 7.416C53.4825 7.71467 53.4985 8.03467 53.4985 8.376V13H51.5625V8.6Z" fill="black"/>
</svg>
