<svg width="56" height="16" viewBox="0 0 56 16" fill="none" xmlns="http://www.w3.org/2000/svg">
<path d="M5.8 8.36C5.97067 8.57333 6.184 8.856 6.44 9.208C6.70667 9.54933 6.97867 9.93333 7.256 10.36C7.53333 10.776 7.80533 11.2133 8.072 11.672C8.34933 12.1307 8.584 12.5733 8.776 13H7.08C6.86667 12.5947 6.632 12.184 6.376 11.768C6.13067 11.352 5.88 10.9573 5.624 10.584C5.368 10.2 5.112 9.84267 4.856 9.512C4.61067 9.18133 4.38667 8.89333 4.184 8.648C4.04533 8.65867 3.90133 8.664 3.752 8.664C3.61333 8.664 3.46933 8.664 3.32 8.664H1.928V13H0.376V2.072C0.813333 1.96533 1.29867 1.896 1.832 1.864C2.376 1.82133 2.872 1.8 3.32 1.8C4.87733 1.8 6.06133 2.09333 6.872 2.68C7.69333 3.26667 8.104 4.14133 8.104 5.304C8.104 6.04 7.90667 6.66933 7.512 7.192C7.128 7.71467 6.55733 8.104 5.8 8.36ZM3.448 3.16C2.78667 3.16 2.28 3.176 1.928 3.208V7.384H3.032C3.56533 7.384 4.04533 7.35733 4.472 7.304C4.89867 7.25067 5.256 7.14933 5.544 7C5.84267 6.85067 6.072 6.64267 6.232 6.376C6.392 6.09867 6.472 5.736 6.472 5.288C6.472 4.872 6.392 4.52533 6.232 4.248C6.072 3.97067 5.85333 3.752 5.576 3.592C5.30933 3.432 4.98933 3.32 4.616 3.256C4.25333 3.192 3.864 3.16 3.448 3.16ZM9.8785 8.856C9.8785 8.12 9.98517 7.48 10.1985 6.936C10.4118 6.38133 10.6945 5.92267 11.0465 5.56C11.3985 5.19733 11.8038 4.92533 12.2625 4.744C12.7212 4.56267 13.1905 4.472 13.6705 4.472C14.7905 4.472 15.6492 4.824 16.2465 5.528C16.8438 6.22133 17.1425 7.28267 17.1425 8.712C17.1425 8.776 17.1425 8.86133 17.1425 8.968C17.1425 9.064 17.1372 9.15467 17.1265 9.24H11.4305C11.4945 10.104 11.7452 10.76 12.1825 11.208C12.6198 11.656 13.3025 11.88 14.2305 11.88C14.7532 11.88 15.1905 11.8373 15.5425 11.752C15.9052 11.656 16.1772 11.5653 16.3585 11.48L16.5665 12.728C16.3852 12.824 16.0652 12.9253 15.6065 13.032C15.1585 13.1387 14.6465 13.192 14.0705 13.192C13.3452 13.192 12.7158 13.0853 12.1825 12.872C11.6598 12.648 11.2278 12.344 10.8865 11.96C10.5452 11.576 10.2892 11.1227 10.1185 10.6C9.9585 10.0667 9.8785 9.48533 9.8785 8.856ZM15.5905 8.04C15.6012 7.368 15.4305 6.81867 15.0785 6.392C14.7372 5.95467 14.2625 5.736 13.6545 5.736C13.3132 5.736 13.0092 5.80533 12.7425 5.944C12.4865 6.072 12.2678 6.24267 12.0865 6.456C11.9052 6.66933 11.7612 6.91467 11.6545 7.192C11.5585 7.46933 11.4945 7.752 11.4625 8.04H15.5905ZM24.496 12.168C24.368 12.2533 24.1173 12.3653 23.744 12.504C23.3813 12.632 22.9547 12.696 22.464 12.696C21.9627 12.696 21.488 12.616 21.04 12.456C20.6027 12.296 20.2187 12.0507 19.888 11.72C19.5573 11.3787 19.296 10.9573 19.104 10.456C18.912 9.95467 18.816 9.35733 18.816 8.664C18.816 8.056 18.9067 7.50133 19.088 7C19.2693 6.488 19.5307 6.05067 19.872 5.688C20.224 5.31467 20.6507 5.02667 21.152 4.824C21.6533 4.61067 22.2187 4.504 22.848 4.504C23.5413 4.504 24.144 4.55733 24.656 4.664C25.1787 4.76 25.616 4.85067 25.968 4.936V12.36C25.968 13.64 25.6373 14.568 24.976 15.144C24.3147 15.72 23.312 16.008 21.968 16.008C21.4453 16.008 20.9493 15.9653 20.48 15.88C20.0213 15.7947 19.6213 15.6933 19.28 15.576L19.552 14.28C19.8507 14.3973 20.2133 14.4987 20.64 14.584C21.0773 14.68 21.5307 14.728 22 14.728C22.8853 14.728 23.52 14.552 23.904 14.2C24.2987 13.848 24.496 13.288 24.496 12.52V12.168ZM24.48 5.992C24.3307 5.94933 24.128 5.912 23.872 5.88C23.6267 5.83733 23.2907 5.816 22.864 5.816C22.064 5.816 21.4453 6.07733 21.008 6.6C20.5813 7.12267 20.368 7.816 20.368 8.68C20.368 9.16 20.4267 9.57067 20.544 9.912C20.672 10.2533 20.8373 10.536 21.04 10.76C21.2533 10.984 21.4933 11.1493 21.76 11.256C22.0373 11.3627 22.32 11.416 22.608 11.416C23.0027 11.416 23.3653 11.3627 23.696 11.256C24.0267 11.1387 24.288 11.0053 24.48 10.856V5.992ZM35.154 12.76C34.8127 12.8453 34.3593 12.936 33.794 13.032C33.2393 13.128 32.594 13.176 31.858 13.176C31.218 13.176 30.6793 13.0853 30.242 12.904C29.8047 12.712 29.4527 12.4453 29.186 12.104C28.9193 11.7627 28.7273 11.3627 28.61 10.904C28.4927 10.4347 28.434 9.91733 28.434 9.352V4.68H29.922V9.032C29.922 10.0453 30.082 10.7707 30.402 11.208C30.722 11.6453 31.2607 11.864 32.018 11.864C32.178 11.864 32.3433 11.8587 32.514 11.848C32.6847 11.8373 32.8447 11.8267 32.994 11.816C33.1433 11.7947 33.2767 11.7787 33.394 11.768C33.522 11.7467 33.6127 11.7253 33.666 11.704V4.68H35.154V12.76ZM40.2135 13.16C39.2962 13.1387 38.6455 12.9413 38.2615 12.568C37.8775 12.1947 37.6855 11.6133 37.6855 10.824V0.839999L39.1735 0.584V10.584C39.1735 10.8293 39.1948 11.032 39.2375 11.192C39.2802 11.352 39.3495 11.48 39.4455 11.576C39.5415 11.672 39.6695 11.7467 39.8295 11.8C39.9895 11.8427 40.1868 11.88 40.4215 11.912L40.2135 13.16ZM44.9085 11.928C45.2605 11.928 45.5698 11.9227 45.8365 11.912C46.1138 11.8907 46.3432 11.8587 46.5245 11.816V9.336C46.4178 9.28267 46.2418 9.24 45.9965 9.208C45.7618 9.16533 45.4738 9.144 45.1325 9.144C44.9085 9.144 44.6685 9.16 44.4125 9.192C44.1672 9.224 43.9378 9.29333 43.7245 9.4C43.5218 9.496 43.3512 9.63467 43.2125 9.816C43.0738 9.98667 43.0045 10.216 43.0045 10.504C43.0045 11.0373 43.1752 11.4107 43.5165 11.624C43.8578 11.8267 44.3218 11.928 44.9085 11.928ZM44.7805 4.472C45.3778 4.472 45.8792 4.552 46.2845 4.712C46.7005 4.86133 47.0312 5.08 47.2765 5.368C47.5325 5.64533 47.7138 5.98133 47.8205 6.376C47.9272 6.76 47.9805 7.18667 47.9805 7.656V12.856C47.8525 12.8773 47.6712 12.9093 47.4365 12.952C47.2125 12.984 46.9565 13.016 46.6685 13.048C46.3805 13.08 46.0658 13.1067 45.7245 13.128C45.3938 13.16 45.0632 13.176 44.7325 13.176C44.2632 13.176 43.8312 13.128 43.4365 13.032C43.0418 12.936 42.7005 12.7867 42.4125 12.584C42.1245 12.3707 41.9005 12.0933 41.7405 11.752C41.5805 11.4107 41.5005 11 41.5005 10.52C41.5005 10.0613 41.5912 9.66667 41.7725 9.336C41.9645 9.00533 42.2205 8.73867 42.5405 8.536C42.8605 8.33333 43.2338 8.184 43.6605 8.088C44.0872 7.992 44.5352 7.944 45.0045 7.944C45.1538 7.944 45.3085 7.95467 45.4685 7.976C45.6285 7.98667 45.7778 8.008 45.9165 8.04C46.0658 8.06133 46.1938 8.08267 46.3005 8.104C46.4072 8.12533 46.4818 8.14133 46.5245 8.152V7.736C46.5245 7.49067 46.4978 7.25067 46.4445 7.016C46.3912 6.77067 46.2952 6.55733 46.1565 6.376C46.0178 6.184 45.8258 6.03467 45.5805 5.928C45.3458 5.81067 45.0365 5.752 44.6525 5.752C44.1618 5.752 43.7298 5.78933 43.3565 5.864C42.9938 5.928 42.7218 5.99733 42.5405 6.072L42.3645 4.84C42.5565 4.75467 42.8765 4.67467 43.3245 4.6C43.7725 4.51467 44.2578 4.472 44.7805 4.472ZM53.5239 4.504C53.6519 4.504 53.7959 4.51467 53.9559 4.536C54.1265 4.54667 54.2919 4.568 54.4519 4.6C54.6119 4.62133 54.7559 4.648 54.8839 4.68C55.0225 4.70133 55.1239 4.72267 55.1879 4.744L54.9319 6.04C54.8145 5.99733 54.6172 5.94933 54.3399 5.896C54.0732 5.832 53.7265 5.8 53.2999 5.8C53.0225 5.8 52.7452 5.832 52.4679 5.896C52.2012 5.94933 52.0252 5.98667 51.9399 6.008V13H50.4519V5.032C50.8039 4.904 51.2412 4.78667 51.7639 4.68C52.2865 4.56267 52.8732 4.504 53.5239 4.504Z" fill="black"/>
</svg>
