<svg width="25" height="25" viewBox="0 0 25 25" fill="none" xmlns="http://www.w3.org/2000/svg">
<path d="M23.0248 18.5825C22.9507 18.3231 22.9878 18.0638 23.1173 17.8044C24.3577 15.3034 24.6538 12.5061 23.9504 9.69018C22.9692 5.67013 19.8777 2.52077 15.9161 1.46481C14.8609 1.18693 13.7872 1.03876 12.732 1.03876C9.12211 1.03876 5.78992 2.66898 3.58697 5.52192C1.3655 8.39339 0.625011 12.1171 1.55062 15.7295C2.45772 19.2865 6.28974 23.0286 9.88111 23.8993C12.732 24.5848 15.6939 24.2143 18.2116 22.8434C18.4708 22.6952 18.7485 22.6581 19.0261 22.7322L24.0059 24.0475C24.0059 24.0475 24.2096 23.992 24.2836 23.8993C24.3577 23.8067 24.3762 23.677 24.3576 23.5474L23.0248 18.564V18.5825Z" stroke="#454B60" stroke-miterlimit="10"/>
</svg>
