<svg width="28" height="27" viewBox="0 0 28 27" fill="none" xmlns="http://www.w3.org/2000/svg">
<rect x="1.26814" y="0.410714" width="25.4643" height="25.4643" rx="2.875" stroke="#8E8E8E" stroke-width="0.821429"/>
<path d="M18.3602 18.9809H9.55231C8.33518 18.9809 7.34082 17.9865 7.34082 16.7694V7.96149C7.34082 6.74435 8.33518 5.75 9.55231 5.75H18.3602C19.5774 5.75 20.5717 6.74435 20.5717 7.96149V16.7694C20.5717 17.992 19.5828 18.9809 18.3602 18.9809Z" stroke="#8E8E8E" stroke-width="0.821429"/>
<path d="M11.5573 14.7699C12.1985 15.411 13.0516 15.7642 13.959 15.7642C14.8664 15.7642 15.7141 15.411 16.3607 14.7699C17.0018 14.1287 17.355 13.2756 17.355 12.3682C17.355 11.4608 17.0018 10.6077 16.3607 9.96652C15.7195 9.32535 14.8664 8.97217 13.959 8.97217C13.0516 8.97217 12.1985 9.32535 11.5573 9.96652C10.9162 10.6077 10.563 11.4608 10.563 12.3682C10.563 13.2756 10.9162 14.1287 11.5573 14.7699Z" stroke="#8E8E8E" stroke-width="0.821429"/>
<path d="M18.0168 8.86075C18.3769 8.86075 18.6689 8.56881 18.6689 8.20869C18.6689 7.84857 18.3769 7.55664 18.0168 7.55664C17.6567 7.55664 17.3647 7.84857 17.3647 8.20869C17.3647 8.56881 17.6567 8.86075 18.0168 8.86075Z" stroke="#8E8E8E" stroke-width="0.821429"/>
</svg>
