<svg width="29" height="26" viewBox="0 0 29 26" fill="none" xmlns="http://www.w3.org/2000/svg">
<path d="M24.6895 1.3907C23.4677 0.594097 22.1163 0.223633 20.8019 0.223633C18.4879 0.223633 16.2294 1.39071 14.7114 3.4841C13.1934 1.37218 10.9349 0.223633 8.6209 0.223633C7.30654 0.223633 5.95514 0.612623 4.73334 1.3907C0.993875 3.81755 -0.283467 9.17149 1.86395 13.3583C3.62261 16.767 11.046 22.7137 13.7303 24.7885C14.0265 25.0109 14.3597 25.122 14.6929 25.122C15.0261 25.122 15.3779 25.0109 15.674 24.7885C18.3583 22.7137 25.7817 16.7855 27.5404 13.3583C29.6878 9.17149 28.4104 3.79903 24.671 1.3907H24.6895Z" fill="url(#paint0_linear_372_1006)"/>
<defs>
<linearGradient id="paint0_linear_372_1006" x1="0.808753" y1="12.6728" x2="28.5956" y2="12.6728" gradientUnits="userSpaceOnUse">
<stop stop-color="#FF3636"/>
<stop offset="1" stop-color="#DE0606"/>
</linearGradient>
</defs>
</svg>
