<svg width="27" height="27" viewBox="0 0 27 27" fill="none" xmlns="http://www.w3.org/2000/svg">
<rect x="0.410714" y="0.410714" width="25.4643" height="25.4643" rx="2.875" stroke="#8E8E8E" stroke-width="0.821429"/>
<path d="M9.20612 10.9111H5.92651V21.3696H9.20612V10.9111Z" stroke="#8E8E8E" stroke-width="0.821429"/>
<path d="M18.0777 10.6844C17.9568 10.6692 17.8284 10.6617 17.6999 10.6541C15.8636 10.5786 14.8284 11.6667 14.4656 12.1352C14.3674 12.2637 14.3221 12.3393 14.3221 12.3393V10.9413H11.186V21.3997H14.3221H14.4656C14.4656 20.3342 14.4656 19.2763 14.4656 18.2108C14.4656 17.6365 14.4656 17.0622 14.4656 16.4879C14.4656 15.7776 14.4127 15.0219 14.7679 14.372C15.0702 13.8279 15.6142 13.5559 16.2263 13.5559C18.0399 13.5559 18.0777 15.1957 18.0777 15.3468C18.0777 15.3544 18.0777 15.3619 18.0777 15.3619V21.4451H21.3573V14.6214C21.3573 12.2864 20.1709 10.9111 18.0777 10.6844Z" stroke="#8E8E8E" stroke-width="0.821429"/>
<path d="M7.56615 9.55857C8.61785 9.55857 9.47043 8.70599 9.47043 7.65428C9.47043 6.60258 8.61785 5.75 7.56615 5.75C6.51444 5.75 5.66187 6.60258 5.66187 7.65428C5.66187 8.70599 6.51444 9.55857 7.56615 9.55857Z" stroke="#8E8E8E" stroke-width="0.821429"/>
</svg>
