<svg width="5" height="19" viewBox="0 0 5 19" fill="none" xmlns="http://www.w3.org/2000/svg">
<path d="M4.37949 2.258C4.37949 3.38807 3.45388 4.31435 2.32463 4.31435C1.19539 4.31435 0.269775 3.38807 0.269775 2.258C0.269775 1.12794 1.19539 0.20166 2.32463 0.20166C3.45388 0.20166 4.37949 1.12794 4.37949 2.258Z" fill="#454B60"/>
<path d="M4.37949 9.39033C4.37949 10.5204 3.45388 11.4467 2.32463 11.4467C1.19539 11.4467 0.269775 10.5204 0.269775 9.39033C0.269775 8.26027 1.19539 7.33398 2.32463 7.33398C3.45388 7.33398 4.37949 8.24174 4.37949 9.39033Z" fill="#454B60"/>
<path d="M4.37949 16.5042C4.37949 17.6343 3.45388 18.5606 2.32463 18.5606C1.19539 18.5606 0.269775 17.6343 0.269775 16.5042C0.269775 15.3742 1.19539 14.4479 2.32463 14.4479C3.45388 14.4479 4.37949 15.3556 4.37949 16.5042Z" fill="#454B60"/>
</svg>
