<svg width="166" height="36" viewBox="0 0 166 36" fill="none" xmlns="http://www.w3.org/2000/svg">
<g clip-path="url(#clip0_222_565)">
<path d="M162.69 6.62955C162.228 6.62955 161.766 6.55246 161.381 6.39829C160.996 6.24411 160.611 6.01285 160.303 5.7045C159.995 5.39615 159.764 5.08779 159.61 4.62527C159.456 4.16274 159.379 3.7773 159.379 3.31478C159.379 2.85225 159.456 2.38972 159.61 2.00428C159.764 1.61884 159.995 1.2334 160.303 0.925054C160.611 0.616702 160.919 0.385439 161.381 0.231263C161.843 0.0770878 162.228 0 162.69 0C163.152 0 163.614 0.0770878 163.999 0.231263C164.384 0.385439 164.769 0.616702 165.076 0.925054C165.384 1.2334 165.615 1.54176 165.769 2.00428C165.923 2.38972 166 2.85225 166 3.31478C166 3.7773 165.923 4.23983 165.769 4.62527C165.615 5.01071 165.384 5.39615 165.076 5.7045C164.769 5.93576 164.384 6.16702 163.999 6.3212C163.614 6.55246 163.152 6.62955 162.69 6.62955ZM162.69 6.16702C163.075 6.16702 163.46 6.08994 163.845 5.93576C164.23 5.78158 164.538 5.55032 164.769 5.31906C164.999 5.08779 165.23 4.77944 165.384 4.394C165.538 4.00857 165.615 3.70021 165.615 3.23769C165.615 2.85225 165.538 2.46681 165.384 2.08137C165.23 1.69593 165.076 1.46467 164.769 1.15632C164.538 0.925054 164.23 0.69379 163.845 0.539615C163.46 0.385439 163.152 0.308351 162.69 0.308351C162.228 0.308351 161.92 0.385439 161.535 0.539615C161.15 0.69379 160.842 0.925054 160.611 1.15632C160.38 1.38758 160.149 1.69593 159.995 2.08137C159.841 2.46681 159.764 2.77516 159.764 3.23769C159.764 3.70021 159.841 4.00857 159.995 4.394C160.149 4.77944 160.303 5.08779 160.611 5.31906C160.842 5.55032 161.15 5.78158 161.535 5.93576C161.92 6.08994 162.305 6.16702 162.69 6.16702ZM161.381 5.16488V1.46467H162.844C163.306 1.46467 163.691 1.61884 163.922 1.85011C164.153 2.08137 164.307 2.38972 164.307 2.77516C164.307 3.1606 164.153 3.46895 163.922 3.70021C163.691 3.93148 163.306 4.00857 162.844 4.00857H161.997V5.24197H161.381V5.16488ZM161.997 3.46895H162.844C163.152 3.46895 163.383 3.39186 163.537 3.23769C163.691 3.08351 163.768 2.92934 163.768 2.69807C163.768 2.46681 163.691 2.31263 163.537 2.15846C163.383 2.00428 163.152 2.00428 162.844 2.00428H161.997V3.46895ZM163.845 5.16488L162.921 3.70021H163.537L164.461 5.16488H163.845Z" fill="#50E8BE"/>
<path d="M13.474 7.47754C6.46753 7.47754 0 11.9486 0 21.7388C0 31.606 7.00649 35.9229 14.6289 35.9229C22.4824 35.9229 25.7161 31.4518 25.7161 31.4518L22.4054 27.9829C22.4054 27.9829 19.9416 30.9893 14.9369 30.9893C10.7792 30.9893 7.31447 28.6767 6.46753 24.2056H26.7171C26.8711 23.4347 26.9481 22.5867 26.9481 21.7388C26.8711 11.9486 20.3265 7.47754 13.474 7.47754ZM6.39054 19.272C6.9295 16.1885 8.16141 12.5653 13.628 12.5653C18.8636 12.5653 20.0955 15.8801 20.5575 19.272H6.39054Z" fill="#50E8BE"/>
<path d="M67.5242 7.40033C63.0585 7.40033 58.8238 9.25044 56.283 13.1048C55.744 13.8757 55.205 14.107 54.8201 14.107C54.7431 14.107 54.5891 14.107 54.5121 14.107C54.5121 14.107 54.5121 14.107 54.4351 14.107C54.1271 14.0299 53.8961 13.7986 53.8961 13.7986C53.7421 13.7215 53.5882 13.5674 53.4342 13.4132C52.7412 12.7965 52.1253 11.6402 52.1253 11.6402C51.4323 10.4838 49.6614 7.93994 47.3516 7.47742C47.3516 7.47742 43.2709 6.70654 41.731 9.55879C41.1151 10.7922 41.1151 12.2569 41.808 13.4132C42.347 14.4153 43.5019 15.4945 45.7347 15.7258L41.1921 28.7536L33.7236 7.32324H26.8711L37.8813 35.9228H43.5019L51.2783 16.1112C51.3553 16.1112 51.4323 16.0342 51.5863 16.1112C51.9713 16.2654 52.8182 16.6509 53.7422 17.3447C53.8961 17.5759 54.4351 18.1926 54.2811 18.8864C54.1271 19.7344 54.0501 20.7365 54.0501 21.6616C54.0501 31.5288 61.0566 35.9228 68.6791 35.9228C76.5325 35.9228 79.7663 31.4517 79.7663 31.4517L76.4555 27.9828C76.4555 27.9828 73.9917 30.9892 68.987 30.9892C64.8293 30.9892 61.3646 28.5995 60.5177 24.2055H80.7672C80.9212 23.4346 80.9982 22.5866 80.9982 21.7387C80.9212 11.8714 74.4536 7.40033 67.5242 7.40033ZM60.4407 19.1948C60.9796 16.1112 62.2115 12.4881 67.6781 12.4881C72.9138 12.4881 74.1457 15.88 74.6076 19.1948H60.4407Z" fill="#50E8BE"/>
<path d="M122.113 24.5139C119.418 24.0514 116.801 23.2034 114.414 21.8158C112.335 20.6595 111.026 19.0406 110.41 17.1135C109.64 11.6402 106.945 7.40039 100.555 7.40039C96.0891 7.40039 93.0863 10.1756 91.2384 13.5674L90.0065 7.40039H85.4639V36H91.2384V25.9785C91.2384 16.728 94.6262 12.334 99.3999 12.334C103.789 12.334 104.866 16.4967 104.866 22.5096V36H110.641V27.0578C111.18 26.7494 111.796 26.6723 112.489 26.7494C113.567 26.9807 114.491 27.3661 115.261 28.2141C115.723 28.7537 116.108 29.3704 116.493 29.91C117.186 30.9893 117.725 32.0685 118.802 32.8394C120.881 34.304 123.114 34.4582 125.501 33.5332C128.658 32.2227 128.889 28.9079 126.81 26.6723C125.578 25.3618 123.884 24.8222 122.113 24.5139Z" fill="#50E8BE"/>
<path d="M161.765 21.6616C161.765 11.8715 155.22 7.40039 148.214 7.40039C143.902 7.40039 139.821 9.09632 137.281 12.5653C137.281 12.5653 136.742 13.4903 136.126 14.2612C135.895 14.5696 135.587 14.8008 135.356 15.1092C134.509 15.88 133.508 16.3426 132.353 15.9571C131.583 15.6488 130.89 15.1092 130.351 14.5696C129.504 13.7216 128.734 12.7194 127.964 11.7944C125.577 8.86506 121.882 8.47962 119.187 10.0985C116.8 11.5631 116.415 14.5696 118.417 16.5738C119.495 17.6531 120.881 18.1927 122.344 18.501C123.884 18.8865 125.423 19.0406 126.963 19.5032C129.35 20.1199 131.506 21.2762 133.277 23.0492C134.278 24.0514 134.894 25.3618 135.356 26.5952C135.895 28.2912 136.665 29.7558 137.666 30.9893C137.974 31.3747 138.282 31.8372 138.667 32.1456V32.0685C141.438 34.7666 145.365 36 149.446 36C157.376 36 160.687 31.5289 160.687 31.5289L157.376 28.0599C157.376 28.0599 154.912 31.0663 149.831 31.0663C145.673 31.0663 142.131 28.7537 141.207 24.2826H161.611C161.765 23.3576 161.765 22.5096 161.765 21.6616ZM141.13 19.1948C141.669 16.1113 142.901 12.4882 148.445 12.4882C153.68 12.4882 154.912 15.88 155.374 19.1948H141.13Z" fill="#50E8BE"/>
</g>
<defs>
<clipPath id="clip0_222_565">
<rect width="166" height="36" fill="white"/>
</clipPath>
</defs>
</svg>
