<svg width="54" height="26" viewBox="0 0 54 26" fill="none" xmlns="http://www.w3.org/2000/svg">
<g clip-path="url(#clip0_52_392)">
<mask id="mask0_52_392" style="mask-type:luminance" maskUnits="userSpaceOnUse" x="0" y="0" width="54" height="26">
<path d="M53.4857 0.404297H0.595459V25.3044H53.4857V0.404297Z" fill="white"/>
</mask>
<g mask="url(#mask0_52_392)">
<path d="M13.0157 9.42825C13.3518 8.96677 13.6076 8.44509 13.7631 7.89833C14.0942 6.74963 14.1142 5.53573 13.8133 4.377C13.6728 3.82021 13.432 3.29351 13.111 2.82199C12.795 2.36553 12.3837 1.9843 11.9071 1.69838C11.3854 1.40243 10.7986 1.25194 10.2016 1.25696H6.07837L6.19374 1.44757C6.4596 1.88899 6.59503 2.39562 6.59002 2.91228V9.24266C6.59002 9.76434 6.45458 10.271 6.19374 10.7224L6.08338 10.913H10.1214C10.6982 10.9231 11.2701 10.7876 11.7817 10.5117C12.2683 10.2459 12.6896 9.87469 13.0207 9.42825M8.24033 1.73851H9.72009C10.1164 1.73349 10.5026 1.85889 10.8186 2.09465C11.1547 2.35549 11.4306 2.68656 11.6212 3.06277C11.8469 3.50419 12.0125 3.97069 12.1128 4.45726C12.3335 5.52068 12.3335 6.6142 12.1128 7.67762C12.0175 8.16419 11.8519 8.6357 11.6212 9.07211C11.4306 9.44832 11.1547 9.77938 10.8186 10.0402C10.5026 10.276 10.1164 10.4014 9.72009 10.3964H8.24033V1.73851Z" fill="black"/>
<path d="M16.1054 2.6673C16.6723 2.67733 17.1388 2.22588 17.1438 1.65905C17.1438 1.64902 17.1438 1.63899 17.1438 1.62895C17.1488 1.34805 17.0435 1.07718 16.8428 0.876533C16.6472 0.680904 16.3813 0.570549 16.1004 0.575565C15.5336 0.560516 15.0621 1.00695 15.047 1.57378C15.047 1.59384 15.047 1.61391 15.047 1.62895C15.042 1.90484 15.1524 2.17571 15.348 2.37134C15.5487 2.57199 15.8195 2.67733 16.1004 2.67231" fill="black"/>
<path d="M14.8665 10.7181L14.7561 10.9087H17.4297L17.3194 10.7181C17.0535 10.2716 16.9181 9.75997 16.9231 9.23829V3.58008L14.7962 4.54819L14.8715 4.66858C15.0069 4.88929 15.1072 5.13007 15.1724 5.38087C15.2377 5.63168 15.2678 5.8875 15.2678 6.14834V9.2433C15.2678 9.76498 15.1323 10.2716 14.8715 10.7231" fill="black"/>
<path d="M18.8797 10.0306C19.1406 10.3516 19.4716 10.6124 19.8478 10.783C20.2541 10.9636 20.6905 11.0539 21.137 11.0438C21.6486 11.0689 22.1502 10.9234 22.5716 10.6325C22.7923 10.462 22.9829 10.2563 23.1284 10.0155V10.773C23.1735 11.395 23.003 12.017 22.6418 12.5286C22.3258 12.9149 21.8443 13.1255 21.3477 13.1055C21.1169 13.1055 20.8862 13.0553 20.6755 12.95C20.4648 12.8446 20.2792 12.7042 20.1237 12.5336C19.9682 12.3631 19.8428 12.1624 19.7575 11.9467C19.6723 11.7361 19.6271 11.5053 19.6271 11.2796V10.9786L18.2577 12.333L18.353 12.4233C18.7543 12.8296 19.2359 13.1406 19.7726 13.3462C20.2792 13.5268 20.8159 13.6171 21.3527 13.6121C21.8041 13.6121 22.2556 13.5569 22.692 13.4365C23.0832 13.3312 23.4544 13.1556 23.7805 12.9149C24.0865 12.6891 24.3373 12.3932 24.5179 12.0571C24.7035 11.6909 24.7988 11.2846 24.7887 10.8783V3.58984L22.9578 4.43256C22.7622 4.20181 22.5264 4.01622 22.2556 3.8858C21.9044 3.72528 21.5232 3.65004 21.142 3.66007C20.6956 3.65505 20.2541 3.75036 19.8528 3.94599C19.4766 4.13159 19.1456 4.39744 18.8897 4.72349C18.6189 5.07462 18.4182 5.4709 18.2978 5.89225C18.1624 6.36879 18.0922 6.86037 18.0972 7.35697C18.0922 7.86861 18.1574 8.37524 18.2978 8.86683C18.4182 9.2932 18.6189 9.68947 18.8897 10.0306M20.6504 4.30715C20.8561 4.20683 21.0818 4.15165 21.3075 4.15667C21.5533 4.15667 21.7941 4.20683 22.0148 4.30715C22.2455 4.41751 22.4462 4.59307 22.5866 4.80877C22.7773 5.10973 22.9127 5.4408 22.9829 5.78691C23.0883 6.29856 23.1384 6.82526 23.1284 7.35195C23.1384 7.87865 23.0883 8.40032 22.9829 8.91699C22.9127 9.2631 22.7773 9.59918 22.5866 9.89513C22.4462 10.1108 22.2506 10.2814 22.0198 10.3917C21.5834 10.5874 21.0868 10.5874 20.6554 10.3917C20.4498 10.2814 20.2892 10.1108 20.1839 9.90517C20.0284 9.59918 19.9231 9.26812 19.8729 8.92702C19.7926 8.40534 19.7525 7.88366 19.7626 7.35697C19.7525 6.83027 19.7926 6.30358 19.8729 5.78691C19.9231 5.44582 20.0284 5.11475 20.1839 4.80375C20.2892 4.59307 20.4548 4.42252 20.6604 4.30715" fill="black"/>
<path d="M27.9186 9.23842V3.5752L25.7917 4.54331L25.8669 4.6637C26.0024 4.88441 26.1027 5.12518 26.1679 5.37599C26.2331 5.6268 26.2632 5.88262 26.2632 6.14346V9.23842C26.2632 9.7601 26.1278 10.2667 25.8669 10.7182L25.7566 10.9088H28.4302L28.3198 10.7182C28.054 10.2717 27.9185 9.7601 27.9236 9.23842" fill="black"/>
<path d="M27.1009 2.6673C27.6677 2.67733 28.1342 2.22588 28.1443 1.65905C28.1443 1.64902 28.1443 1.63899 28.1443 1.62895C28.1493 1.34805 28.044 1.07718 27.8433 0.876533C27.6477 0.680904 27.3818 0.570549 27.1009 0.575565C26.5341 0.560516 26.0626 1.00695 26.0475 1.57378C26.0475 1.59384 26.0475 1.61391 26.0475 1.62895C26.0425 1.90484 26.1529 2.17571 26.3485 2.37134C26.5491 2.57199 26.82 2.67733 27.1009 2.67231" fill="black"/>
<path d="M29.9351 4.38288V9.53948C29.9301 9.80032 29.9953 10.0561 30.1207 10.2819C30.2411 10.4875 30.4066 10.6581 30.6073 10.7835C30.8179 10.9089 31.0487 10.9891 31.2895 11.0192C31.3797 11.0293 31.47 11.0393 31.5603 11.0393C31.7359 11.0393 31.9115 11.0192 32.077 10.9741C32.3629 10.8989 32.6338 10.7785 32.8796 10.6129C33.1605 10.4273 33.4063 10.1916 33.6069 9.92071L33.6671 9.84045L33.4263 9.56456L33.331 9.64984C33.1504 9.82038 32.9398 9.95582 32.714 10.0461C32.5335 10.1214 32.3378 10.1514 32.1472 10.1264C31.9917 10.1063 31.8462 10.021 31.7509 9.89563C31.6356 9.72508 31.5754 9.52443 31.5904 9.31375V4.36784C31.9466 4.42803 32.2927 4.55343 32.6087 4.73401L32.6839 4.77916L33.8326 3.78596H31.5904V2.17578L29.9351 2.82788V3.79098H28.8315V4.84939L29.0222 4.73401C29.3031 4.56347 29.6141 4.44308 29.9351 4.38288Z" fill="black"/>
<path d="M37.8156 6.05288C37.5447 6.20838 37.2588 6.34382 36.9729 6.46421C36.6568 6.59964 36.3308 6.73508 35.9997 6.88055C35.6737 7.021 35.3627 7.19155 35.0667 7.39219C34.7858 7.58281 34.5451 7.8286 34.3544 8.1095C34.1588 8.41549 34.0585 8.77665 34.0685 9.13781C34.0284 9.67454 34.229 10.2012 34.6203 10.5674C35.0366 10.8935 35.5583 11.059 36.085 11.0289C36.406 11.0339 36.7221 10.9838 37.023 10.8834C37.2789 10.7931 37.5146 10.6577 37.7253 10.4872C37.9209 10.3216 38.0915 10.121 38.2269 9.90026C38.252 9.86013 38.2771 9.81499 38.3021 9.76984V10.9085H40.4691L40.3588 10.7179C40.0979 10.2765 39.9575 9.76984 39.9625 9.25318V6.72003C39.9625 6.30369 39.9023 5.89237 39.7719 5.50111C39.6515 5.14496 39.4659 4.80888 39.2201 4.52296C38.9693 4.24205 38.6583 4.01633 38.3122 3.87588C37.9159 3.71536 37.4945 3.64012 37.0632 3.64513C36.5264 3.6351 35.9997 3.75047 35.5182 3.99125C35.1018 4.20694 34.7256 4.49286 34.4096 4.83898L34.3294 4.92927L35.7088 6.27359V5.97764C35.7088 5.7469 35.7339 5.51615 35.779 5.29043C35.8192 5.08477 35.8994 4.88412 36.0148 4.70354C36.1201 4.53801 36.2606 4.39755 36.4261 4.29723C36.6167 4.19189 36.8324 4.13672 37.0531 4.14675C37.2086 4.14675 37.3691 4.17684 37.5146 4.23704C37.6601 4.29723 37.7955 4.39254 37.9059 4.50791C38.0263 4.64335 38.1216 4.79885 38.1868 4.9694C38.262 5.17506 38.3021 5.38573 38.3072 5.60645C38.1818 5.79204 38.0112 5.94253 37.8106 6.05288M38.3122 7.71824C38.3172 8.38539 38.1316 9.04752 37.7755 9.61434C37.5246 10.0056 37.0933 10.2464 36.6268 10.2464C36.3709 10.2564 36.1251 10.136 35.9747 9.92534C35.7991 9.67955 35.7138 9.37859 35.7238 9.07762C35.7138 8.79671 35.769 8.51079 35.8743 8.24995C35.9696 8.03426 36.1001 7.83361 36.2656 7.65805C36.4261 7.4875 36.6117 7.34203 36.8073 7.22164C37.018 7.09122 37.2287 6.97084 37.4344 6.86048C37.64 6.75013 37.8507 6.62472 38.0363 6.50935C38.1316 6.44916 38.2169 6.38395 38.3021 6.31372V7.71322L38.3122 7.71824Z" fill="black"/>
<path d="M6.02317 21.1008C5.86265 21.2613 5.68207 21.4018 5.48644 21.5121C5.26072 21.6375 5.01994 21.7278 4.76412 21.788C4.418 21.8633 4.06687 21.8984 3.71073 21.8934H2.75766V14.4444C2.75264 13.9277 2.88808 13.4211 3.15394 12.9797L3.26931 12.7891H0.595703L0.711074 12.9797C0.97693 13.4211 1.11237 13.9277 1.10735 14.4444V20.7748C1.10735 21.2964 0.971914 21.8031 0.711074 22.2545L0.595703 22.4451H6.16362L6.93109 20.1327L6.53482 20.5691C6.35925 20.7597 6.19372 20.9403 6.02819 21.1058" fill="black"/>
<path d="M9.3687 13.9075C9.56433 13.7118 9.67468 13.446 9.66967 13.1651C9.67468 12.8842 9.56934 12.6133 9.3687 12.4127C9.17307 12.217 8.90721 12.1067 8.62631 12.1117C8.05948 12.0966 7.58797 12.5431 7.57292 13.1049C7.57292 13.125 7.57292 13.145 7.57292 13.1651C7.5679 13.441 7.67826 13.7118 7.87389 13.9075C8.07453 14.1081 8.3454 14.2135 8.62631 14.2084C8.9022 14.2135 9.17307 14.1031 9.3687 13.9075Z" fill="black"/>
<path d="M9.44418 20.775V15.1118L7.31734 16.0799L7.39258 16.2003C7.52802 16.421 7.62834 16.6618 7.69355 16.9126C7.75876 17.1634 7.78886 17.4192 7.78886 17.6801V20.775C7.78886 21.2967 7.65342 21.8034 7.39258 22.2548L7.28223 22.4454H9.95583L9.84548 22.2548C9.57962 21.8084 9.44418 21.2967 9.4492 20.775" fill="black"/>
<path d="M13.0959 13.993C13.0759 13.6469 13.1612 13.3058 13.3317 13.0099C13.4722 12.7892 13.723 12.6638 13.9838 12.6788C14.1343 12.6738 14.2798 12.7189 14.3951 12.8143C14.5155 12.9246 14.6158 13.0651 14.676 13.2155C14.7563 13.4062 14.8064 13.6068 14.8315 13.8075C14.8616 14.0382 14.8767 14.274 14.8767 14.5047V14.8006L16.2561 13.4563L16.1759 13.366C15.8849 13.04 15.5488 12.7591 15.1776 12.5283C14.7713 12.2926 14.3099 12.1722 13.8383 12.1822C13.4872 12.1772 13.1411 12.2374 12.8201 12.3678C12.5392 12.4782 12.2883 12.6487 12.0727 12.8594C11.872 13.06 11.7115 13.3058 11.6062 13.5717C11.5008 13.8375 11.4456 14.1185 11.4456 14.3994V15.3023H10.4324V16.3607L10.623 16.2503C10.7735 16.165 10.929 16.0898 11.0895 16.0346C11.2099 15.9945 11.3303 15.9594 11.4506 15.9343V20.7699C11.4506 21.2915 11.3152 21.8032 11.0544 22.2496L10.944 22.4402H13.6126L13.5023 22.2496C13.2414 21.8032 13.101 21.2915 13.106 20.7699V15.8791C13.4922 15.9293 13.8684 16.0547 14.2095 16.2503L14.2848 16.2955L15.4335 15.3023H13.101V13.988L13.0959 13.993Z" fill="black"/>
<path d="M21.6987 16.5714C21.468 16.1701 21.1419 15.834 20.7507 15.5882C20.2641 15.3023 19.7023 15.1619 19.1405 15.1869C18.674 15.1869 18.2125 15.2822 17.7861 15.4678C17.3648 15.6484 16.9886 15.9143 16.6675 16.2403C16.3415 16.5764 16.0857 16.9727 15.9151 17.4091C15.7295 17.8806 15.6392 18.3822 15.6442 18.8838C15.6392 19.4055 15.7295 19.9172 15.9151 20.4037C16.0857 20.8401 16.3415 21.2364 16.6725 21.5675C16.9936 21.8885 17.3748 22.1393 17.7911 22.3099C18.2225 22.4854 18.679 22.5707 19.1405 22.5707C19.8227 22.5908 20.4898 22.3701 21.0215 21.9387C21.5432 21.4872 21.9295 20.9053 22.1452 20.2532L22.1903 20.1278L21.8191 20.0275L21.774 20.1278C21.6335 20.4639 21.4479 20.7699 21.2122 21.0458C21.0215 21.2665 20.8008 21.4571 20.55 21.6026C20.3293 21.728 20.0936 21.8183 19.8428 21.8634C19.617 21.9036 19.3863 21.9236 19.1555 21.9186C18.9549 21.8935 18.7543 21.8434 18.5687 21.7631C18.3379 21.6628 18.1373 21.5123 17.9767 21.3167C17.7611 21.0458 17.6056 20.7348 17.5052 20.4037C17.3748 19.9523 17.3096 19.4808 17.3146 19.0092H22.2104V18.8889C22.2304 18.5177 22.2054 18.1515 22.1401 17.7853C22.0699 17.3589 21.9194 16.9476 21.7037 16.5714M17.3146 18.4775C17.3246 18.0411 17.3848 17.6097 17.4952 17.1884C17.5755 16.8673 17.7109 16.5664 17.9015 16.2955C18.042 16.0949 18.2376 15.9343 18.4583 15.834C18.674 15.7387 18.9047 15.6936 19.1405 15.6936C19.6271 15.6835 20.0735 15.9594 20.2792 16.4059C20.5701 17.058 20.7105 17.7652 20.6855 18.4775H17.3196H17.3146Z" fill="black"/>
<path d="M27.4371 18.4574C27.1562 18.2367 26.8652 18.0411 26.5542 17.8655C26.2483 17.6899 25.9573 17.5144 25.6965 17.3438C25.4657 17.1984 25.25 17.0328 25.0494 16.8472C24.914 16.7369 24.8287 16.5713 24.8187 16.3908C24.8187 16.2001 24.8889 16.0146 25.0243 15.8791C25.1999 15.7186 25.4356 15.6383 25.6714 15.6634C25.8871 15.6584 26.1028 15.7086 26.2884 15.8139C26.4589 15.9142 26.6044 16.0547 26.7148 16.2202C26.8301 16.4008 26.9154 16.6014 26.9656 16.8071C27.0207 17.0328 27.0508 17.2586 27.0508 17.4893V17.8304L28.2497 16.4359L28.1745 16.3556C27.8434 15.9845 27.4471 15.6835 27.0107 15.4527C26.5944 15.2571 26.1379 15.1568 25.6764 15.1618C25.2751 15.1518 24.8688 15.207 24.4826 15.3173C24.1967 15.4026 23.9308 15.543 23.7001 15.7286C23.5145 15.8841 23.369 16.0798 23.2737 16.3055C23.1934 16.5061 23.1533 16.7168 23.1533 16.9275C23.1533 17.2586 23.2536 17.5796 23.4492 17.8404C23.6449 18.1013 23.8806 18.332 24.1465 18.5276C24.4274 18.7333 24.7233 18.9189 25.0293 19.0794C25.3303 19.2449 25.6212 19.4155 25.8871 19.586C26.1229 19.7365 26.3436 19.9171 26.5342 20.1228C26.6897 20.2833 26.775 20.499 26.7699 20.7197C26.79 21.0758 26.6696 21.427 26.4339 21.6928C26.173 21.9386 25.8219 22.059 25.4657 22.0389C25.24 22.0389 25.0193 21.9888 24.8237 21.8834C24.6381 21.7831 24.4725 21.6427 24.3421 21.4721C24.2117 21.2915 24.1064 21.0959 24.0412 20.8802C23.9709 20.6595 23.9358 20.4338 23.9358 20.203V19.9021L22.5664 21.2564L22.6617 21.3467C22.8674 21.5423 23.0831 21.7279 23.3188 21.8935C23.5245 22.0389 23.7502 22.1643 23.981 22.2647C24.2067 22.36 24.4424 22.4302 24.6832 22.4753C24.9441 22.5205 25.2049 22.5406 25.4708 22.5406C25.8871 22.5456 26.3034 22.4854 26.6947 22.3499C27.0358 22.2346 27.3468 22.059 27.6227 21.8333C27.8785 21.6176 28.0791 21.3517 28.2196 21.0508C28.355 20.7448 28.4253 20.4187 28.4253 20.0826C28.4253 19.7566 28.3249 19.4356 28.1343 19.1697C27.9387 18.8988 27.708 18.6581 27.4471 18.4524" fill="black"/>
<path d="M39.315 15.3573C39.3552 15.5931 39.3602 15.8339 39.3251 16.0696C39.29 16.3355 39.2197 16.5913 39.1194 16.8421L37.5995 20.6845L36.205 16.8421C36.1097 16.5963 36.0545 16.3355 36.0295 16.0747C36.0094 15.8339 36.0245 15.5931 36.0696 15.3573L36.0997 15.2069H33.4261L33.5314 15.3222H31.4798V13.707L29.8245 14.3591V15.3222H28.7209V16.3806L28.9116 16.2653C29.1925 16.0947 29.5035 15.9743 29.8245 15.9141V21.0707C29.8195 21.3316 29.8847 21.5874 30.0101 21.8131C30.1305 22.0188 30.296 22.1893 30.4967 22.3147C30.7073 22.4401 30.9381 22.5204 31.1789 22.5505C31.2691 22.5605 31.3594 22.5706 31.4497 22.5706C31.6253 22.5706 31.8009 22.5505 31.9664 22.5053C32.2523 22.4301 32.5232 22.3097 32.769 22.1442C33.0499 21.9586 33.2957 21.7228 33.4963 21.452L33.5565 21.3717L33.3157 21.0958L33.2204 21.1811C33.0398 21.3516 32.8292 21.4871 32.6034 21.5774C32.4229 21.6526 32.2272 21.6827 32.0316 21.6576C31.8761 21.6376 31.7306 21.5523 31.6353 21.4269C31.52 21.2563 31.4598 21.0557 31.4748 20.85V15.8991C31.831 15.9593 32.1771 16.0847 32.4931 16.2653L32.5683 16.3104L33.6117 15.4125C33.8224 15.6433 34.013 15.8941 34.1735 16.1549C34.329 16.4007 34.4594 16.6615 34.5648 16.9324L36.5411 22.405H36.9073L36.6765 22.9769C36.5712 23.2879 36.3906 23.5638 36.1448 23.7845C35.7435 24.1005 35.1918 24.1456 34.7403 23.9099L34.4694 23.7995L35.0764 25.3044H35.1617C35.6031 25.3194 36.0295 25.1388 36.3304 24.8128C36.4809 24.6472 36.6113 24.4616 36.7117 24.256C36.8321 24.0252 36.9374 23.7845 37.0327 23.5437L39.6411 16.9324C39.8668 16.3656 40.2079 15.8489 40.6443 15.4226L40.855 15.2119H39.2799L39.305 15.3573H39.315Z" fill="black"/>
<path d="M50.4258 16.5714C50.195 16.1701 49.869 15.834 49.4777 15.5882C48.9912 15.3023 48.4294 15.1619 47.8675 15.1869C47.401 15.1869 46.9396 15.2822 46.5132 15.4678C46.0918 15.6484 45.7156 15.9143 45.3946 16.2403C45.0685 16.5764 44.8127 16.9727 44.6422 17.4091C44.4566 17.8806 44.3663 18.3822 44.3713 18.8838C44.3663 19.4055 44.4566 19.9172 44.6422 20.4037C44.8127 20.8401 45.0685 21.2364 45.3946 21.5675C45.7156 21.8885 46.0968 22.1393 46.5132 22.3099C46.9446 22.4854 47.401 22.5707 47.8625 22.5707C48.5447 22.5908 49.2119 22.3701 49.7436 21.9387C50.2653 21.4872 50.6515 20.9053 50.8672 20.2532L50.9123 20.1278L50.5411 20.0275L50.496 20.1278C50.3556 20.4639 50.17 20.7699 49.9342 21.0458C49.7436 21.2665 49.5229 21.4571 49.2721 21.6026C49.0514 21.728 48.8156 21.8183 48.5648 21.8634C48.3391 21.9036 48.1083 21.9236 47.8776 21.9186C47.6769 21.8935 47.4763 21.8434 47.2907 21.7631C47.0599 21.6628 46.8593 21.5123 46.6988 21.3167C46.4831 21.0458 46.3276 20.7348 46.2273 20.4037C46.0968 19.9523 46.0316 19.4808 46.0316 19.0092H50.9274V18.8889C50.9475 18.5177 50.9224 18.1515 50.8572 17.7853C50.7869 17.3589 50.6365 16.9476 50.4208 16.5714M46.0417 18.4675C46.0517 18.0311 46.1119 17.5997 46.2222 17.1783C46.3025 16.8573 46.4379 16.5563 46.6286 16.2855C46.769 16.0848 46.9646 15.9243 47.1853 15.824C47.401 15.7287 47.6318 15.6835 47.8675 15.6835C48.3541 15.6735 48.8005 15.9494 49.0062 16.3958C49.2971 17.0479 49.4376 17.7552 49.4125 18.4675H46.0467H46.0417Z" fill="black"/>
<path d="M53.2148 20.8805C52.8586 20.5243 52.2818 20.5293 51.9256 20.8805C51.5695 21.2366 51.5745 21.8135 51.9256 22.1696C52.2768 22.5258 52.8586 22.5207 53.2148 22.1696C53.3853 21.9991 53.4806 21.7683 53.4806 21.5275C53.4806 21.2868 53.3853 21.051 53.2098 20.8805" fill="black"/>
<path d="M43.2027 9.23772V0.404297L41.0759 1.37241L41.1511 1.4928C41.2866 1.71351 41.3869 1.95428 41.4521 2.20509C41.5173 2.4559 41.5474 2.71172 41.5474 2.97256V9.24274C41.5474 9.77947 41.412 21.8132 41.1511 22.2596L41.0408 22.4502H43.7094L43.599 22.2596C43.3332 21.8132 43.2027 9.77947 43.2027 9.24274" fill="black"/>
</g>
</g>
<defs>
<clipPath id="clip0_52_392">
<rect width="52.8902" height="24.9001" fill="white" transform="translate(0.595459 0.404297)"/>
</clipPath>
</defs>
</svg>
