<svg width="80" height="39" viewBox="0 0 80 39" fill="none" xmlns="http://www.w3.org/2000/svg">
<path d="M5.68465 34.2842V30.5854H6.46666V33.6394H8.05237V34.2842H5.68465ZM10.3193 34.2842H9.4813L10.7582 30.5854H11.7659L13.041 34.2842H12.203L11.2765 31.4306H11.2476L10.3193 34.2842ZM10.2669 32.8303H12.2463V33.4408H10.2669V32.8303ZM17.3658 30.5854L18.2598 33.3956H18.2941L19.1899 30.5854H20.0568L18.7818 34.2842H17.774L16.4971 30.5854H17.3658ZM22.3012 30.5854V34.2842H21.5192V30.5854H22.3012ZM23.9618 34.2842V30.5854H26.4541V31.2302H24.7438V32.1115H26.3259V32.7563H24.7438V33.6394H26.4613V34.2842H23.9618ZM33.5507 31.8803H32.7597C32.7452 31.778 32.7157 31.6871 32.6712 31.6076C32.6266 31.527 32.5695 31.4583 32.4996 31.4017C32.4298 31.3452 32.3491 31.3018 32.2576 31.2717C32.1673 31.2416 32.0692 31.2266 31.9632 31.2266C31.7718 31.2266 31.605 31.2741 31.463 31.3692C31.3209 31.4631 31.2107 31.6004 31.1325 31.781C31.0542 31.9604 31.0151 32.1783 31.0151 32.4348C31.0151 32.6985 31.0542 32.92 31.1325 33.0994C31.2119 33.2788 31.3227 33.4143 31.4648 33.5058C31.6068 33.5973 31.7712 33.643 31.9578 33.643C32.0626 33.643 32.1595 33.6292 32.2486 33.6015C32.3389 33.5738 32.419 33.5335 32.4888 33.4805C32.5586 33.4263 32.6164 33.3607 32.6622 33.2836C32.7091 33.2066 32.7416 33.1187 32.7597 33.02L33.5507 33.0236C33.5303 33.1933 33.4791 33.3571 33.3972 33.5148C33.3166 33.6713 33.2076 33.8116 33.0703 33.9356C32.9343 34.0584 32.7717 34.156 32.5827 34.2282C32.3949 34.2992 32.1824 34.3347 31.9452 34.3347C31.6153 34.3347 31.3203 34.2601 31.0602 34.1108C30.8013 33.9615 30.5967 33.7454 30.4462 33.4624C30.2969 33.1795 30.2222 32.8369 30.2222 32.4348C30.2222 32.0314 30.2981 31.6883 30.4498 31.4054C30.6015 31.1224 30.8074 30.9069 31.0674 30.7588C31.3275 30.6095 31.6201 30.5348 31.9452 30.5348C32.1595 30.5348 32.3581 30.5649 32.5412 30.6251C32.7254 30.6853 32.8885 30.7732 33.0306 30.8888C33.1727 31.0032 33.2883 31.1435 33.3774 31.3096C33.4677 31.4758 33.5255 31.666 33.5507 31.8803ZM38.5276 32.4348C38.5276 32.8381 38.4512 33.1813 38.2983 33.4642C38.1466 33.7472 37.9395 33.9633 37.677 34.1126C37.4157 34.2607 37.1219 34.3347 36.7956 34.3347C36.4669 34.3347 36.172 34.2601 35.9107 34.1108C35.6494 33.9615 35.4429 33.7454 35.2912 33.4624C35.1395 33.1795 35.0637 32.8369 35.0637 32.4348C35.0637 32.0314 35.1395 31.6883 35.2912 31.4054C35.4429 31.1224 35.6494 30.9069 35.9107 30.7588C36.172 30.6095 36.4669 30.5348 36.7956 30.5348C37.1219 30.5348 37.4157 30.6095 37.677 30.7588C37.9395 30.9069 38.1466 31.1224 38.2983 31.4054C38.4512 31.6883 38.5276 32.0314 38.5276 32.4348ZM37.7348 32.4348C37.7348 32.1735 37.6957 31.9532 37.6174 31.7738C37.5403 31.5944 37.4314 31.4583 37.2905 31.3656C37.1496 31.2729 36.9847 31.2266 36.7956 31.2266C36.6066 31.2266 36.4417 31.2729 36.3008 31.3656C36.1599 31.4583 36.0504 31.5944 35.9721 31.7738C35.895 31.9532 35.8565 32.1735 35.8565 32.4348C35.8565 32.6961 35.895 32.9164 35.9721 33.0958C36.0504 33.2752 36.1599 33.4113 36.3008 33.504C36.4417 33.5967 36.6066 33.643 36.7956 33.643C36.9847 33.643 37.1496 33.5967 37.2905 33.504C37.4314 33.4113 37.5403 33.2752 37.6174 33.0958C37.6957 32.9164 37.7348 32.6961 37.7348 32.4348ZM43.2178 30.5854V34.2842H42.5424L40.9332 31.9562H40.9061V34.2842H40.1241V30.5854H40.8104L42.4069 32.9116H42.4394V30.5854H43.2178ZM47.9748 30.5854V34.2842H47.2994L45.6902 31.9562H45.6631V34.2842H44.8811V30.5854H45.5674L47.1639 32.9116H47.1964V30.5854H47.9748ZM49.6381 34.2842V30.5854H52.1304V31.2302H50.4201V32.1115H52.0022V32.7563H50.4201V33.6394H52.1377V34.2842H49.6381ZM57.0328 31.8803H56.2418C56.2273 31.778 56.1979 31.6871 56.1533 31.6076C56.1088 31.527 56.0516 31.4583 55.9817 31.4017C55.9119 31.3452 55.8312 31.3018 55.7397 31.2717C55.6494 31.2416 55.5513 31.2266 55.4453 31.2266C55.2539 31.2266 55.0871 31.2741 54.9451 31.3692C54.803 31.4631 54.6928 31.6004 54.6146 31.781C54.5363 31.9604 54.4972 32.1783 54.4972 32.4348C54.4972 32.6985 54.5363 32.92 54.6146 33.0994C54.694 33.2788 54.8048 33.4143 54.9469 33.5058C55.0889 33.5973 55.2533 33.643 55.4399 33.643C55.5447 33.643 55.6416 33.6292 55.7307 33.6015C55.821 33.5738 55.9011 33.5335 55.9709 33.4805C56.0407 33.4263 56.0985 33.3607 56.1443 33.2836C56.1912 33.2066 56.2237 33.1187 56.2418 33.02L57.0328 33.0236C57.0124 33.1933 56.9612 33.3571 56.8793 33.5148C56.7987 33.6713 56.6897 33.8116 56.5524 33.9356C56.4164 34.0584 56.2538 34.156 56.0648 34.2282C55.877 34.2992 55.6645 34.3347 55.4273 34.3347C55.0974 34.3347 54.8024 34.2601 54.5423 34.1108C54.2835 33.9615 54.0788 33.7454 53.9283 33.4624C53.779 33.1795 53.7043 32.8369 53.7043 32.4348C53.7043 32.0314 53.7802 31.6883 53.9319 31.4054C54.0836 31.1224 54.2895 30.9069 54.5495 30.7588C54.8096 30.6095 55.1022 30.5348 55.4273 30.5348C55.6416 30.5348 55.8403 30.5649 56.0233 30.6251C56.2075 30.6853 56.3706 30.7732 56.5127 30.8888C56.6548 31.0032 56.7704 31.1435 56.8595 31.3096C56.9498 31.4758 57.0076 31.666 57.0328 31.8803ZM58.4699 31.2302V30.5854H61.5077V31.2302H60.3753V34.2842H59.6023V31.2302H58.4699ZM63.0251 34.2842V30.5854H65.5174V31.2302H63.8071V32.1115H65.3892V32.7563H63.8071V33.6394H65.5247V34.2842H63.0251ZM64.0004 30.2278L64.3832 29.4061H65.0948L64.544 30.2278H64.0004ZM67.1563 34.2842V30.5854H69.6487V31.2302H67.9383V32.1115H69.5204V32.7563H67.9383V33.6394H69.6559V34.2842H67.1563ZM74.3866 30.5854L74.3162 33.1753H73.6552L73.5829 30.5854H74.3866ZM73.9857 34.3311C73.8665 34.3311 73.7641 34.289 73.6786 34.2047C73.5932 34.1192 73.551 34.0169 73.5522 33.8977C73.551 33.7797 73.5932 33.6786 73.6786 33.5943C73.7641 33.51 73.8665 33.4679 73.9857 33.4679C74.1001 33.4679 74.2006 33.51 74.2873 33.5943C74.374 33.6786 74.4179 33.7797 74.4191 33.8977C74.4179 33.9772 74.3969 34.05 74.3559 34.1162C74.3162 34.1812 74.2638 34.2336 74.1988 34.2733C74.1338 34.3119 74.0627 34.3311 73.9857 34.3311Z" fill="black"/>
<path d="M23.6106 25.5883V19.3257C23.6106 18.9434 23.4098 18.4646 23.0066 17.8896C22.6058 17.3161 22.2227 16.9506 21.8588 16.7988C21.3038 16.549 20.7962 16.4237 20.3359 16.4237C20.0484 16.4237 19.5311 16.5586 18.7857 16.8269C18.401 16.961 18.0187 17.3064 17.6364 17.8614C17.2516 18.4173 17.0629 18.8944 17.0629 19.2968V25.5883H14.4476V19.3257C14.4476 18.9233 14.2484 18.447 13.8501 17.8896C13.4493 17.3345 13.0621 16.9699 12.6822 16.7988C12.132 16.549 11.6276 16.4237 11.1738 16.4237C10.8886 16.4237 10.3754 16.5586 9.63562 16.8269C9.27418 16.961 8.89829 17.3112 8.50953 17.8751C8.12078 18.4405 7.92721 18.9145 7.92721 19.2968V25.5883H5.25574V13.8101H7.92721V14.8165C8.94085 14.1474 10.0123 13.8101 11.1441 13.8101C12.9834 13.8101 14.5223 14.557 15.7689 16.051C16.5159 15.19 17.1191 14.6623 17.5785 14.4695C18.6508 14.031 19.5705 13.8101 20.3359 13.8101C22.4227 13.8101 24.0516 14.6912 25.2194 16.4518C25.8909 17.4695 26.2242 18.3779 26.2242 19.1811V25.5883H23.6106Z" fill="black"/>
<path d="M33.6793 16.4242C32.8022 16.4242 32.0391 16.7511 31.3901 17.4017C30.742 18.0523 30.4191 18.8193 30.4191 19.6988C30.4191 20.5984 30.7355 21.3695 31.3757 22.0129C32.015 22.653 32.7813 22.9743 33.6793 22.9743C34.5757 22.9743 35.3427 22.653 35.9813 22.0129C36.6198 21.3695 36.9403 20.5984 36.9403 19.6988C36.9403 18.7993 36.6198 18.0274 35.9813 17.3856C35.3427 16.7447 34.5757 16.4242 33.6793 16.4242ZM36.9403 14.4708V13.8105H39.6102V25.588H36.9403V24.6113C35.9427 25.2635 34.8592 25.588 33.6913 25.588C32.064 25.588 30.6769 25.0145 29.5275 23.8659C28.3789 22.7157 27.8038 21.3269 27.8038 19.6988C27.8038 18.0908 28.3829 16.7069 29.5436 15.5479C30.701 14.3905 32.0841 13.8105 33.6913 13.8105C34.8978 13.8105 35.9813 14.029 36.9403 14.4708Z" fill="black"/>
<path d="M47.0496 25.5885C45.5371 25.5885 44.1773 25.0431 42.9717 23.9515C41.7637 22.8592 41.1613 21.566 41.1613 20.072V10.5781H43.7765V13.8102H47.7684V16.4239H43.7765V20.1018C43.7765 20.3491 43.9387 20.7628 44.264 21.3363C44.8761 22.4278 45.8038 22.9748 47.0496 22.9748C48.0841 22.9748 48.9941 22.476 49.778 21.4801L51.6463 23.3491C50.1909 24.8415 48.6584 25.5885 47.0496 25.5885Z" fill="black"/>
<path d="M57.8235 25.5885C56.3095 25.5885 54.9512 25.0431 53.7424 23.9515C52.536 22.8592 51.9336 21.566 51.9336 20.072V10.5781H54.5472V13.8102H58.5408V16.4239H54.5472V20.1018C54.5472 20.3491 54.7111 20.7628 55.0372 21.3363C55.65 22.4278 56.5785 22.9748 57.8235 22.9748C58.8564 22.9748 59.7649 22.476 60.5504 21.4801L62.4186 23.3491C60.964 24.8415 59.4307 25.5885 57.8235 25.5885Z" fill="black"/>
<path d="M68.6217 16.4242C68.0104 16.4242 67.4337 16.6057 66.8988 16.9696C66.3631 17.3342 65.9591 17.8033 65.6916 18.3776H71.5815C71.3108 17.8033 70.9044 17.3342 70.3598 16.9696C69.8136 16.6057 69.2353 16.4242 68.6217 16.4242ZM65.6916 20.992C66.0185 21.4587 66.4972 21.9928 67.1285 22.5952C67.6643 22.8482 68.1639 22.9743 68.6217 22.9743C69.6554 22.9743 70.5638 22.4771 71.3518 21.4804L73.2176 23.3494C71.7622 24.841 70.2313 25.588 68.6217 25.588C66.9936 25.588 65.6056 25.0145 64.4571 23.8659C63.3101 22.7157 62.735 21.3269 62.735 19.6988C62.735 18.0908 63.3117 16.7069 64.4715 15.5479C65.6297 14.3905 67.0145 13.8105 68.6217 13.8105C70.7494 13.8105 72.3871 14.6812 73.5349 16.4242C74.204 17.4587 74.5397 18.3776 74.5397 19.1832V20.992H65.6916Z" fill="black"/>
<path d="M78.6188 10.9888H76.0051V25.5887H78.6188V10.9888Z" fill="black"/>
</svg>
