<svg width="61" height="31" viewBox="0 0 61 31" fill="none" xmlns="http://www.w3.org/2000/svg">
<path d="M53.7965 16.66C51.9316 15.9361 50.8693 19.1485 53.074 19.5789C54.7924 19.9134 55.6067 17.3643 53.7965 16.66Z" fill="black"/>
<path d="M58.4285 8.66233C58.3622 8.62516 57.792 8.37475 57.4502 8.22998C57.3448 8.18498 57.2354 8.14977 57.1241 8.12238L57.087 8.10868C57.0421 8.09695 57.0011 8.13803 57.0089 8.18302L57.1124 8.453C57.1163 8.47061 57.128 8.48822 57.1436 8.49604C57.169 8.50974 57.2081 8.53126 57.2628 8.56451C57.2628 8.56451 58.5945 9.23358 58.8718 10.1237C58.9324 10.2881 58.9519 10.4543 58.9148 10.6167C58.9148 10.6167 58.8914 11.3073 58.2001 11.681C56.097 12.9937 49.6567 12.3637 49.6567 12.3637C44.3218 11.679 43.3532 10.378 43.3532 10.378C42.6288 9.67963 42.9939 9.16316 42.9939 9.16316C43.654 8.23585 45.0736 8.18694 45.0736 8.18694L45.2084 8.7132L44.4663 8.92644C44.2964 8.97535 44.1304 9.03991 43.9703 9.12012C43.9313 9.14164 43.8942 9.1612 43.861 9.18272C43.57 9.36857 43.5446 9.78723 43.8082 10.0122C45.5774 11.6477 49.8364 11.8844 49.8364 11.8844C49.9419 11.8923 50.1254 11.5264 50.1742 11.4501C50.3422 11.1899 50.4984 10.92 50.6683 10.6578C50.7386 10.5502 50.8069 10.4426 50.8772 10.335C51.2072 9.82244 51.5294 9.30597 51.8556 8.79341C51.963 8.6232 52.0762 8.46083 52.1953 8.30041L53.0135 7.19703C53.0643 7.1266 53.0311 7.02682 52.9471 7.0053C52.6679 6.95248 52.3769 6.90553 52.0782 6.86445H52.0801C49.5435 6.4634 46.8018 6.50057 46.0715 6.52013C46.0441 6.52013 46.0168 6.52013 45.9934 6.52013C45.9934 6.52013 45.9934 6.52013 45.9914 6.52013C45.9602 6.52013 45.9289 6.52209 45.8977 6.52404C45.8899 6.52404 45.886 6.52404 45.886 6.52404C45.845 6.52795 45.804 6.53187 45.7629 6.53774C44.5854 6.71968 43.3903 7.00726 42.3319 7.56091C41.9804 7.7448 41.6661 7.96 41.377 8.22998C40.6936 8.86775 40.8537 9.99069 40.8537 9.99069C41.049 13.383 41.6973 19.4633 41.6973 19.4633C41.9765 22.0379 42.6229 24.1742 42.6249 24.1762C44.519 22.1024 46.3566 22.8498 46.3566 22.8498C48.0242 23.5521 48.8952 24.6242 48.8952 24.6242C49.5181 25.3109 49.1939 25.4478 49.1939 25.4478C49.1744 25.4615 49.1568 25.4732 49.1373 25.4811C48.9499 25.5476 48.778 25.395 48.7038 25.3128C48.6608 25.2639 48.6159 25.217 48.571 25.17L48.0008 24.5948C47.5126 24.0921 46.9112 23.7106 46.2433 23.5012C43.6383 22.6835 42.9998 25.2698 42.9998 25.2698C42.369 27.7661 45.6516 28.2473 45.6536 28.2473L45.4798 28.8186C44.1851 28.175 43.9937 28.8577 43.9937 28.8577C43.7965 30.0472 45.7239 30.2428 45.7239 30.2428C48.8503 30.413 48.9088 30.2428 48.9088 30.2428C49.8286 29.7302 49.4966 28.1534 49.4966 28.1534C49.1725 26.8603 48.1414 26.1951 47.7704 25.9917C47.6395 25.9212 47.5224 25.8293 47.4267 25.7139C47.2529 25.5065 47.2646 25.3852 47.3115 25.3167C47.3505 25.2619 47.4208 25.2365 47.4872 25.2463C47.5126 25.2502 47.538 25.2561 47.5653 25.2619C47.6591 25.2854 47.7489 25.3285 47.8309 25.3813L48.4636 25.7843C48.5925 25.8762 48.7526 25.9858 48.9323 26.0954C49.647 26.5903 50.3461 26.559 50.3461 26.559L51.5197 22.7422L52.0918 22.9182L50.678 27.2339C50.1215 29.3996 51.8302 29.7185 51.8302 29.7185C54.1696 30.235 54.9429 26.5512 54.9429 26.5512L55.6322 23.6362C55.7962 23.2841 56.0032 23.3232 56.0032 23.3232C56.1965 23.3486 56.1516 23.5521 56.1516 23.5521L55.9759 24.3483C55.8978 24.6085 56.1223 24.6007 56.1223 24.6007C57.2237 24.6829 57.2217 23.9825 57.2217 23.9825L59.4694 15.7247C59.8306 14.6664 60.1743 13.5884 60.395 12.4889C60.6586 10.3037 59.3522 9.17685 58.4305 8.66037L58.4285 8.66233ZM53.572 21.5273C52.8358 21.3238 52.2813 20.7584 51.8321 20.1676C51.26 19.4183 50.8733 17.9413 49.7485 18.0235C48.8405 18.09 48.4226 19.1464 47.8622 19.7744C47.2314 20.4826 46.3214 21.1497 45.3275 21.0656C43.9254 20.9443 42.3808 19.3773 42.8436 17.9061C43.5954 15.5135 48.2039 13.1874 50.6175 13.5395C52.6874 13.8427 56.4113 16.4877 56.9093 18.6338C57.3155 20.3926 55.2006 21.9792 53.5759 21.5292L53.572 21.5273Z" fill="black"/>
<path d="M45.3217 18.4797C45.6947 18.9942 46.2688 19.2153 46.8859 19.0588C47.8213 18.8221 48.2763 17.6365 47.7041 16.852C46.5031 15.1989 44.279 17.0398 45.3217 18.4797Z" fill="black"/>
<path d="M0.786865 6.48491C0.786865 2.66612 1.30044 0.529785 4.14366 0.529785C5.88162 0.529785 8.60767 2.76589 8.60767 6.48491C8.60767 6.62381 8.70726 6.72163 8.84396 6.72163C8.98065 6.72163 9.08024 6.62185 9.08024 6.48491C9.08024 5.23872 8.78342 4.12947 8.33038 3.21976C9.27942 1.50013 11.0974 0.529785 12.1441 0.529785C14.8702 0.529785 15.5224 2.68568 15.5224 6.48491C15.5224 10.5815 15.0869 13.9053 12.5796 13.9053C11.6911 13.9053 11.0389 13.3517 10.6053 12.5985C11.2576 11.411 11.5329 9.76962 11.238 7.94826C11.2185 7.82892 11.1189 7.75067 11.0018 7.75067C10.8631 7.75067 10.744 7.88957 10.7655 8.02847C11.3181 11.3523 9.89649 13.9053 8.01989 13.9053C7.0318 13.9053 6.55923 13.5297 6.12376 12.5202C6.75646 11.0158 6.91463 9.5329 6.49869 7.71154C6.47916 7.5922 6.37957 7.51395 6.26241 7.51395C6.12376 7.51395 6.00464 7.65285 6.02612 7.79175C6.79551 11.4129 5.67072 13.9053 3.4973 13.9053C1.02315 13.9053 0.786865 10.6402 0.786865 6.48491Z" fill="black"/>
<path d="M15.9952 9.07658C15.9952 6.1088 17.3387 0.529297 21.3087 0.529297C25.0619 0.529297 26.5812 6.06967 26.5812 9.07658C26.5812 11.9055 26.0481 13.9048 23.9156 13.9048C22.2167 13.9048 21.0509 12.1441 21.5255 9.96672C21.545 9.80826 21.4259 9.66936 21.2892 9.66936C21.1701 9.66936 21.0724 9.74761 21.0529 9.84738C20.9142 10.5399 20.9142 11.1934 21.0529 11.8057C20.717 13.0128 19.9476 13.9029 18.7428 13.9029C16.7685 13.9029 15.9972 11.9035 15.9972 9.07463L15.9952 9.07658ZM21.1896 7.93016C21.3868 7.93016 21.4669 7.73257 21.4063 7.59367C20.9728 6.64484 21.129 5.85252 21.4454 5.07976C21.504 4.94086 21.4063 4.74327 21.2286 4.74327C21.129 4.74327 21.0509 4.80196 21.0119 4.88217C20.6565 5.73318 20.4788 6.68201 20.9728 7.79126C21.0119 7.86951 21.0919 7.93016 21.1896 7.93016Z" fill="black"/>
<path d="M30.1676 8.0676C30.1676 6.26776 30.4644 4.54617 30.978 3.55626C31.0366 3.39779 30.9585 3.2002 30.7612 3.2002C30.6617 3.2002 30.5835 3.25889 30.5445 3.31954C30.2086 3.97296 29.9723 4.90223 29.8337 5.95083C28.0957 6.14842 26.8909 5.41675 26.8909 3.25889C26.8909 1.32015 28.373 0.527832 32.8761 0.527832C37.3791 0.527832 38.8613 1.37884 38.8613 3.25889C38.8613 4.80245 38.1114 5.98996 36.5317 5.98996C35.5436 5.98996 34.6941 5.7728 33.9638 5.25828C33.9247 5.23872 33.8857 5.21915 33.8251 5.21915C33.6865 5.21915 33.5888 5.31893 33.5888 5.45587C33.5888 5.53413 33.6279 5.61434 33.6884 5.65346C34.1825 5.98996 34.7351 6.22667 35.3268 6.34601C35.4049 6.93878 35.4654 7.63133 35.4654 8.3454C35.4654 11.8277 34.7937 13.9053 32.878 13.9053C30.9624 13.9053 30.1715 11.8081 30.1715 8.0676H30.1676Z" fill="black"/>
<path d="M0.786865 22.9341C0.786865 19.5496 1.48205 16.7207 4.28231 16.7207C5.81913 16.7207 6.66272 17.4915 7.08452 18.7397C6.63734 19.71 6.41472 20.8956 6.41472 22.2415C6.41472 23.2901 6.48893 24.4581 6.63734 25.2093C6.66272 25.3286 6.78575 25.4069 6.93416 25.4069C7.10795 25.4069 7.25636 25.268 7.23098 25.1291C7.08257 24.417 7.00836 23.2882 7.00836 22.2396C7.00836 18.8962 8.37139 16.7188 10.5546 16.7188C13.3568 16.7188 14.0754 19.5476 14.0754 22.9321C14.0754 27.0874 14.05 30.0943 11.0506 30.0943C10.084 30.0943 9.36534 29.7578 9.06657 29.3822C9.63678 28.7894 9.88478 28.0754 9.88478 27.5217C9.88478 27.3828 9.76175 27.285 9.58796 27.285C9.41416 27.285 9.29114 27.3848 9.29114 27.5217C9.29114 28.5312 8.34991 30.0943 5.96949 30.0943C2.54826 30.0943 0.786865 27.6802 0.786865 22.9321L0.786865 22.9341Z" fill="black"/>
<path d="M15.4579 22.8558C15.4579 19.4713 16.0515 16.7227 18.6546 16.7227C19.7344 16.7227 20.8143 17.3761 20.8358 18.4247C20.2226 19.6122 19.9668 20.6803 20.0742 21.9872C20.0957 22.1065 20.2011 22.2043 20.3281 22.2043C20.4765 22.2043 20.6034 22.085 20.5819 21.9481C20.3496 19.395 21.5974 16.7246 23.9485 16.7246C25.3467 16.7246 26.2781 17.4563 26.2781 19.0585C26.2781 20.4241 25.6845 22.0068 24.6261 23.2725C26.3621 25.4284 26.489 26.6961 26.489 27.6841C26.4676 29.2276 25.5146 30.0982 24.1809 30.0982C22.5933 30.0982 21.4919 28.9303 21.2595 28.0793C21.5349 27.2674 21.6618 26.2579 21.6618 25.1115C21.6618 24.9726 21.5564 24.8748 21.4079 24.8748C21.2595 24.8748 21.1541 24.9745 21.1541 25.1115C21.1541 28.2768 20.2011 30.0982 18.4437 30.0982C15.9441 30.0982 15.4579 27.7428 15.4579 22.8558Z" fill="black"/>
<path d="M28.8324 27.8015C28.8324 26.4751 29.5822 25.6847 30.7676 25.6847C31.0234 25.6847 31.2421 25.7238 31.4393 25.7845C31.7361 25.448 31.8943 25.1115 31.9529 24.7555C29.8986 23.6266 27.4498 21.6683 27.4498 19.354C27.4498 17.7909 28.2407 16.7227 29.4846 16.7227C31.1835 16.7227 32.941 18.5441 33.4546 21.4121C33.4741 21.5314 33.5737 21.6096 33.6909 21.6096C33.8295 21.6096 33.9467 21.4707 33.9271 21.3318C33.769 20.5004 33.5132 19.7492 33.1968 19.0957C33.7104 17.2959 34.7375 16.7012 35.7842 16.7012C37.0281 16.7012 38.0357 17.472 38.0357 18.9373C38.0357 21.9051 36.6922 30.0963 31.7947 30.0963C30.2149 30.0963 28.8324 29.2061 28.8324 27.8015Z" fill="black"/>
<path d="M41.3924 8.24199C41.613 8.42197 41.9508 8.40437 42.2145 8.33785C40.7186 5.65765 44.5031 4.41342 45.1436 7.34989C46.3934 6.91558 45.5068 6.01958 44.8663 5.48158C43.9524 4.71078 42.6656 4.38798 41.7282 5.3329C41.158 5.90807 40.7128 7.6903 41.3904 8.24394L41.3924 8.24199Z" fill="black"/>
<path d="M41.1623 4.14721L40.9651 3.97114C40.8948 3.85963 40.8597 3.74421 40.8636 3.62096C40.8655 3.49966 40.8968 3.37641 40.9554 3.25121C40.9866 3.20425 41.0257 3.15926 41.0706 3.11818C41.1155 3.07514 41.1663 3.04188 41.2209 3.0184C41.3811 2.95775 41.547 2.92841 41.7189 2.92841C41.8907 2.92841 42.0645 2.96754 42.2403 3.04188L42.4082 2.62322L41.7599 2.4002C41.6759 2.37085 41.5861 2.35129 41.4885 2.33955C41.3908 2.32781 41.301 2.30825 41.217 2.2789L41.1682 2.21826L41.1994 1.99132L41.2619 1.94828C41.465 1.94632 41.6681 1.97567 41.8732 2.03827C42.0782 2.10087 42.2832 2.16935 42.4922 2.23978L42.5644 2.02653L42.6425 1.72917L41.9395 1.46506L41.5295 1.36724L41.4806 1.3066L41.5119 1.07966L41.5744 1.03662C41.7267 1.0464 41.879 1.06988 42.0294 1.10705C42.1797 1.14422 42.3321 1.18922 42.4844 1.24204L42.707 1.33986L42.832 1.16183L43.0741 1.20291C43.1073 1.24399 43.1249 1.28116 43.1288 1.31834C43.1307 1.35551 43.1288 1.41028 43.1249 1.48462C43.242 1.5531 43.3592 1.6157 43.4803 1.67243C43.6013 1.72917 43.7087 1.80155 43.8025 1.89155L43.7634 2.07349C43.699 2.12435 43.6306 2.14 43.5603 2.12239C43.4881 2.10479 43.4178 2.08522 43.3475 2.05979L43.0331 1.88763L42.9472 2.14L42.8886 2.38063C43.0565 2.43737 43.2264 2.4941 43.4041 2.54692C43.5799 2.59974 43.7244 2.68974 43.8376 2.81494L43.7986 2.99688C43.74 3.03405 43.6795 3.0497 43.6189 3.04383C43.5584 3.03797 43.5018 3.02427 43.4451 3.00666L42.8046 2.76408L42.6367 3.18273C42.8417 3.26686 43.0311 3.36859 43.2088 3.48793C43.3865 3.60726 43.5291 3.7579 43.6384 3.93984L43.5994 4.12178C43.5545 4.16482 43.5037 4.18243 43.451 4.17852C43.3983 4.1746 43.3455 4.157 43.2948 4.12374C43.201 3.99071 43.0839 3.87724 42.9433 3.78529C42.8027 3.69334 42.6523 3.61313 42.4902 3.5427C42.4219 3.72073 42.3262 3.8655 42.2032 3.97506C42.0801 4.08461 41.9376 4.16091 41.7736 4.20591C41.6818 4.24699 41.5822 4.26068 41.4728 4.24699C41.3654 4.23329 41.2619 4.20004 41.1623 4.14917V4.14721ZM41.6974 3.81072C41.7775 3.78138 41.8478 3.73247 41.9103 3.66791C41.9708 3.60139 42.0333 3.51531 42.0938 3.40576L41.9259 3.34902C41.838 3.33337 41.7501 3.3275 41.6623 3.33337C41.5744 3.33924 41.4846 3.36272 41.3928 3.4038C41.2912 3.49575 41.2658 3.61704 41.3147 3.76768C41.4025 3.84202 41.5295 3.85572 41.6955 3.81268L41.6974 3.81072Z" fill="black"/>
<path d="M46.2315 4.81426L46.1358 4.76536C46.1163 4.73992 46.1026 4.71253 46.0928 4.68319C46.0831 4.65384 46.0811 4.6245 46.0889 4.59124L46.1475 4.4856C46.2568 4.38974 46.3564 4.28605 46.4502 4.17845C46.5439 4.0689 46.6142 3.95152 46.6669 3.8224C46.6728 3.7774 46.6806 3.73045 46.6904 3.6835C46.7001 3.63459 46.7021 3.58568 46.6943 3.53481L46.6279 3.40961C46.4365 3.33918 46.2412 3.29027 46.042 3.26092C45.8429 3.23158 45.6417 3.2218 45.4367 3.22767C45.341 3.2218 45.2473 3.22767 45.1574 3.25114C45.0676 3.27266 44.9778 3.29418 44.888 3.31375C44.8626 3.30788 44.8391 3.30005 44.8157 3.29027C44.7942 3.28049 44.7728 3.26875 44.7532 3.25701C44.7337 3.23158 44.72 3.20419 44.7103 3.17485C44.7005 3.1455 44.6985 3.11615 44.7064 3.0829L44.7552 2.98704C44.9153 2.91661 45.0871 2.87552 45.2688 2.8677C45.4504 2.85792 45.632 2.854 45.8116 2.854C45.9971 2.87944 46.1807 2.90878 46.3643 2.94008C46.5459 2.97138 46.7216 3.03594 46.8876 3.13181C46.9579 3.2081 47.0067 3.29223 47.036 3.38222C47.0653 3.47221 47.0751 3.57198 47.0692 3.67958C47.0497 3.89087 46.9794 4.08455 46.8583 4.25671C46.7372 4.43082 46.5986 4.58733 46.4443 4.72819C46.4131 4.75362 46.3799 4.77709 46.3486 4.7947C46.3174 4.81231 46.2783 4.82013 46.2334 4.81426H46.2315Z" fill="black"/>
<path d="M49.4455 5.28194L49.3342 5.22716C49.3127 5.19781 49.2951 5.16651 49.2853 5.13325C49.2736 5.1 49.2717 5.06478 49.2795 5.02761C49.4123 4.82024 49.5353 4.60504 49.6505 4.38006C49.7638 4.15508 49.8399 3.92814 49.877 3.69925C49.877 3.62882 49.7599 3.6073 49.5236 3.63274C49.4279 3.65426 49.3322 3.67773 49.2365 3.69925C49.1408 3.72077 49.0412 3.73251 48.9377 3.73251C48.8557 3.73251 48.7835 3.71686 48.719 3.68751C48.6546 3.65817 48.5941 3.60339 48.5394 3.52122C48.4574 3.4058 48.4125 3.27864 48.4007 3.13582C48.389 2.99301 48.3851 2.85215 48.3851 2.7113L48.4398 2.33372C48.1898 2.34937 47.9789 2.37285 47.8091 2.40611C47.6392 2.43936 47.4693 2.46675 47.2994 2.48827C47.2701 2.48045 47.2428 2.47262 47.2154 2.46088C47.19 2.44915 47.1666 2.43741 47.1432 2.42176C47.1217 2.39241 47.1022 2.36111 47.0885 2.32785C47.0729 2.29459 47.0709 2.25547 47.0768 2.21047L47.1314 2.09896C47.1607 2.07744 47.192 2.05983 47.2252 2.04809C47.2584 2.03636 47.2935 2.0344 47.3306 2.04222L47.3521 2.05396C47.5435 2.01679 47.7348 1.98353 47.9282 1.95419C48.1195 1.92484 48.3148 1.90332 48.514 1.88767C48.5296 1.81333 48.5472 1.73899 48.5687 1.66661C48.5902 1.59226 48.6234 1.52184 48.6683 1.45532C48.6976 1.42598 48.7327 1.40446 48.7737 1.3888C48.8147 1.37315 48.8557 1.3712 48.9006 1.37707L49.012 1.43184C49.0334 1.46119 49.051 1.49249 49.0627 1.52575C49.0744 1.55901 49.0764 1.59422 49.0686 1.63139L49.0022 1.84268L50.3183 1.75464L50.4297 1.80942C50.4511 1.83876 50.4687 1.87007 50.4804 1.90332C50.4921 1.93658 50.4941 1.9718 50.4863 2.00897L50.4316 2.12048C50.1817 2.17917 49.9258 2.21634 49.6681 2.23199C49.4103 2.24764 49.1526 2.26525 48.8928 2.28677C48.8714 2.39045 48.8499 2.4961 48.8323 2.60174C48.8147 2.70934 48.8089 2.81889 48.8167 2.92845C48.8245 3.00279 48.8323 3.06931 48.8382 3.128C48.846 3.18669 48.8753 3.23951 48.926 3.28255L49.0803 3.29429C49.2131 3.25712 49.3478 3.22973 49.4845 3.21212C49.6212 3.19451 49.7638 3.18864 49.9102 3.19451C49.9688 3.20234 50.0293 3.21995 50.0899 3.24734C50.1504 3.27472 50.2012 3.31776 50.2422 3.3745C50.2832 3.43123 50.3047 3.50166 50.3086 3.58578C50.3125 3.66795 50.3086 3.7462 50.2969 3.81663C50.252 4.06118 50.1738 4.29398 50.0586 4.51505C49.9434 4.73612 49.8243 4.95523 49.6993 5.16847C49.6622 5.20564 49.6232 5.23498 49.5822 5.2565C49.5412 5.27802 49.4962 5.28585 49.4435 5.27802L49.4455 5.28194Z" fill="black"/>
<path d="M52.7067 5.06693L52.5622 4.98867C52.3923 4.79695 52.2283 4.5974 52.0701 4.39003C51.912 4.18266 51.7655 3.97333 51.6327 3.75813H51.5878L51.2675 3.91268V3.9342C51.2383 3.96354 51.2031 3.98311 51.1621 3.98898C51.1211 3.9968 51.082 4.00463 51.0449 4.0105C51.0156 4.00267 50.9883 3.99289 50.9629 3.98311C50.9375 3.97137 50.9121 3.95963 50.8907 3.94398C50.8692 3.91464 50.8516 3.88333 50.8399 3.85008C50.8282 3.81682 50.8262 3.7816 50.834 3.74443L50.8887 3.63292C50.9707 3.58206 51.0527 3.53119 51.1367 3.48424C51.2207 3.43533 51.3125 3.39816 51.4081 3.36686V3.3336C51.371 3.25143 51.3378 3.16927 51.3086 3.08514C51.2793 3.00102 51.2578 2.90907 51.2422 2.81321C51.25 2.78387 51.2578 2.75648 51.2695 2.73105C51.2812 2.70561 51.2929 2.68214 51.3086 2.65866C51.3378 2.63714 51.3691 2.61953 51.4023 2.6078C51.4355 2.59606 51.4706 2.5941 51.5077 2.60193L51.619 2.6567C51.6561 2.74474 51.6893 2.83669 51.7186 2.92864C51.7479 3.02058 51.7811 3.11253 51.8182 3.20057H51.8514L52.57 3.00102L52.5817 2.94624L52.4939 2.43564L52.5486 2.32412C52.5778 2.3026 52.6091 2.285 52.6423 2.27326C52.6755 2.26152 52.7106 2.25957 52.7477 2.26739L52.859 2.32217C52.9098 2.4102 52.943 2.50607 52.9586 2.60975C52.9743 2.71344 52.9879 2.81712 53.0035 2.92081C53.1441 2.91299 53.2828 2.9169 53.4175 2.93255C53.5542 2.9482 53.6733 3.00298 53.7768 3.09884C53.8139 3.15753 53.8452 3.21818 53.8706 3.28274C53.896 3.34534 53.9057 3.41381 53.8979 3.48815C53.8608 3.61336 53.8003 3.72878 53.7163 3.83247C53.6323 3.93616 53.5366 4.03593 53.4351 4.13179C53.3843 4.16896 53.3336 4.20809 53.2847 4.24917C53.2359 4.29025 53.1793 4.30982 53.1129 4.30982C53.0836 4.30199 53.0563 4.29417 53.0309 4.28243C53.0055 4.27069 52.9801 4.25895 52.9586 4.2433C52.9372 4.21396 52.9196 4.18266 52.9098 4.1494C52.8981 4.11614 52.8961 4.08093 52.904 4.04375L52.9586 3.93224C53.025 3.9029 53.0875 3.85986 53.1461 3.80508C53.2047 3.7503 53.2633 3.69161 53.3238 3.63292C53.3531 3.59575 53.3804 3.55858 53.4058 3.52141C53.4312 3.48424 53.4488 3.44316 53.4566 3.40012C53.3902 3.36295 53.3121 3.34729 53.2242 3.34925C53.1363 3.35316 53.0504 3.35512 52.9704 3.35512L52.0291 3.59966C52.1619 3.79921 52.3006 3.99093 52.4431 4.17679C52.5876 4.36068 52.7438 4.5348 52.9137 4.69718C52.9352 4.72652 52.9528 4.75782 52.9645 4.79108C52.9762 4.82434 52.9782 4.85955 52.9704 4.89672L52.9157 5.00823C52.8864 5.02975 52.8551 5.04736 52.8219 5.0591C52.7887 5.07084 52.7497 5.07279 52.7048 5.06497L52.7067 5.06693Z" fill="black"/>
<path d="M57.0515 1.95033C57.0515 1.95033 55.5381 1.26756 55.0206 2.21052C54.9855 2.27312 54.9601 2.3416 54.9386 2.41007L53.7533 6.29929C53.6576 6.6123 53.8333 6.94293 54.1458 7.03683L56.1395 7.46136C56.4324 7.55135 56.7468 7.40071 56.8601 7.11509C57.1823 6.30124 57.7252 4.78899 57.9185 3.17891C57.9185 3.17891 57.9712 2.18313 57.0534 1.95033H57.0515ZM55.6357 4.0671C55.5967 4.3449 55.2393 5.75934 55.128 5.97258C55.0499 6.12517 54.8878 6.24842 54.7843 6.05474C54.7023 5.89824 54.7902 5.51088 54.8253 5.32307C54.8742 5.05896 55.1924 3.76973 55.4073 3.69148C55.6904 3.58975 55.665 3.87146 55.6357 4.0671Z" fill="black"/>
<path d="M40.6546 12.322L40.9787 16.5438C40.9787 16.5438 37.7411 15.3426 36.6495 14.2647C36.6495 14.2647 35.7532 13.3139 36.5889 11.9229C36.5889 11.9229 37.3388 10.622 40.0375 12.0168L40.6565 12.324L40.6546 12.322Z" fill="black"/>
<path d="M53.3939 30.2194C53.3939 30.2194 54.7921 29.4173 55.663 26.3204C55.7157 26.1346 55.7724 25.9487 55.8329 25.7648L56.0126 25.2151C56.0126 25.2151 57.5103 24.6849 58.3246 25.9565C58.3246 25.9565 59.1604 27.2732 58.8304 28.9224C58.8128 29.0084 58.7972 29.0965 58.7835 29.1845C58.7308 29.519 58.5473 30.4307 58.0981 30.2703C58.0981 30.2703 57.6431 30.1451 57.2682 29.7225C57.2311 29.6814 57.1881 29.6443 57.1413 29.613C56.987 29.5151 56.7956 29.4936 56.6238 29.5582C55.8329 29.8555 53.5697 30.6616 53.392 30.2175L53.3939 30.2194Z" fill="black"/>
<path d="M52.8201 8.02114C52.8201 8.02114 50.7541 10.9596 50.3362 12.0434C50.3362 12.0434 51.1427 12.108 51.8632 12.1021C51.8632 12.1021 53.2712 9.46884 53.691 8.81346C53.7438 8.73325 53.8062 8.66282 53.8824 8.61196C53.9742 8.54936 54.0796 8.5161 54.0796 8.69608C54.0796 8.7626 54.064 8.8252 54.0367 8.88389L52.4959 12.1393L53.2224 12.1666C53.2224 12.1666 53.8883 9.74468 54.3198 9.02084C54.3511 8.96801 54.3882 8.92302 54.4331 8.88585C54.5014 8.82911 54.5971 8.78803 54.6283 8.94649C54.6401 9.0091 54.6362 9.07366 54.6186 9.13235L53.7223 12.1647L54.5385 12.1119C54.5385 12.1119 54.6752 9.77012 54.849 9.11474C54.849 9.11474 54.9408 8.7489 55.0775 8.9954C55.1126 9.05801 55.1322 9.13039 55.138 9.20278C55.1614 9.4708 55.2083 10.3512 55.0443 12.0571L55.6789 11.9514C55.6789 11.9514 55.5344 9.91097 55.5305 9.51384V9.09322C55.5305 9.02866 55.5383 8.9641 55.5579 8.90345C55.5911 8.80564 55.6535 8.71173 55.7551 8.8878C55.7883 8.94649 55.8117 9.01105 55.8254 9.07953C55.8879 9.3808 56.1007 10.4998 56.1613 11.8438C56.1613 11.8438 56.8525 11.6795 57.2763 11.4252L56.7705 8.47502C56.708 8.16787 56.5089 7.92332 56.2511 7.83725L53.9371 7.25621C53.6676 7.16622 53.3805 7.26599 53.195 7.51445L52.8201 8.01723V8.02114Z" fill="black"/>
<path d="M50.9434 20.9265C50.9395 21.0223 50.8555 21.0947 50.7618 21.0947C50.2599 21.0752 49.8791 20.7934 49.6663 20.5939C49.4436 20.9421 49.0472 21.1632 49.0277 21.1749C49.0023 21.1906 48.9711 21.1965 48.9437 21.1965C48.8832 21.1965 48.8227 21.1632 48.7914 21.1065C48.7446 21.0223 48.7758 20.9147 48.8578 20.8697C48.9262 20.8326 49.0531 20.7484 49.1742 20.6369C49.2933 20.5274 49.4046 20.3924 49.4515 20.2476C49.2191 20.1537 49.0629 19.919 49.0843 19.6568C49.1117 19.334 49.3929 19.0914 49.7151 19.1188C50.0373 19.1442 50.2775 19.426 50.2521 19.7488C50.2326 19.9972 50.0588 20.1987 49.8342 20.2672C49.9767 20.4198 50.3204 20.7308 50.7754 20.7465C50.8711 20.7524 50.9453 20.8326 50.9414 20.9284L50.9434 20.9265Z" fill="white"/>
<path d="M57.188 8.86377L57.7367 11.274C57.7367 11.274 58.6975 10.9923 58.4788 10.2743C58.4788 10.2743 58.4651 9.75391 57.188 8.86182V8.86377Z" fill="black"/>
<path d="M52.7208 17.2959C53.2293 16.9666 53.7427 17.1109 54.049 17.4395C54.3568 17.7698 54.4503 18.2794 54.1241 18.6826C53.8279 19.0486 53.4062 19.1596 53.045 19.0654C52.6984 18.975 52.4062 18.694 52.3282 18.2578C52.4334 18.2495 52.5301 18.2343 52.6105 18.208C52.704 18.1775 52.7852 18.1334 52.8263 18.0732C52.8481 18.0413 52.8597 18.0036 52.8527 17.9629C52.8458 17.9234 52.8234 17.888 52.7911 17.8574C52.7277 17.7973 52.6147 17.7428 52.4493 17.6943C52.4311 17.6889 52.4262 17.6818 52.4249 17.6797C52.4234 17.6771 52.4209 17.6711 52.423 17.6572C52.4277 17.626 52.4512 17.5804 52.4904 17.5273C52.5281 17.4762 52.5754 17.4244 52.6193 17.3818C52.664 17.3385 52.702 17.3079 52.7198 17.2969L52.7208 17.2959Z" fill="white" stroke="white" stroke-width="0.107692"/>
<path d="M45.9133 16.9126C46.422 16.5833 46.9352 16.7277 47.2415 17.0562C47.5492 17.3862 47.6429 17.8951 47.3167 18.2993C47.0214 18.6653 46.6001 18.7763 46.2385 18.6821C45.8918 18.5918 45.599 18.3112 45.5208 17.8755C45.6253 17.8676 45.7218 17.8528 45.802 17.8267C45.8955 17.7962 45.9776 17.7512 46.0188 17.6909C46.0405 17.659 46.052 17.6212 46.0452 17.5806C46.0385 17.5409 46.015 17.5059 45.9827 17.4751C45.9193 17.4148 45.8072 17.3595 45.6418 17.311C45.6242 17.3058 45.6189 17.2996 45.6174 17.2974C45.616 17.295 45.6133 17.2882 45.6155 17.2739C45.6204 17.2426 45.6447 17.197 45.6838 17.144C45.7217 17.0929 45.769 17.0411 45.8127 16.9985C45.857 16.9555 45.8946 16.9249 45.9124 16.9136L45.9133 16.9126ZM47.1067 17.2827C47.037 17.2862 46.9716 17.3219 46.925 17.3696C46.8786 17.4173 46.8449 17.4829 46.844 17.5522C46.8432 17.6251 46.8796 17.6944 46.9573 17.7427V17.7437C46.9799 17.7573 47.0055 17.7603 47.0276 17.7593C47.05 17.7582 47.0731 17.7525 47.095 17.7446C47.1387 17.7289 47.1848 17.7009 47.2239 17.6675C47.2625 17.6344 47.2987 17.5926 47.3176 17.5454C47.3324 17.5086 47.3373 17.4667 47.3235 17.4263L47.303 17.3862L47.26 17.3384C47.2146 17.298 47.1612 17.2801 47.1067 17.2827Z" fill="white" stroke="white" stroke-width="0.107692"/>
<path d="M59.5607 6.66887C58.9359 6.05067 58.225 5.97828 57.5338 6.22282L57.2838 6.95841C58.5453 6.76669 60.0411 7.93072 59.0608 9.64839C59.3264 9.71491 59.6681 9.73056 59.8908 9.55057C60.5762 8.99888 60.1348 7.23621 59.5607 6.66692V6.66887Z" fill="black"/>
<path d="M53.7203 18.0808C53.4684 17.9243 53.8238 17.5585 53.9937 17.8011C54.0874 17.936 53.8042 18.1317 53.7203 18.0808Z" fill="black"/>
</svg>
