<svg width="60" height="32" viewBox="0 0 60 32" fill="none" xmlns="http://www.w3.org/2000/svg">
<g clip-path="url(#clip0_52_377)">
<path d="M33.5887 8.14648L32.1623 16.2023H30.5271L31.9651 8.14648H33.5887Z" fill="#231F20"/>
<path d="M40.0304 10.253C40.4133 10.611 40.6044 11.1206 40.6044 11.7819C40.6044 12.0283 40.585 12.2515 40.5464 12.4517L39.8734 16.2025H38.2614L38.8879 12.6703C38.9112 12.5318 38.9228 12.397 38.9228 12.2662C38.9228 11.8812 38.8199 11.5895 38.6157 11.3893C38.4107 11.1891 38.1191 11.089 37.74 11.089C37.3069 11.089 36.9379 11.2176 36.6324 11.4755C36.3268 11.7334 36.1242 12.1045 36.0236 12.5895L35.3855 16.2017H33.7502L34.8865 9.80723H36.5218L36.3825 10.5917C36.6455 10.3223 36.9588 10.109 37.3216 9.95119C37.6851 9.79337 38.0634 9.71484 38.4579 9.71484C39.1223 9.71484 39.6468 9.89345 40.0289 10.2514L40.0304 10.253Z" fill="#231F20"/>
<path d="M42.6512 16.0699C42.2683 15.912 41.9674 15.6926 41.7469 15.4116C41.5265 15.1306 41.4166 14.8096 41.4166 14.4478C41.4166 14.3939 41.4244 14.3053 41.4398 14.1822H43.017C42.9938 14.4516 43.075 14.6687 43.2607 14.8342C43.4463 14.9998 43.7093 15.0821 44.0489 15.0821C44.3583 15.0821 44.6151 15.0267 44.8201 14.9151C45.0251 14.8034 45.1272 14.6402 45.1272 14.4247C45.1272 14.2322 45.032 14.0782 44.8433 13.9628C44.6538 13.8473 44.3544 13.7164 43.9445 13.5701C43.5345 13.4239 43.1942 13.2814 42.9242 13.1429C42.6535 13.0043 42.4214 12.8118 42.228 12.5655C42.0347 12.3191 41.938 12.0073 41.938 11.6309C41.938 11.2544 42.0478 10.9195 42.2683 10.627C42.4887 10.3344 42.7958 10.1073 43.1903 9.94563C43.5848 9.78396 44.0365 9.70312 44.547 9.70312C45.0576 9.70312 45.4629 9.78396 45.8342 9.94563C46.2055 10.1073 46.4932 10.3321 46.6982 10.6208C46.9032 10.9095 47.0053 11.2382 47.0053 11.6078C47.0053 11.7001 47.0014 11.7694 46.9937 11.8156H45.4861C45.5093 11.5462 45.432 11.3306 45.254 11.1689C45.0761 11.0073 44.817 10.9264 44.4774 10.9264C44.199 10.9264 43.9708 10.9865 43.7929 11.105C43.615 11.2244 43.526 11.3837 43.526 11.5839C43.526 11.7841 43.6266 11.9473 43.8277 12.0743C44.0288 12.2013 44.3382 12.3414 44.7551 12.4954C45.1728 12.6571 45.507 12.8049 45.7584 12.9396C46.0098 13.0743 46.2279 13.2591 46.4135 13.4939C46.5992 13.7287 46.692 14.0228 46.692 14.3769C46.692 14.7696 46.5721 15.1122 46.3323 15.4039C46.0925 15.6965 45.7638 15.9197 45.3469 16.0737C44.9292 16.2277 44.4581 16.3047 43.9321 16.3047C43.4603 16.3047 43.0333 16.2254 42.6504 16.0683L42.6512 16.0699Z" fill="#231F20"/>
<path d="M49.9863 14.2292C49.9786 14.2754 49.9747 14.3369 49.9747 14.4139C49.9747 14.5679 50.0188 14.6772 50.1078 14.7427C50.1967 14.8081 50.3452 14.8404 50.5541 14.8404H51.3191L51.0754 16.2023H50.0436C48.8841 16.2023 48.3039 15.7211 48.3039 14.7596C48.3039 14.5748 48.3194 14.3939 48.3503 14.2168L48.8957 11.1351H48.1299L48.3619 9.80786H49.1385L49.417 8.22656H51.0522L50.7738 9.80786H52.2001L51.9681 11.1351H50.5301L49.9848 14.2284L49.9863 14.2292Z" fill="#231F20"/>
<path d="M53.088 11.2623C53.4323 10.7619 53.8515 10.3777 54.3466 10.1083C54.8416 9.83883 55.363 9.7041 55.9122 9.7041C56.3917 9.7041 56.7955 9.80033 57.1243 9.9928C57.453 10.1853 57.6943 10.4278 57.849 10.7195L58.0115 9.80803H59.6467L58.5104 16.2025H56.8752L57.0492 15.2679C56.794 15.5681 56.4637 15.816 56.0576 16.0123C55.6515 16.2086 55.209 16.3064 54.7294 16.3064C54.2499 16.3064 53.8407 16.201 53.4771 15.9892C53.1136 15.7775 52.8312 15.4773 52.6309 15.0893C52.4298 14.7005 52.3292 14.2486 52.3292 13.7328C52.3292 13.4941 52.3524 13.2439 52.3988 12.9829C52.5149 12.3363 52.7446 11.7635 53.0888 11.2631L53.088 11.2623ZM57.4886 12.5664C57.4886 12.1122 57.3555 11.7589 57.0887 11.5048C56.8218 11.2508 56.4877 11.1237 56.0854 11.1237C55.7837 11.1237 55.4921 11.1969 55.2098 11.3431C54.9275 11.4894 54.6823 11.7027 54.4734 11.9837C54.2646 12.2647 54.1253 12.5972 54.0557 12.9822C54.0325 13.1284 54.0209 13.267 54.0209 13.3979C54.0209 13.8598 54.1524 14.2232 54.4154 14.4888C54.6784 14.7544 55.011 14.8868 55.4125 14.8868C55.7141 14.8868 56.0081 14.8121 56.2935 14.662C56.5797 14.5119 56.8249 14.2948 57.0299 14.0099C57.2349 13.7251 57.3718 13.391 57.4414 13.006C57.4723 12.8059 57.4878 12.6596 57.4878 12.5672L57.4886 12.5664Z" fill="#231F20"/>
<path d="M37.9862 23.616C37.5677 24.0433 37.0564 24.352 36.4523 24.5414C36.9613 24.6469 37.372 24.9002 37.6845 25.3013C37.997 25.7024 38.1532 26.1774 38.1532 26.7255C38.1532 26.8733 38.137 27.0365 38.1053 27.2159C37.9568 28.1128 37.5035 28.8357 36.7462 29.3838C35.9882 29.9327 35.0422 30.2068 33.9082 30.2068H29.1224L31.0941 19.1616H35.6726C36.6797 19.1616 37.4555 19.3726 38.0016 19.7944C38.5477 20.2163 38.82 20.7806 38.82 21.4874C38.82 21.656 38.8038 21.83 38.7721 22.0093C38.6661 22.6529 38.4039 23.188 37.9854 23.6153L37.9862 23.616ZM35.9271 26.6308C35.9271 26.2513 35.7917 25.9533 35.5217 25.737C35.2518 25.5207 34.8782 25.4129 34.4009 25.4129H32.2072L31.6828 28.4508H33.9244C34.4651 28.4508 34.9099 28.3191 35.2595 28.055C35.6091 27.7918 35.8211 27.4222 35.8954 26.9472C35.9162 26.7994 35.9271 26.6939 35.9271 26.6308ZM36.4678 22.0571C36.4678 21.6883 36.3455 21.4035 36.1019 21.2025C35.8582 21.0024 35.5032 20.9015 35.0367 20.9015H33.0179L32.5089 23.75H34.544C35.063 23.75 35.4923 23.626 35.8319 23.3781C36.1707 23.1303 36.378 22.7846 36.4523 22.3419C36.4623 22.2788 36.4685 22.1833 36.4685 22.0571H36.4678Z" fill="#A99FA0"/>
<path d="M43.1453 21.4407L41.5875 30.2071H39.3458L40.9037 21.4407H43.1453ZM41.3802 20.0957C41.1682 19.8956 41.0623 19.6423 41.0623 19.3359C41.0623 18.914 41.2239 18.5529 41.5473 18.2519C41.8706 17.9509 42.2496 17.8008 42.6843 17.8008C43.0231 17.8008 43.2993 17.9009 43.5112 18.1018C43.7232 18.302 43.8291 18.5552 43.8291 18.8616C43.8291 19.2835 43.6698 19.6446 43.3519 19.9456C43.034 20.2466 42.6573 20.3967 42.2233 20.3967C41.8737 20.3967 41.5929 20.2967 41.3809 20.0957H41.3802Z" fill="#A99FA0"/>
<path d="M46.85 27.5012C46.8392 27.5643 46.8338 27.649 46.8338 27.7545C46.8338 27.9654 46.8949 28.1163 47.0164 28.2056C47.1378 28.2957 47.342 28.3404 47.6282 28.3404H48.6779L48.3437 30.2073H46.9289C45.3394 30.2073 44.5442 29.5483 44.5442 28.2295C44.5442 27.9762 44.5651 27.7283 44.6076 27.4858L45.3548 23.2608H44.3052L44.6231 21.4409H45.6882L46.0696 19.2729H48.3112L47.9299 21.4409H49.8853L49.5674 23.2608H47.5957L46.8485 27.5012H46.85Z" fill="#A99FA0"/>
<path d="M58.0428 22.2232C58.6995 22.8407 59.0282 23.6713 59.0282 24.7153C59.0282 25.0532 59.0019 25.3535 58.9485 25.6175C58.8851 25.9339 58.8163 26.2088 58.742 26.4405H52.3033C52.2924 26.5144 52.287 26.6199 52.287 26.7569C52.287 27.3058 52.4487 27.7354 52.772 28.0464C53.0953 28.3575 53.5215 28.513 54.0522 28.513C54.497 28.513 54.8814 28.4152 55.2047 28.2204C55.5281 28.0257 55.7903 27.7693 55.9914 27.4529H58.3924C58.0002 28.2966 57.393 28.9903 56.5723 29.5338C55.7508 30.0773 54.8211 30.3483 53.7822 30.3483C52.6583 30.3483 51.7579 30.0319 51.0796 29.3991C50.4012 28.7663 50.0624 27.9063 50.0624 26.8201C50.0624 26.5036 50.0941 26.1711 50.1575 25.8231C50.3161 24.9162 50.6425 24.1194 51.1352 23.4334C51.628 22.7475 52.2398 22.2201 52.9716 21.8514C53.7033 21.4826 54.5031 21.2979 55.3726 21.2979C56.4957 21.2979 57.386 21.6066 58.0435 22.2232H58.0428ZM56.7703 24.7314C56.7703 24.2249 56.6056 23.8292 56.2776 23.5443C55.9488 23.2595 55.5195 23.117 54.9897 23.117C54.4281 23.117 53.9246 23.2941 53.479 23.6475C53.0342 24.0008 52.721 24.4835 52.5407 25.0956H56.7378C56.7587 24.927 56.7695 24.8053 56.7695 24.7314H56.7703Z" fill="#A99FA0"/>
<path d="M23.2802 18.2352C23.8765 17.8587 24.3461 17.5931 24.7831 17.2821C27.0232 15.6908 28.1843 12.4243 27.4835 9.72128C26.9041 7.48561 24.7553 5.68259 21.9165 5.57558C16.7432 5.37927 11.5598 5.42238 6.38114 5.36541C5.4359 5.35463 4.97953 5.83811 4.8403 6.75347C4.63609 8.10226 4.36613 9.44182 4.12711 10.786C3.00397 17.1035 1.8754 23.4225 0.759993 29.743C0.432796 31.5961 0.743749 31.9748 2.58936 31.9764C7.35887 31.9802 12.1315 32.0541 16.8971 31.9148C18.554 31.8663 20.2781 31.4868 21.8244 30.8847C24.6214 29.7954 26.095 27.5243 26.4191 24.588C26.7115 21.9436 25.9457 19.7164 23.2809 18.2352H23.2802ZM17.4803 10.2201L14.0606 27.4827C13.9779 27.9516 13.5687 28.2934 13.0906 28.2934H10.2015C9.58969 28.2934 9.12558 27.7437 9.23155 27.144L12.6513 9.88141C12.734 9.41256 13.1432 9.07075 13.6213 9.07075H16.5103C17.1222 9.07075 17.5863 9.62043 17.4803 10.2201Z" fill="#231F20"/>
<path d="M14.6693 3.49229C14.3259 3.18743 14.1549 2.80173 14.1549 2.33673C14.1549 1.69467 14.4164 1.14422 14.94 0.686922C15.4629 0.229625 16.0763 0.000976562 16.7795 0.000976562C17.3457 0.000976562 17.7959 0.14956 18.1308 0.445956C18.4649 0.743122 18.632 1.13267 18.632 1.61383C18.632 2.2559 18.3752 2.80558 17.8601 3.26287C17.3449 3.72094 16.7361 3.94959 16.033 3.94959C15.4668 3.94959 15.012 3.79639 14.6693 3.49229Z" fill="#A99FA0"/>
</g>
<defs>
<clipPath id="clip0_52_377">
<rect width="59" height="32" fill="white" transform="translate(0.64624)"/>
</clipPath>
</defs>
</svg>
