<svg width="76" height="39" viewBox="0 0 76 39" fill="none" xmlns="http://www.w3.org/2000/svg">
<g clip-path="url(#clip0_52_486)">
<path d="M6.14049 33.7903C6.75715 33.85 7.25634 33.9959 7.62829 34.228C8.0035 34.4602 8.27431 34.7586 8.44071 35.1201C8.60711 35.4815 8.68867 35.8761 8.68867 36.3039C8.68867 36.7714 8.5549 37.1959 8.28736 37.5772C8.01982 37.9586 7.65766 38.267 7.19435 38.4958C6.73105 38.7246 6.20901 38.8407 5.62172 38.8407L0.642822 38.834V38.8108C0.835322 38.8108 1.00172 38.7412 1.13549 38.6052C1.26926 38.4659 1.33778 38.3035 1.33778 38.1111V29.9537C1.33778 29.758 1.26926 29.5922 1.13549 29.4529C1.00172 29.317 0.835322 29.2473 0.642822 29.2473V29.2241H5.16168C5.68371 29.2241 6.13397 29.3302 6.51244 29.5425C6.89092 29.7547 7.1813 30.0399 7.38685 30.398C7.5924 30.7561 7.69355 31.1507 7.69355 31.5818C7.69355 32.0892 7.55977 32.5402 7.2955 32.9348C7.03122 33.3327 6.64295 33.6146 6.13397 33.7903H6.14049ZM2.41774 29.9537V33.7638H4.4341C4.92024 33.7638 5.32482 33.6577 5.64782 33.4421C5.97083 33.2266 6.21227 32.9547 6.37215 32.6264C6.53202 32.2948 6.61359 31.9466 6.61359 31.5752C6.61359 31.2038 6.53202 30.8523 6.36889 30.524C6.20575 30.1957 5.96431 29.9238 5.6413 29.7083C5.31829 29.4927 4.91698 29.3866 4.4341 29.3866H2.42426C2.42426 29.4662 2.42426 29.5458 2.41774 29.6287V29.9537ZM5.11927 38.6782C5.5891 38.6782 5.99367 38.5919 6.32647 38.4195C6.65927 38.2471 6.93007 38.0183 7.13236 37.7397C7.33465 37.4579 7.47168 37.1495 7.53694 36.8112C7.60545 36.473 7.60545 36.1381 7.53694 35.7998C7.46842 35.4649 7.33465 35.1532 7.13236 34.8713C6.93007 34.5895 6.65927 34.3607 6.32647 34.1882C5.99367 34.0158 5.5891 33.9296 5.11927 33.9296H2.41774C2.41774 34.8614 2.41774 35.6274 2.41774 36.2309C2.41774 36.8344 2.41774 37.3816 2.41774 37.8724V38.6748H5.11274L5.11927 38.6782Z" fill="black"/>
<path d="M11.759 29.2547V29.2314H14.2224V29.2547C14.0331 29.2547 13.87 29.3243 13.7362 29.4603C13.6025 29.5962 13.5339 29.762 13.5339 29.9543V38.1118C13.5339 38.3075 13.6025 38.4766 13.7362 38.6125C13.87 38.7518 14.0331 38.8181 14.2224 38.8181V38.8413H11.759V38.8181C11.9515 38.8181 12.1147 38.7485 12.2484 38.6125C12.3822 38.4766 12.4475 38.3075 12.4475 38.1118V29.9543C12.4475 29.762 12.3822 29.5962 12.2484 29.4603C12.1147 29.3243 11.9515 29.2547 11.759 29.2547Z" fill="black"/>
<path d="M22.7384 38.6718C23.1756 38.6586 23.5541 38.5425 23.8804 38.317C24.2034 38.0915 24.4775 37.8296 24.6961 37.5311C24.9147 37.2327 25.13 36.8513 25.3486 36.3871H25.3845L24.9669 38.8443H23.1593L23.1528 38.8376L17.293 38.8443V38.8211C17.4822 38.8211 17.6453 38.7514 17.7791 38.6155C17.9129 38.4795 17.9814 38.3104 17.9814 38.1147V29.9573C17.9814 29.7649 17.9129 29.5991 17.7791 29.4632C17.6421 29.3272 17.4822 29.2576 17.293 29.2576V29.2344H19.7563V29.2576C19.5638 29.2576 19.3974 29.3272 19.2636 29.4632C19.1299 29.5991 19.0614 29.7649 19.0614 29.9573V38.6752H22.7417L22.7384 38.6718Z" fill="black"/>
<path d="M37.6817 38.1946C37.7731 38.3936 37.9166 38.5494 38.1059 38.6555C38.2951 38.765 38.4419 38.818 38.5463 38.818V38.8412H35.9492V38.818C36.0993 38.818 36.2429 38.7617 36.3766 38.6489C36.5104 38.5362 36.5463 38.3737 36.4745 38.1648C36.1613 37.3722 35.7371 36.2912 35.1988 34.925H30.8529L29.5608 38.1747C29.5054 38.3372 29.5249 38.4831 29.613 38.6157C29.7011 38.7484 29.8284 38.8147 29.9882 38.8147V38.8379H28.4482V38.8147C28.6538 38.8147 28.8398 38.755 29.0094 38.639C29.1791 38.5196 29.3063 38.3637 29.3879 38.1681L32.9443 29.228H34.1156C34.6768 30.634 35.1564 31.8378 35.5544 32.8458C35.9525 33.8539 36.3473 34.8421 36.7355 35.8203C37.1238 36.7986 37.437 37.5878 37.6785 38.1946H37.6817ZM30.9246 34.7625H35.1368C34.7942 33.897 34.4614 33.0647 34.1449 32.2556C33.8285 31.4465 33.4565 30.5113 33.0324 29.4436L30.9246 34.7625Z" fill="black"/>
<path d="M49.7243 32.0629C49.7243 32.5869 49.5775 33.0743 49.2839 33.5319C48.9902 33.9895 48.5922 34.3576 48.0897 34.6395C47.5872 34.9213 47.013 35.0673 46.3703 35.0838H46.0277C46.2561 35.1701 46.4583 35.2795 46.6345 35.4121C46.9021 35.6442 47.1011 35.8863 47.2381 36.135C47.3817 36.3705 47.5155 36.6092 47.6427 36.848C47.8254 37.1962 48.0277 37.5344 48.2561 37.8594C48.3475 37.992 48.4649 38.1213 48.6052 38.244C48.7455 38.3667 48.9119 38.4695 49.0979 38.5524C49.2839 38.6353 49.4927 38.6751 49.7211 38.6751C49.3687 38.7845 49.0587 38.8442 48.7912 38.8475C48.5236 38.8509 48.2398 38.7945 47.9461 38.6685C47.6492 38.5425 47.3752 38.307 47.1207 37.9622C47.1207 37.9588 47.1207 37.9555 47.1141 37.9489V37.9423C46.8825 37.6073 46.6737 37.2658 46.4877 36.911C46.3637 36.6755 46.23 36.4434 46.0864 36.2113C45.9461 35.9692 45.7569 35.7404 45.5187 35.5282C45.2609 35.3325 44.9738 35.2032 44.6541 35.1435C44.3376 35.0838 43.9983 35.054 43.6394 35.0573V35.0109C44.0341 34.9015 44.4224 34.8484 44.8107 34.8517H44.8237C44.8792 34.855 44.9314 34.8583 44.9869 34.8583C45.1402 34.865 45.3458 34.8716 45.6003 34.8716C45.8547 34.8716 46.1092 34.8716 46.3637 34.8617C46.9249 34.8318 47.3686 34.6859 47.6982 34.4306C48.0277 34.1752 48.2659 33.8403 48.4094 33.4225C48.553 33.0047 48.6248 32.5504 48.6248 32.0497C48.6248 31.5489 48.5041 31.0913 48.2626 30.6868C48.0212 30.2822 47.6982 29.9572 47.2936 29.7218C46.889 29.4864 46.4388 29.367 45.9428 29.367H43.3751V38.0882C43.3751 38.2805 43.4436 38.4463 43.5774 38.5823C43.7111 38.7215 43.8775 38.7879 44.07 38.7879V38.8111H41.6067V38.7879C41.7959 38.7879 41.9591 38.7182 42.0928 38.5823C42.2266 38.4463 42.2951 38.2805 42.2951 38.0882V29.9241C42.2951 29.7317 42.2266 29.5659 42.0928 29.43C41.9591 29.294 41.7959 29.2244 41.6067 29.2244V29.2012H46.7292C47.3654 29.2012 47.907 29.3305 48.3507 29.5858C48.7944 29.8412 49.1338 30.186 49.3687 30.6171C49.6036 31.0482 49.7178 31.5257 49.7178 32.053L49.7243 32.0629Z" fill="black"/>
<path d="M60.0542 34.9316V34.9084H62.5176V34.9316C62.3283 34.9316 62.1652 35.0012 62.0314 35.1372C61.8976 35.2732 61.8291 35.439 61.8291 35.6313V38.9175L60.7459 38.1515V37.2396C60.6056 37.5314 60.4131 37.8099 60.1619 38.0752C59.9139 38.3438 59.5974 38.5627 59.219 38.7384C58.8372 38.9142 58.3707 39.0004 57.8193 39.0004C57.1504 39.0004 56.5109 38.8777 55.9008 38.6323C55.2907 38.3869 54.7458 38.0354 54.2662 37.5745C53.7865 37.1069 53.4211 36.5797 53.1699 35.9861C52.9187 35.3925 52.7947 34.7724 52.7947 34.1225C52.7947 33.4726 52.9187 32.8491 53.1699 32.2589C53.4211 31.6686 53.7865 31.1414 54.2662 30.6771C54.7458 30.2096 55.2841 29.8481 55.8845 29.5928C56.4848 29.3374 57.1308 29.2214 57.816 29.2446C58.7002 29.2844 59.4017 29.2877 59.9237 29.2579C60.4425 29.228 60.9221 29.165 61.3626 29.0688L61.4963 31.148H61.4604C61.3201 30.9126 61.1701 30.7103 61.0069 30.5379C60.8438 30.3654 60.6252 30.1963 60.3446 30.0239C60.064 29.8547 59.7182 29.7088 59.3038 29.5895C58.8894 29.4701 58.3935 29.4104 57.816 29.4104C57.1471 29.4104 56.5664 29.5331 56.0704 29.7818C55.5745 30.0305 55.1634 30.3687 54.8404 30.7998C54.5174 31.2309 54.2727 31.7349 54.1128 32.3053C53.9529 32.8757 53.8714 33.4858 53.8714 34.1324C53.8714 34.7791 53.9529 35.3925 54.1128 35.9596C54.2727 36.5266 54.5141 37.024 54.8404 37.4551C55.1667 37.8862 55.5745 38.2211 56.0704 38.4665C56.5664 38.7086 57.1504 38.8313 57.816 38.8313C58.4816 38.8313 59.0819 38.6622 59.5779 38.3239C60.0738 37.9857 60.4621 37.5148 60.7426 36.9113V35.628C60.7426 35.4357 60.6741 35.2698 60.5404 35.1339C60.4099 34.9946 60.2467 34.9283 60.0542 34.9283V34.9316Z" fill="black"/>
<path d="M74.1682 30.5875C74.6478 31.0551 75.0132 31.5823 75.2677 32.1759C75.5222 32.7662 75.6462 33.3896 75.6462 34.0395C75.6462 34.6895 75.519 35.3129 75.2677 35.9031C75.0132 36.4934 74.6478 37.0206 74.1682 37.4849C73.6886 37.9491 73.147 38.3006 72.5368 38.546C71.9267 38.7881 71.2872 38.9108 70.6151 38.9108C69.943 38.9108 69.3035 38.7881 68.6934 38.546C68.0832 38.304 67.5416 37.9491 67.062 37.4849C66.5824 37.0206 66.217 36.4934 65.9625 35.9031C65.708 35.3129 65.584 34.6895 65.584 34.0395C65.584 33.3896 65.7112 32.7662 65.9625 32.1759C66.217 31.5856 66.5824 31.0551 67.062 30.5875C67.5416 30.1266 68.0832 29.7751 68.6934 29.5297C69.3002 29.2843 69.943 29.1616 70.6151 29.1616C71.2872 29.1616 71.9267 29.2843 72.5368 29.5297C73.1437 29.7751 73.6886 30.1266 74.1682 30.5875ZM70.6184 38.7417C71.2905 38.7417 71.8745 38.619 72.3672 38.3769C72.8631 38.1348 73.2709 37.7966 73.5972 37.3688C73.9202 36.9411 74.1649 36.4437 74.3248 35.8733C74.4847 35.3029 74.5662 34.6961 74.5662 34.0462C74.5662 33.3962 74.4847 32.7894 74.3248 32.219C74.1649 31.6487 73.9235 31.1446 73.5972 30.7102C73.2709 30.2758 72.8631 29.9376 72.3672 29.6922C71.8712 29.4468 71.2905 29.3241 70.6184 29.3241C69.9462 29.3241 69.3622 29.4468 68.8695 29.6922C68.3769 29.9376 67.9658 30.2758 67.6395 30.7102C67.3132 31.1446 67.0718 31.6453 66.9119 32.219C66.752 32.7927 66.6737 33.3995 66.6737 34.0462C66.6737 34.6928 66.752 35.3029 66.9119 35.8733C67.0718 36.4437 67.3132 36.9411 67.6395 37.3688C67.9658 37.7966 68.3769 38.1315 68.8695 38.3769C69.3655 38.619 69.9462 38.7417 70.6184 38.7417Z" fill="black"/>
<path d="M52.1416 26.0114C51.1922 26.0114 50.3113 26.0048 49.4271 26.0148C49.0518 26.0214 49.0257 25.7893 49.0257 25.5041C49.029 24.7315 49.0257 23.9588 49.0257 23.1862C48.9768 23.1563 48.9279 23.1232 48.8789 23.0933C48.6766 23.3056 48.4189 23.4912 48.2884 23.74C48.06 24.1744 47.861 24.6386 47.7435 25.1161C47.5249 26.0015 47.5543 26.0114 46.6831 26.0114C46.1121 26.0114 45.5412 25.9882 44.9735 26.0181C44.4906 26.0446 44.409 25.8357 44.4971 25.4046C44.7418 24.2307 45.3291 23.3056 46.3503 22.6855C46.5069 22.5893 46.6603 22.4799 46.8136 22.3771L46.7614 22.2179C46.5918 22.2544 46.4188 22.2743 46.2557 22.334C44.7418 22.8844 43.6684 23.9024 43.1561 25.4643C43.006 25.9186 42.7907 26.0446 42.3535 26.0214C41.6879 25.9882 41.0158 25.9982 40.3502 26.0214C39.9946 26.0313 39.8314 25.912 39.7401 25.5472C38.7612 21.6608 40.4709 17.8573 43.9979 16.0467C44.4645 15.808 44.8527 15.8212 45.3324 16.0136C46.657 16.5475 48.0013 16.6502 49.3292 15.9804C49.4499 15.9174 49.5706 15.8444 49.6783 15.7649C49.7207 15.735 49.7338 15.6654 49.8382 15.4697C49.5576 15.4697 49.352 15.4399 49.1595 15.4731C47.2476 15.8345 45.6064 15.1414 44.0632 14.1068C43.9653 14.0405 43.9196 13.699 43.9946 13.5829C45.2769 11.6331 47.0583 10.4592 49.3585 10.1906C50.5462 10.0513 51.7599 10.111 52.9377 9.92863C53.8121 9.79267 54.7485 9.58044 55.4827 9.1162C57.0194 8.14128 57.1858 6.52968 56.9117 4.86834C56.7323 3.784 56.3179 2.7925 55.3391 2.1724C54.3244 1.52909 53.1433 1.74131 52.3178 2.69965C51.5935 3.53861 51.5087 4.98772 52.1612 5.81342C52.5886 6.35393 53.1759 6.56616 53.8448 6.44678C54.2983 6.36388 54.5495 6.04222 54.618 5.57798C54.6376 5.43539 54.6604 5.28948 54.6898 5.07725C55.1923 5.74378 55.0128 6.68222 54.3635 7.18626C53.1857 8.09817 51.4565 7.65714 50.6245 6.23787C49.2248 3.84369 50.6767 0.706708 53.4565 0.116452C55.4957 -0.317949 57.3718 0.550854 58.4648 2.40784C59.8971 4.84182 59.8677 7.36532 58.9542 9.95184C58.0341 12.5616 56.5985 14.8961 55.2053 17.2538C53.8872 19.4855 52.6669 21.7603 52.295 24.3899C52.2232 24.9006 52.1938 25.4146 52.1384 26.0148L52.1416 26.0114Z" fill="black"/>
<path d="M24.1507 26.0114C25.1001 26.0114 25.981 26.0048 26.8652 26.0148C27.2404 26.0214 27.2666 25.7893 27.2666 25.5041C27.2633 24.7315 27.2666 23.9588 27.2666 23.1862C27.3155 23.1563 27.3644 23.1232 27.4134 23.0933C27.6157 23.3056 27.8734 23.4912 28.0039 23.74C28.2323 24.1744 28.4313 24.6386 28.5488 25.1161C28.7674 26.0015 28.738 26.0114 29.6092 26.0114C30.1802 26.0114 30.7511 25.9882 31.3188 26.0181C31.8017 26.0446 31.8833 25.8357 31.7952 25.4046C31.5505 24.2307 30.9632 23.3056 29.942 22.6855C29.7854 22.5893 29.632 22.4799 29.4787 22.3771L29.5309 22.2179C29.7005 22.2544 29.8735 22.2743 30.0366 22.334C31.5505 22.8844 32.6239 23.9024 33.1362 25.4643C33.2863 25.9186 33.5016 26.0446 33.9388 26.0214C34.6044 25.9882 35.2765 25.9982 35.9421 26.0214C36.2977 26.0313 36.4609 25.912 36.5522 25.5472C37.531 21.6608 35.8214 17.8573 32.2944 16.0467C31.8278 15.808 31.4396 15.8212 30.9599 16.0136C29.6353 16.5475 28.291 16.6502 26.9631 15.9804C26.8424 15.9174 26.7217 15.8444 26.614 15.7649C26.5716 15.735 26.5585 15.6654 26.4541 15.4697C26.7347 15.4697 26.9403 15.4399 27.1328 15.4731C29.0447 15.8345 30.6859 15.1414 32.2291 14.1068C32.327 14.0405 32.3727 13.699 32.2977 13.5829C31.0154 11.6331 29.234 10.4592 26.9338 10.1906C25.7461 10.0513 24.5324 10.111 23.3546 9.92863C22.4801 9.79267 21.5438 9.58044 20.8096 9.1162C19.2729 8.14128 19.1065 6.52968 19.3806 4.86834C19.56 3.784 19.9744 2.7925 20.9532 2.1724C21.9679 1.52909 23.149 1.74131 23.9745 2.69965C24.6988 3.53861 24.7836 4.98772 24.1311 5.81342C23.7037 6.35393 23.1164 6.56616 22.4475 6.44678C21.994 6.36388 21.7428 6.04222 21.6743 5.57798C21.6547 5.43539 21.6318 5.28948 21.6025 5.07725C21.1 5.74378 21.2795 6.68222 21.9288 7.18626C23.1066 8.09817 24.8358 7.65714 25.6678 6.23787C27.0675 3.84369 25.6156 0.706708 22.8358 0.116452C20.7966 -0.317949 18.9205 0.550854 17.8275 2.40784C16.3952 4.84182 16.4246 7.36532 17.3381 9.95184C18.2582 12.5616 19.6938 14.8961 21.087 17.2538C22.4051 19.4855 23.6254 21.7603 23.9973 24.3899C24.0691 24.9006 24.0985 25.4146 24.1539 26.0148L24.1507 26.0114Z" fill="black"/>
<path d="M32.7417 7.08366C32.696 5.21341 32.6797 3.35643 34.1707 1.94379C34.9668 1.19105 35.9358 0.832917 36.9832 0.703592C38.1578 0.557686 39.3291 0.597478 40.4906 0.885974C42.3928 1.36017 43.4401 2.65343 43.8251 4.52699C43.9947 5.35269 43.9947 6.21486 44.0045 7.07703C43.1236 5.94957 42.4384 4.67621 41.0714 3.95995C40.9865 4.47725 40.9376 4.91828 40.843 5.35269C40.6015 6.4503 39.8739 7.01734 38.8201 7.19641C37.6422 7.39869 36.6145 7.01071 36.1218 6.06895C35.8902 5.6246 35.8347 5.08077 35.7009 4.58336C35.6487 4.39103 35.5933 4.1987 35.5378 4.00637C35.3583 4.09922 35.1593 4.16886 34.9994 4.29155C34.1348 4.96139 33.5639 5.88325 32.9537 6.77195C32.8819 6.87475 32.8134 6.97755 32.7417 7.07703V7.08366Z" fill="#BDBDBD"/>
</g>
<defs>
<clipPath id="clip0_52_486">
<rect width="75" height="39" fill="white" transform="translate(0.64624)"/>
</clipPath>
</defs>
</svg>
