<svg width="43" height="55" viewBox="0 0 43 55" fill="none" xmlns="http://www.w3.org/2000/svg">
<g clip-path="url(#clip0_52_500)">
<path d="M10.3707 53.3909C10.4747 53.3748 10.6125 53.3599 10.7867 53.3599C11.0013 53.3599 11.1586 53.407 11.2574 53.4927C11.3497 53.5684 11.4043 53.6851 11.4043 53.8279C11.4043 53.9707 11.3588 54.0874 11.2743 54.1705C11.1599 54.2872 10.9727 54.3468 10.7607 54.3468C10.6957 54.3468 10.6359 54.3443 10.5865 54.3319V54.9737H10.3694V53.3897L10.3707 53.3909ZM10.5878 54.1643C10.6346 54.1767 10.6944 54.1805 10.7672 54.1805C11.0286 54.1805 11.1885 54.0588 11.1885 53.8378C11.1885 53.6168 11.0312 53.5237 10.7919 53.5237C10.697 53.5237 10.6255 53.5312 10.5878 53.5399V54.1631V54.1643Z" fill="black"/>
<path d="M12.2449 53.3924C12.3541 53.3713 12.5114 53.3589 12.6609 53.3589C12.8924 53.3589 13.0419 53.3999 13.1472 53.4892C13.2317 53.5612 13.2798 53.6705 13.2798 53.7934C13.2798 54.0057 13.1407 54.146 12.9639 54.2031V54.2105C13.0939 54.254 13.1706 54.3682 13.2109 54.5345C13.2655 54.758 13.3058 54.9132 13.3409 54.9753H13.116C13.0887 54.9306 13.051 54.7915 13.0042 54.5916C12.9548 54.3707 12.8651 54.2875 12.6674 54.28H12.4633V54.9753H12.2462V53.3924H12.2449ZM12.462 54.1224H12.6843C12.9158 54.1224 13.0627 54.0007 13.0627 53.8182C13.0627 53.6109 12.9054 53.5203 12.6765 53.5178C12.5725 53.5178 12.4971 53.5277 12.462 53.5364V54.1211V54.1224Z" fill="black"/>
<path d="M15.0035 54.2227H14.3508V54.8012H15.0789V54.975H14.135V53.3711H15.0425V53.5449H14.3521V54.0514H15.0048V54.2227H15.0035Z" fill="black"/>
<path d="M17.3244 54.2699C17.3114 54.0464 17.2971 53.777 17.2997 53.5772H17.2919C17.2347 53.7646 17.1645 53.9645 17.08 54.1867L16.7836 54.9651H16.6184L16.3467 54.2016C16.2674 53.9757 16.1998 53.7684 16.153 53.5784H16.1478C16.1426 53.7783 16.1309 54.0477 16.1153 54.2873L16.0698 54.975H15.863L15.9801 53.3711H16.257L16.543 54.147C16.6132 54.3444 16.6705 54.5207 16.7121 54.687H16.7199C16.7628 54.5256 16.8226 54.3494 16.8967 54.147L17.1957 53.3711H17.4727L17.5767 54.975H17.3648L17.3218 54.2711L17.3244 54.2699Z" fill="black"/>
<path d="M18.6781 53.3701V54.9741H18.4609V53.3701H18.6781Z" fill="black"/>
<path d="M19.8223 53.3701V54.3198C19.8223 54.6786 19.9887 54.8313 20.2136 54.8313C20.4633 54.8313 20.6219 54.6736 20.6219 54.3198V53.3701H20.8416V54.3049C20.8416 54.7978 20.5699 55.0001 20.2058 55.0001C19.8626 55.0001 19.6025 54.8127 19.6025 54.3149V53.3701H19.8223Z" fill="black"/>
<path d="M23.1814 54.2699C23.1684 54.0464 23.1541 53.777 23.1567 53.5772H23.1489C23.0917 53.7646 23.0215 53.9645 22.9369 54.1867L22.6405 54.9651H22.4767L22.2049 54.2016C22.1256 53.9757 22.058 53.7684 22.0099 53.5784H22.0047C21.9995 53.7783 21.9878 54.0477 21.9722 54.2873L21.9267 54.975H21.72L21.837 53.3711H22.1139L22.4 54.147C22.4702 54.3444 22.5274 54.5207 22.569 54.687H22.5768C22.6197 54.5256 22.6795 54.3494 22.7536 54.147L23.0527 53.3711H23.3296L23.4336 54.975H23.2217L23.1788 54.2711L23.1814 54.2699Z" fill="black"/>
<path d="M25.6246 54.9741L25.0759 53.3701H25.31L25.5713 54.1597C25.6441 54.3757 25.7065 54.5718 25.7507 54.7593H25.7559C25.8027 54.5731 25.8729 54.372 25.9484 54.1622L26.2318 53.3701H26.4632L25.8625 54.9741H25.6233H25.6246Z" fill="black"/>
<path d="M28.6305 54.1559C28.6305 54.7083 28.2794 55.0001 27.8504 55.0001C27.4213 55.0001 27.095 54.6723 27.095 54.1869C27.095 53.6779 27.4265 53.3452 27.8751 53.3452C28.3236 53.3452 28.6305 53.6804 28.6305 54.1571V54.1559ZM27.3277 54.182C27.3277 54.5246 27.5214 54.8312 27.8634 54.8312C28.2053 54.8312 28.4017 54.5296 28.4017 54.1646C28.4017 53.8455 28.2274 53.5128 27.866 53.5128C27.5045 53.5128 27.3277 53.8294 27.3277 54.182Z" fill="black"/>
<path d="M29.4614 53.3924C29.594 53.3738 29.7501 53.3589 29.923 53.3589C30.235 53.3589 30.4561 53.4284 30.603 53.5588C30.7525 53.6891 30.8396 53.8753 30.8396 54.1348C30.8396 54.3943 30.7551 54.6103 30.5978 54.758C30.4405 54.9082 30.1817 54.9889 29.8554 54.9889C29.7007 54.9889 29.5719 54.9815 29.4614 54.9703V53.3924ZM29.6773 54.8101C29.7319 54.8201 29.8125 54.8226 29.897 54.8226C30.3599 54.8226 30.6121 54.5755 30.6121 54.1422C30.6147 53.7636 30.3898 53.524 29.9321 53.524C29.8203 53.524 29.7358 53.5339 29.6773 53.5451V54.8114V54.8101Z" fill="black"/>
<path d="M31.6692 53.3701H31.8863V54.1435H31.8941C31.9383 54.0815 31.9838 54.0244 32.0267 53.9722L32.5403 53.3701H32.8095L32.201 54.0504L32.8563 54.9741H32.6001L32.0475 54.187L31.8876 54.3633V54.9753H31.6705V53.3714L31.6692 53.3701Z" fill="black"/>
<path d="M33.8654 54.47L33.6912 54.9741H33.4675L34.0383 53.3701H34.2996L34.873 54.9741H34.6416L34.4622 54.47H33.8667H33.8654ZM34.4167 54.3087L34.2528 53.8468C34.2151 53.7426 34.1904 53.647 34.1657 53.5539H34.1605C34.1358 53.6494 34.1085 53.7463 34.076 53.8444L33.9122 54.3087H34.418H34.4167Z" fill="black"/>
<path d="M35.367 50.876H9.22021V51.452H35.367V50.876Z" fill="black"/>
<path d="M25.4424 1.18378C25.7531 1.95968 25.8285 2.89201 25.5971 3.69399C25.5581 3.82683 25.3696 4.10988 25.3852 4.18437C25.3982 4.24892 25.7141 4.51459 25.7843 4.70826C25.8741 4.95406 25.8012 5.21477 25.8845 5.38981C25.9235 5.47299 26.307 5.81936 26.4201 5.9795C27.0338 6.84604 27.2731 8.15204 27.6137 9.1452C28.0558 9.01857 28.4692 8.81001 28.9022 8.66104C29.0699 8.60269 29.2987 8.63124 29.4236 8.57662C29.6693 8.46737 29.9566 8.10611 30.2232 7.97948C30.3818 7.73119 30.1634 5.84046 30.2596 5.36002C30.3194 5.05959 30.6874 4.96648 30.8564 5.2396L30.8005 7.977C31.6911 8.28612 31.4844 9.32149 30.8343 9.79324C30.7069 14.7081 30.7264 19.633 30.5963 24.5516C31.0774 24.4734 33.1681 23.8862 33.4099 24.3567C33.5296 24.5876 33.4034 25.2555 33.3553 25.5361C33.2123 26.3691 32.9536 27.2555 32.7872 28.0997C32.5999 29.0481 32.5037 30.3579 32.2047 31.2331C31.8926 32.148 31.0059 33.0903 30.7004 33.9395C30.4156 34.729 30.4559 35.7979 30.1569 36.5924C30.0971 36.7514 30.0516 36.8941 29.8708 36.9661L13.2128 36.9227C13.0633 36.6731 13.231 36.4857 13.4117 36.3342C14.2075 35.6713 15.756 34.8606 16.7038 34.2982C19.2847 32.77 21.9436 31.3535 24.6896 30.1096L24.6987 29.9234L21.2896 29.9743C21.0504 29.9234 20.854 29.6428 21.0686 29.4665C22.738 28.9724 24.4894 28.6484 26.1003 27.9917C28.1871 27.1413 30.0282 25.8303 32.089 24.9377L31.8861 24.8359L22.6509 26.4473L12.4964 28.4696L12.3716 28.3244C12.2949 28.0811 12.447 27.9284 12.6836 27.87L18.4682 26.7105L19.4719 19.4741C19.4446 19.3723 18.6619 19.2531 18.4773 19.196C18.1782 19.1041 17.5359 18.9129 17.5229 18.5666C17.8324 17.0135 18.1444 15.4567 18.3837 13.8913C18.7113 11.746 18.8374 7.40966 19.8984 5.69273C19.9686 5.57976 20.2676 5.28553 20.2819 5.21849C20.2962 5.15146 20.0011 4.62136 19.9712 4.43638C19.8074 3.41839 20.7591 2.64248 21.785 2.73683C21.7525 1.85044 21.7369 0.792721 22.6184 0.263863C23.4401 -0.228993 24.8313 0.0192972 25.5763 0.571743C25.9417 0.843621 25.9729 1.1664 25.445 1.18254L25.4424 1.18378ZM25.103 0.925556C24.739 0.882106 24.4985 0.642506 24.1201 0.601538C22.4116 0.414079 22.3167 1.45814 22.3986 2.79642C23.0253 3.00623 23.2061 3.03354 23.7417 2.63503C24.2228 2.2775 24.436 1.76974 24.6662 1.25206L25.103 0.925556ZM25.1706 4.93793C25.2474 4.86716 24.9262 4.60398 24.8638 4.55183C24.1136 3.91 22.0125 2.96526 21.0556 3.43701C20.2195 3.84793 20.5862 5.13408 21.4118 5.25822C22.5001 5.42085 23.994 4.23651 25.1693 4.93917L25.1706 4.93793ZM23.8939 7.9261L24.1747 7.8603C24.2449 7.87644 24.2826 7.93231 24.3203 7.98445C24.5141 8.25881 24.7598 9.23086 24.9561 9.64302C25.5204 10.8212 26.0899 11.6442 27.615 11.3823C27.9583 11.3227 29.4821 10.6449 29.6108 10.3755C29.759 10.0639 29.5497 9.30783 29.1908 9.21969C28.9919 9.17127 27.4824 9.93228 27.1313 9.57226C26.5345 7.96086 26.2576 5.14401 23.8497 5.32898C22.7939 5.40968 21.7368 6.23773 20.6954 5.61452C20.1493 6.26504 19.9296 7.09681 19.7684 7.90499C19.3042 10.2513 19.1573 12.8013 18.788 15.1898C18.6255 16.2389 18.4448 17.2879 18.2016 18.322C18.2094 18.5691 19.2444 18.7478 19.4758 18.7925C19.5863 18.034 19.7203 17.1215 19.9842 16.3965C20.1844 15.849 20.5134 15.7758 20.4965 16.4313C20.4874 16.7876 20.0596 18.8335 20.1545 18.9216C21.1115 19.0396 22.0723 19.0507 23.0344 18.9862C23.4427 18.9589 25.7882 18.7069 25.9534 18.4722C25.9989 17.9471 26.0002 17.4071 25.9872 16.8807C25.9508 15.4083 25.969 13.6653 25.8506 12.2203C25.7921 11.4928 25.4099 11.5027 25.0198 10.9428C24.7221 10.5158 23.6325 8.31964 23.8926 7.92858L23.8939 7.9261ZM27.5786 11.9931C27.2158 12.0403 26.766 11.9596 26.3915 11.9931C26.4409 12.0899 26.4604 12.1706 26.463 12.2811C26.5176 14.3779 26.4799 16.4772 26.6659 18.5678C26.6113 18.9477 26.1341 19.0234 26.1172 19.093L25.8454 24.3294C25.9053 24.7465 26.9779 24.9526 27.3732 25.0767L29.941 24.6733L30.0334 24.5876C30.0867 21.849 30.0737 19.1029 30.1179 16.3618C30.1439 14.8 30.2193 13.2035 30.2596 11.6418C30.2713 11.1601 30.2778 10.63 30.257 10.1495C30.2531 10.0713 30.3077 9.9087 30.1894 9.92359C30.2206 10.3991 30.1998 10.6436 29.8136 10.9577C29.4301 11.2693 28.0597 11.9335 27.5786 11.9956V11.9931ZM23.3413 19.5026L22.3843 19.6082C21.7264 21.366 21.3013 23.1947 20.7786 24.9923C20.6759 25.5026 21.2753 25.5845 21.6029 25.7918C21.7017 25.8551 21.7355 26.0066 21.8266 26.0351C21.9241 26.0662 23.7937 25.7049 23.8172 25.6106L23.34 19.5026H23.3413ZM29.9176 30.3777C29.7369 30.3442 29.7993 30.415 29.7525 30.5069C29.3092 31.3635 28.2157 33.9568 28.1052 34.8283C28.087 34.9761 28.0363 35.1288 28.191 35.2318C28.451 35.2815 28.6877 34.6744 28.767 34.4882C29.1895 33.4913 29.6511 31.7731 29.8864 30.703C29.9111 30.5938 29.9319 30.4895 29.9176 30.3765V30.3777Z" fill="black"/>
<path d="M5.34902 37.6272C5.34902 35.6595 5.58566 34.798 6.20845 33.3418V33.3008H0.64624V33.3418C1.26903 34.798 1.50567 35.6173 1.50567 37.6272V43.9835C1.50567 45.9723 1.26903 46.8127 0.64624 48.269V48.3099H6.20715V48.269C5.58436 46.8127 5.34772 45.9524 5.34772 43.9835V37.6272H5.34902Z" fill="black"/>
<path d="M12.9069 45.0911L8.41863 38.5511L10.1583 36.7671C11.4676 35.4549 13.0993 34.2246 15.1822 33.3432V33.3022H10.0504V33.3432C10.7369 34.2048 10.8019 35.414 9.21305 37.0129L5.4126 40.9086L10.4365 48.3101H15.6971V48.2692C14.6881 47.5926 13.9574 46.6491 12.9056 45.0911H12.9069Z" fill="black"/>
<path d="M20.7663 40.375V37.8945L14.775 37.9442C14.6229 37.9454 14.58 38.1428 14.7178 38.2024C15.2782 38.4445 15.8048 38.776 16.0973 38.9709C16.1025 38.9746 16.3769 39.1782 16.6369 39.5159C17.1765 40.2645 17.3962 41.095 17.3962 42.3849V44.7014C17.3962 46.4444 17.2246 47.2638 16.8814 48.2693V48.3103H21.3696V48.2693C21.0264 47.265 20.8547 46.4034 20.8547 44.7014V40.8268C21.1551 40.478 21.5204 40.2322 21.8429 40.2322C22.3799 40.2322 23.5396 40.7449 24.0766 41.4414H24.1845L24.5707 37.9976C22.7244 37.8747 21.6726 39.4948 20.7702 40.3762L20.7663 40.375Z" fill="black"/>
<path d="M35.7315 46.8734C35.045 46.8734 34.8083 46.4427 34.8083 45.951V40.6823C34.8083 39.0833 33.7565 37.9971 31.4591 37.9971C29.1616 37.9971 27.4441 39.0833 26.413 40.2726L26.4988 40.4167C27.4649 40.0268 28.453 39.863 29.2903 39.863C30.8155 39.863 31.3511 40.4365 31.3511 41.6258V42.8971C28.925 43.3887 25.9827 44.3533 25.9827 46.5668C25.9827 47.9808 27.0995 48.6164 28.4088 48.6164C29.7831 48.6164 30.8142 47.8579 31.4149 47.0175C31.6086 47.9399 32.403 48.5966 33.7123 48.5966C35.5378 48.5966 36.2893 47.3874 36.5896 46.7108L36.5467 46.6289C36.2672 46.8139 35.9668 46.8747 35.7302 46.8747L35.7315 46.8734ZM31.3511 46.6276C31.1145 46.7505 30.7934 46.8325 30.4488 46.8325C29.5036 46.8325 29.0108 46.2999 29.0108 45.5004C29.0108 44.537 29.8481 43.7164 31.3511 43.3266V46.6276Z" fill="black"/>
<path d="M40.0914 36.6635C41.1224 36.6635 41.9806 35.864 41.9806 34.8796C41.9806 33.8951 41.1211 33.1167 40.0914 33.1167C39.0616 33.1167 38.2451 33.9162 38.2451 34.8796C38.2451 35.8429 39.0616 36.6635 40.0914 36.6635Z" fill="black"/>
<path d="M42.1317 44.7014V37.8945L37.6006 39.0838V39.1658C38.3729 40.0273 38.6953 40.9088 38.6953 42.4047V44.7014C38.6953 46.4034 38.4587 47.2638 38.1584 48.2693V48.3103H42.6466V48.2693C42.3034 47.265 42.1317 46.3836 42.1317 44.7014Z" fill="black"/>
</g>
<defs>
<clipPath id="clip0_52_500">
<rect width="42" height="55" fill="white" transform="translate(0.64624)"/>
</clipPath>
</defs>
</svg>
