<svg width="138" height="25" viewBox="0 0 138 25" fill="none" xmlns="http://www.w3.org/2000/svg">
<g clip-path="url(#clip0_52_448)">
<path d="M39.8006 4.76514C40.5583 4.76514 41.0781 5.28941 41.0781 6.21562C41.0781 7.45058 40.1656 8.73796 39.4577 9.15738L38.9931 8.95932C39.336 8.39427 39.4909 7.88747 39.5462 7.41563C38.9268 7.30495 38.5286 6.81562 38.5286 6.09329C38.5286 5.29523 39.0429 4.77096 39.8061 4.77096L39.8006 4.76514Z" fill="black"/>
<path d="M43.9375 4.99805H46.1939L50.3308 17.7029H48.0743L47.0733 14.3476H43.0581L42.0571 17.7029H39.8007L43.9375 4.99805ZM46.4373 12.2563L45.0602 7.64854L43.6831 12.2563H46.4373Z" fill="black"/>
<path d="M55.2419 19.8063C56.536 19.8063 57.4485 19.1189 57.4485 17.6801V16.9927C56.8457 17.5345 55.9995 17.8665 54.9322 17.8665C52.3826 17.8665 50.5907 15.9791 50.5907 13.1655C50.5907 10.3519 52.3826 8.49951 54.9322 8.49951C56.0327 8.49951 56.8623 8.8432 57.4485 9.40825V8.62767H59.517V17.6859C59.517 20.3189 57.6919 21.8044 55.2087 21.8044C53.5053 21.8044 52.1392 21.0937 51.3484 19.8238L53.0352 18.5714C53.3947 19.2413 54.0694 19.8063 55.2419 19.8063ZM55.0317 15.8685C56.4807 15.8685 57.4264 14.8723 57.4264 13.183C57.4264 11.4937 56.4807 10.4976 55.0317 10.4976C53.5827 10.4976 52.6536 11.4937 52.6536 13.183C52.6536 14.8723 53.5993 15.8685 55.0317 15.8685Z" fill="black"/>
<path d="M67.3038 17.016C66.701 17.5403 65.8548 17.8665 64.804 17.8665C62.2544 17.8665 60.4625 15.9791 60.4625 13.1655C60.4625 10.3519 62.2544 8.49951 64.804 8.49951C65.888 8.49951 66.7175 8.82573 67.3038 9.39078V8.62767H69.3722V17.7034H67.3038V17.016ZM64.9091 15.8685C66.3581 15.8685 67.3038 14.8723 67.3038 13.183C67.3038 11.4937 66.3581 10.4976 64.9091 10.4976C63.4601 10.4976 62.5309 11.4937 62.5309 13.183C62.5309 14.8723 63.4767 15.8685 64.9091 15.8685Z" fill="black"/>
<path d="M75.5721 17.8665C74.4881 17.8665 73.6586 17.5228 73.0723 16.9578V22.2413H71.0039V8.62767H73.0723V9.39078C73.6586 8.82573 74.4826 8.49951 75.5721 8.49951C78.1217 8.49951 79.9136 10.3694 79.9136 13.1655C79.9136 15.9617 78.1217 17.8665 75.5721 17.8665ZM75.467 10.4976C74.018 10.4976 73.0723 11.4937 73.0723 13.183C73.0723 14.8723 74.018 15.8685 75.467 15.8685C76.916 15.8685 77.8452 14.8723 77.8452 13.183C77.8452 11.4937 76.8994 10.4976 75.467 10.4976Z" fill="black"/>
<path d="M84.2549 8.37741C86.6994 8.35993 89.0941 9.72304 89.0941 12.8046C89.0941 13.7133 88.8729 14.5463 88.4912 15.2745V15.292C88.801 16.0027 89.0277 16.8182 89.166 17.7036H87.0644C87.0146 17.4706 86.9593 17.2493 86.9095 17.0337C86.0799 17.5988 85.0844 17.925 84.0171 17.925C82.9497 17.925 80.3282 17.4706 80.3282 14.8551C80.3282 12.5891 82.3247 11.826 83.7405 11.826C84.9628 11.826 86.0855 12.2803 87.0146 13.1483C87.0312 13.0376 87.0312 12.9095 87.0312 12.8046C87.0312 11.3891 85.9804 10.4454 84.2936 10.4628C83.016 10.4803 82.192 11.0279 81.6223 11.6046L80.1733 10.0784C81.1578 9.02401 82.6178 8.38906 84.2549 8.37158V8.37741ZM83.6189 13.9114C82.6178 13.9114 82.3966 14.4764 82.3966 14.8376C82.3966 15.292 82.7561 15.8337 83.8788 15.8337C84.7415 15.8337 85.5822 15.5075 86.1187 15.0881C85.4495 14.325 84.4816 13.9056 83.6189 13.9056V13.9114Z" fill="black"/>
<path d="M92.2688 9.15723C92.9933 8.63296 93.8726 8.32422 94.8681 8.32422C97.2794 8.32422 98.6233 10.1184 98.6233 12.7514V17.7087H96.5549V12.7514C96.5549 11.4291 96.1069 10.4097 94.7796 10.4097C94.3814 10.4097 94.0385 10.5029 93.7122 10.666C94.4201 11.7728 94.8128 13.1708 94.8128 14.6038C94.8128 16.6194 94.0219 17.9767 92.2964 17.9767C90.5709 17.9767 89.7634 16.631 89.7634 14.6213C89.7634 13.2757 90.1229 11.8601 90.8308 10.7184C90.5377 10.5728 90.1948 10.4796 89.8464 10.4796V8.39412C90.7589 8.39412 91.5719 8.68538 92.2577 9.15723H92.2688ZM91.8374 14.5631C91.8374 15.0873 91.9037 15.8854 92.2854 15.8854C92.667 15.8854 92.7499 15.0349 92.7499 14.5048C92.7499 13.7592 92.5785 13.0194 92.2688 12.3436C91.9756 13.031 91.8374 13.7941 91.8374 14.5572V14.5631Z" fill="black"/>
<path d="M100.365 14.365V10.6252H99.486V8.62718H100.365V4.99805H102.434V8.62718H104.723V10.6252H102.434V14.5981C102.434 15.5592 102.965 16.4621 103.584 16.4621C103.811 16.4621 104.392 16.4272 104.723 16.2291L105.05 18.134C104.723 18.332 104.137 18.4602 103.485 18.4602C100.935 18.4602 100.365 15.9961 100.365 14.365Z" fill="black"/>
<path d="M106.969 14.6913C106.244 12.7107 105.829 10.8233 105.829 8.53984C105.829 6.61751 106.123 3.83887 108.274 3.83887C110.187 3.83887 110.807 6.05246 110.53 9.02916C110.945 8.53984 111.581 8.37674 112.234 8.37674C115.32 8.37674 116.044 12.0233 116.044 14.7845C116.044 15.7282 115.956 16.7243 115.801 17.7088H113.716C113.871 16.7127 113.976 15.7107 113.976 14.6971C113.976 13.3748 113.804 10.5612 112.029 10.5612C110.254 10.5612 109.928 13.4098 109.928 14.6797C109.928 15.5709 110.082 16.2932 110.082 16.8233C110.082 17.5865 109.74 18.1107 109.137 18.1107C108.445 18.1107 108.152 17.4233 107.881 16.8583C107.4 17.3301 106.864 17.7088 106.277 18.0175L105.381 16.0602C106.001 15.7515 106.537 15.2622 106.969 14.6971V14.6913ZM108.567 8.88353C108.567 8.068 108.517 6.3612 108.208 6.3612C107.898 6.3612 107.898 8.00975 107.898 8.00975C107.898 9.75149 108.02 10.8059 108.241 11.8195C108.484 10.9107 108.567 9.9146 108.567 8.87771V8.88353Z" fill="black"/>
<path d="M121.923 17.8662C119.202 17.8662 117.355 15.9614 117.355 13.2002C117.355 12.6934 117.427 12.2041 117.543 11.7672C117.217 11.3653 116.907 10.9342 116.647 10.4623L118.406 9.33807C118.494 9.48371 118.577 9.62934 118.666 9.77497C119.495 8.94196 120.662 8.45264 122.028 8.45264C123.837 8.45264 125.7 9.30312 125.7 11.4119C125.7 13.3691 124.08 14.1497 122.321 14.1497C121.254 14.1497 120.269 13.8759 119.429 13.3866C119.517 14.9478 120.634 15.7808 122.012 15.7808C122.908 15.7808 123.682 15.4196 124.163 14.6391L125.8 15.7808C124.937 17.1963 123.527 17.8662 121.923 17.8662ZM122.283 12.0585C122.902 12.0585 123.626 11.8954 123.626 11.3536C123.626 10.7536 122.797 10.5381 122.056 10.5381C121.226 10.5381 120.54 10.8293 120.076 11.3187C120.712 11.7905 121.453 12.0643 122.283 12.0643V12.0585Z" fill="black"/>
<path d="M127.689 15.8543V15.6509H128.901V15.8543H128.412V17.2173H128.177V15.8543H127.689ZM129.169 15.6509H129.456L129.955 16.8685H129.973L130.472 15.6509H130.758V17.2173H130.534V16.0838H130.519L130.057 17.215H129.87L129.408 16.083H129.394V17.2173H129.169V15.6509Z" fill="black"/>
<path d="M104.253 16.3979C104.253 16.3979 105.382 16.2639 106.04 15.6348L106.278 18.0115C106.278 18.0115 104.63 18.7979 102.727 18.3785L104.253 16.3979Z" fill="black"/>
<path d="M28.7341 17.7788L29.3867 12.3031C27.534 12.0235 26.0021 11.2138 24.8296 9.67589L26.2399 8.45841C27.2077 9.50696 28.3636 10.2759 29.8126 10.2409C30.255 8.52249 30.8468 6.41958 31.9031 5.01569C35.0445 0.844814 39.3417 4.6487 35.8962 9.2157C34.7458 10.7361 33.1198 11.5633 31.3888 12.1283L30.6864 15.7283H36.77V17.7846H28.7341V17.7788ZM31.9971 9.78657C33.4572 8.98851 36.145 7.21181 34.9173 5.2254C33.7503 4.86424 31.9695 8.70307 31.9971 9.78657Z" fill="black"/>
<path d="M11.1636 7.17613C10.1626 7.17613 9.44916 6.68681 9.40492 6.65769C9.19476 6.51205 9.13945 6.21497 9.27772 5.99361C9.41598 5.77225 9.70357 5.71982 9.9082 5.85963C9.96903 5.9004 11.1083 6.65768 12.408 5.84798C12.6292 5.71399 12.9057 5.78972 13.0329 6.01691C13.1601 6.24409 13.0882 6.54118 12.8726 6.67516C12.2587 7.0538 11.678 7.17613 11.1692 7.17613H11.1636Z" fill="black"/>
<path d="M5.04681 3.99612C6.97143 2.53981 9.18364 1.35728 11.2023 0L17.7062 4.11845C17.7338 4.63107 17.2416 4.40971 17.0149 4.47962C16.7162 4.57282 17.037 6.15729 16.8821 6.40195C16.8489 6.45438 15.9419 6.77477 15.7484 6.90292C15.7152 6.13399 15.682 5.35923 15.6378 4.567L15.3999 4.35146C15.3059 4.55535 15.1345 4.567 14.8856 4.38641C13.6744 3.55923 12.4356 2.78447 11.1746 2.06796L7.0212 4.63107L6.98802 6.62913L6.7668 6.77477C6.51793 6.99612 5.53349 6.44273 5.43948 6.29127C5.24038 5.94758 5.51137 4.72428 5.38417 4.47379C4.9362 4.43884 4.42186 4.25243 5.07999 4.04272C5.09105 4.04272 4.91961 4.23496 5.03575 3.9903L5.04681 3.99612Z" fill="black"/>
<path d="M21.8483 6.96699C21.7764 6.23301 21.6824 6.23884 21.0685 6.09321C19.6969 5.76117 18.3586 5.9767 17.0146 6.30292V4.48544C16.7326 4.36893 16.6109 4.54952 16.6496 5.02719L16.6939 6.24466C16.174 6.34952 15.8588 6.5767 15.7482 6.90874C15.6763 6.86796 15.6375 6.90874 15.632 7.03107L15.3389 6.94369C14.0503 7.91651 12.8723 9.25632 12.1588 10.7651C11.8989 11.3185 11.368 12.4719 11.8325 12.9087C11.4731 13.1243 11.4565 14.6097 11.8325 14.7903C12.6732 15.1806 14.0392 14.3709 14.7692 13.8058C16.4616 12.4835 17.3409 10.299 17.2525 8.13204C17.7502 7.93981 19.8518 7.40389 20.2058 7.7534C20.3772 7.92234 19.9292 10.2291 19.8463 10.5087C16.8764 20.4233 3.96814 19.2699 2.16519 9.40777L1.92738 9.27962C2.28686 9.08739 2.30345 7.67767 1.92738 7.52039L2.27027 7.71845C3.1994 7.5903 4.11193 7.80583 4.99682 8.08544C5.03553 10.7709 6.03655 12.8621 8.24876 14.2719C10.4942 15.7049 11.2795 15.0058 10.6158 12.3087C10.0462 9.97282 8.69121 8.00389 6.76658 6.79224L6.6062 6.60583C5.66601 6.54175 5.34524 5.8602 5.63836 4.57282L5.38395 4.49126H5.26781V6.30874C3.74139 5.90097 2.11541 5.73787 0.600052 6.30874C-0.660908 15 7.76208 21.7748 15.4716 18.2156C19.5089 16.3515 22.2963 11.6796 21.8373 6.97864L21.8483 6.96699ZM13.4475 12.6058C13.5857 11.1553 14.4983 9.88544 15.5159 8.97088C15.5159 10.4214 14.631 11.8893 13.4475 12.6058ZM8.95667 12.6058C7.657 12.0291 6.85507 10.3864 6.77211 8.97088C7.88928 9.86214 8.62484 11.1845 8.95667 12.6058Z" fill="black"/>
<path d="M15.4056 4.35693C15.494 4.38606 15.7208 4.32198 15.7484 4.35693C15.8259 4.45014 15.6876 6.54723 15.7484 6.90257C15.7097 6.92587 15.6766 6.99577 15.6323 7.0249C15.5328 6.17441 15.8701 5.07926 15.4 4.35693H15.4056Z" fill="black"/>
<path d="M13.669 3.56543L15.4056 4.76543H17.6786C17.9662 4.76543 18.0713 4.36931 17.8279 4.20621L16.9984 3.67028L13.6635 3.56543H13.669Z" fill="black"/>
<path d="M4.60991 4.34022L5.56116 3.61207C5.59988 3.58294 5.63859 3.57129 5.68836 3.57129H7.67382C7.93376 3.57129 8.03331 3.96741 7.80655 4.13051L7.10971 4.63148C7.07652 4.65479 7.03781 4.66644 6.9991 4.67226L4.74264 4.75381C4.53249 4.75964 4.43847 4.48003 4.60991 4.34605V4.34022Z" fill="black"/>
<path d="M11.7499 11.8076C11.7499 11.8076 11.1249 13.8639 11.8384 14.7843L12.4965 11.8076H11.7443H11.7499Z" fill="black"/>
<path d="M15.3391 6.93804L15.4055 4.61377L17.0149 4.76523L16.5779 7.17688L15.5935 7.25843L15.3391 6.93804Z" fill="black"/>
<path d="M7.06557 4.66064V7.51502L5.40088 6.76356L7.06557 4.66064Z" fill="black"/>
<path d="M2.32036 7.37482C2.32036 7.37482 2.06595 8.67967 2.28164 9.9088L1.51843 9.47191L1.67882 7.17676L2.3646 7.25831L2.32036 7.37482Z" fill="black"/>
</g>
<defs>
<clipPath id="clip0_52_448">
<rect width="137" height="25" fill="white" transform="translate(0.64624)"/>
</clipPath>
</defs>
</svg>
