<svg width="82" height="19" viewBox="0 0 82 19" fill="none" xmlns="http://www.w3.org/2000/svg">
<g clip-path="url(#clip0_52_368)">
<path d="M80.0311 3.49893C79.8057 3.49893 79.5803 3.45824 79.3925 3.37687C79.2046 3.2955 79.0168 3.17345 78.8665 3.01071C78.7162 2.84797 78.6035 2.68523 78.5284 2.44111C78.4532 2.197 78.4156 1.99358 78.4156 1.74946C78.4156 1.50535 78.4532 1.26124 78.5284 1.05782C78.6035 0.85439 78.7162 0.650964 78.8665 0.488223C79.0168 0.325482 79.167 0.203426 79.3925 0.122056C79.6179 0.0406852 79.8057 0 80.0311 0C80.2566 0 80.482 0.0406852 80.6698 0.122056C80.8577 0.203426 81.0455 0.325482 81.1958 0.488223C81.3461 0.650964 81.4588 0.813704 81.5339 1.05782C81.6091 1.26124 81.6466 1.50535 81.6466 1.74946C81.6466 1.99358 81.6091 2.23769 81.5339 2.44111C81.4588 2.64454 81.3461 2.84797 81.1958 3.01071C81.0455 3.13276 80.8577 3.25482 80.6698 3.33619C80.482 3.45824 80.2566 3.49893 80.0311 3.49893ZM80.0311 3.25482C80.219 3.25482 80.4068 3.21413 80.5947 3.13276C80.7825 3.05139 80.9328 2.92934 81.0455 2.80728C81.1582 2.68523 81.2709 2.52248 81.3461 2.31906C81.4212 2.11563 81.4588 1.95289 81.4588 1.70878C81.4588 1.50535 81.4212 1.30193 81.3461 1.0985C81.2709 0.895075 81.1958 0.773019 81.0455 0.610278C80.9328 0.488223 80.7825 0.366167 80.5947 0.284797C80.4068 0.203426 80.2566 0.162741 80.0311 0.162741C79.8057 0.162741 79.6554 0.203426 79.4676 0.284797C79.2798 0.366167 79.1295 0.488223 79.0168 0.610278C78.9041 0.732334 78.7913 0.895075 78.7162 1.0985C78.6411 1.30193 78.6035 1.46467 78.6035 1.70878C78.6035 1.95289 78.6411 2.11563 78.7162 2.31906C78.7913 2.52248 78.8665 2.68523 79.0168 2.80728C79.1295 2.92934 79.2798 3.05139 79.4676 3.13276C79.6554 3.21413 79.8433 3.25482 80.0311 3.25482ZM79.3925 2.72591V0.773019H80.1063C80.3317 0.773019 80.5195 0.85439 80.6323 0.976445C80.745 1.0985 80.8201 1.26124 80.8201 1.46467C80.8201 1.66809 80.745 1.83084 80.6323 1.95289C80.5195 2.07495 80.3317 2.11563 80.1063 2.11563H79.693V2.7666H79.3925V2.72591ZM79.693 1.83084H80.1063C80.2566 1.83084 80.3693 1.79015 80.4444 1.70878C80.5195 1.62741 80.5571 1.54604 80.5571 1.42398C80.5571 1.30193 80.5195 1.22056 80.4444 1.13919C80.3693 1.05782 80.2566 1.05782 80.1063 1.05782H79.693V1.83084ZM80.5947 2.72591L80.1439 1.95289H80.4444L80.8952 2.72591H80.5947Z" fill="black"/>
<path d="M7.22116 3.94629C3.80233 3.94629 0.646484 6.30603 0.646484 11.4731C0.646484 16.6808 4.06532 18.9591 7.7847 18.9591C11.6168 18.9591 13.1947 16.5994 13.1947 16.5994L11.5792 14.7686C11.5792 14.7686 10.377 16.3553 7.93498 16.3553C5.90622 16.3553 4.21559 15.1347 3.80233 12.775H13.6831C13.7583 12.3681 13.7958 11.9206 13.7958 11.4731C13.7583 6.30603 10.5649 3.94629 7.22116 3.94629ZM3.76476 10.1711C4.02775 8.54372 4.62886 6.63151 7.2963 6.63151C9.85103 6.63151 10.4521 8.38098 10.6776 10.1711H3.76476Z" fill="black"/>
<path d="M33.595 3.90592C31.416 3.90592 29.3497 4.88236 28.1099 6.91663C27.8469 7.32348 27.5839 7.44553 27.3961 7.44553C27.3585 7.44553 27.2833 7.44553 27.2458 7.44553C27.2458 7.44553 27.2458 7.44553 27.2082 7.44553C27.0579 7.40485 26.9452 7.28279 26.9452 7.28279C26.8701 7.24211 26.7949 7.16074 26.7198 7.07937C26.3817 6.75389 26.0811 6.14361 26.0811 6.14361C25.743 5.53333 24.8789 4.19072 23.7518 3.9466C23.7518 3.9466 21.7606 3.53975 21.0092 5.04511C20.7087 5.69607 20.7087 6.46909 21.0468 7.07937C21.3098 7.60827 21.8733 8.17787 22.9628 8.29992L20.7462 15.1757L17.102 3.86523H13.7583L19.1307 18.9595H21.8733L25.6679 8.50335C25.7054 8.50335 25.743 8.46266 25.8181 8.50335C26.006 8.58472 26.4192 8.78815 26.8701 9.15431C26.9452 9.27637 27.2082 9.60185 27.1331 9.96802C27.0579 10.4156 27.0204 10.9445 27.0204 11.4327C27.0204 16.6404 30.4392 18.9595 34.1586 18.9595C37.9907 18.9595 39.5686 16.5997 39.5686 16.5997L37.9531 14.7689C37.9531 14.7689 36.7509 16.3556 34.3089 16.3556C32.2801 16.3556 30.5895 15.0944 30.1762 12.7753H40.057C40.1321 12.3684 40.1697 11.9209 40.1697 11.4734C40.1321 6.26566 36.9763 3.90592 33.595 3.90592ZM30.1386 10.1308C30.4016 8.50335 31.0027 6.59114 33.6702 6.59114C36.2249 6.59114 36.826 8.38129 37.0514 10.1308H30.1386Z" fill="black"/>
<path d="M60.2318 12.9384C58.9168 12.6943 57.6395 12.2467 56.4748 11.5144C55.4604 10.9041 54.8217 10.0497 54.5212 9.03259C54.1455 6.14394 52.8305 3.90625 49.7123 3.90625C47.5332 3.90625 46.068 5.37092 45.1664 7.16107L44.5652 3.90625H42.3486V19.0005H45.1664V13.7114C45.1664 8.82916 46.8194 6.5101 49.1487 6.5101C51.2902 6.5101 51.8162 8.70711 51.8162 11.8806V19.0005H54.6339V14.281C54.8969 14.1182 55.1974 14.0776 55.5356 14.1182C56.0615 14.2403 56.5124 14.4437 56.8881 14.8913C57.1135 15.1761 57.3013 15.5015 57.4892 15.7863C57.8273 16.3559 58.0903 16.9255 58.6163 17.3324C59.6306 18.1054 60.7202 18.1868 61.8848 17.6985C63.4252 17.0069 63.5379 15.2574 62.5235 14.0776C61.9224 13.3859 61.0958 13.1011 60.2318 12.9384Z" fill="black"/>
<path d="M79.5799 11.433C79.5799 6.26599 76.3865 3.90625 72.9677 3.90625C70.8638 3.90625 68.8726 4.80132 67.6328 6.63216C67.6328 6.63216 67.3698 7.12038 67.0692 7.52723C66.9565 7.68998 66.8063 7.81203 66.6936 7.97477C66.2803 8.38162 65.7919 8.62574 65.2283 8.42231C64.8526 8.25957 64.5145 7.97477 64.2515 7.68998C63.8383 7.24244 63.4626 6.71353 63.0869 6.22531C61.9222 4.67927 60.1189 4.47584 58.8039 5.33023C57.6393 6.10325 57.4514 7.68998 58.4282 8.74779C58.9542 9.31738 59.6305 9.60218 60.3443 9.76492C61.0957 9.96835 61.8471 10.0497 62.5985 10.2938C63.7631 10.6193 64.8151 11.2296 65.6792 12.1653C66.1676 12.6943 66.4681 13.3859 66.6936 14.0369C66.9565 14.9319 67.3322 15.705 67.8206 16.3559C67.9709 16.5594 68.1212 16.8035 68.309 16.9662V16.9255C69.6615 18.3495 71.5776 19.0005 73.5688 19.0005C77.4384 19.0005 79.0539 16.6407 79.0539 16.6407L77.4384 14.8099C77.4384 14.8099 76.2362 16.3966 73.7566 16.3966C71.7279 16.3966 69.9997 15.1761 69.5488 12.8163H79.5048C79.5799 12.3281 79.5799 11.8806 79.5799 11.433ZM69.5113 10.1311C69.7743 8.50368 70.3754 6.59148 73.0804 6.59148C75.6351 6.59148 76.2362 8.38162 76.4616 10.1311H69.5113Z" fill="black"/>
</g>
<defs>
<clipPath id="clip0_52_368">
<rect width="81" height="19" fill="white" transform="translate(0.64624)"/>
</clipPath>
</defs>
</svg>
