<svg width="89" height="22" viewBox="0 0 89 22" fill="none" xmlns="http://www.w3.org/2000/svg">
<g clip-path="url(#clip0_8_32)">
<path d="M85.9743 16.5576H81.4536V21.0783H85.9743V16.5576Z" fill="white"/>
<path d="M0 5.68066H3.94821V7.3064C5.13235 6.2204 6.68939 5.68066 8.61934 5.68066C9.80348 5.68066 10.9255 5.90637 11.9788 6.35778C13.0321 6.80919 13.8956 7.50267 14.5695 8.4382C15.2433 9.37373 15.5802 10.5317 15.5802 11.9186V20.7473H11.6026V12.0102C11.6026 10.9471 11.3474 10.2144 10.8339 9.81206C10.3203 9.40971 9.45347 9.21018 8.22681 9.21018C7.20296 9.21018 6.39499 9.30177 5.79965 9.48168C5.20759 9.66159 4.74963 10.0443 4.42907 10.6266C4.1085 11.2088 3.94821 12.092 3.94821 13.2794V20.7506H0V5.68066Z" fill="white"/>
<path d="M22.1714 20.1265C20.8761 19.4952 19.8719 18.5956 19.1588 17.4311C18.4457 16.2666 18.0891 14.9189 18.0891 13.3946C18.0891 11.8703 18.4457 10.5291 19.1588 9.37115C19.8719 8.21645 20.8761 7.32345 22.1714 6.68885C23.4668 6.05753 24.9584 5.74023 26.6463 5.74023C28.3342 5.74023 29.7964 6.05753 31.0917 6.68885C32.3871 7.32017 33.3913 8.21645 34.1044 9.37115C34.8175 10.5258 35.1741 11.867 35.1741 13.3946V14.3596H22.1289C22.1485 15.3049 22.5411 16.0736 23.3032 16.6657C24.0654 17.2578 25.1808 17.5554 26.6463 17.5554C29.0146 17.5554 30.4735 16.8227 31.0132 15.3573H35.0203C34.7782 16.6232 34.2385 17.683 33.3946 18.5368C32.5506 19.3905 31.5366 20.0284 30.3525 20.4504C29.1683 20.8723 27.9318 21.0817 26.6463 21.0817C24.9584 21.0817 23.4668 20.7644 22.1714 20.1331V20.1265ZM30.9543 11.5562C30.673 10.8137 30.1496 10.2445 29.3875 9.85527C28.6253 9.46274 27.7094 9.26648 26.6463 9.26648C25.5832 9.26648 24.6673 9.46274 23.9051 9.85527C23.143 10.2478 22.6294 10.8137 22.3677 11.5562H30.9543Z" fill="white"/>
<path d="M61.5228 20.1265C60.2274 19.4952 59.2232 18.5956 58.5101 17.4311C57.797 16.2666 57.4404 14.9189 57.4404 13.3946C57.4404 11.8703 57.797 10.5291 58.5101 9.37115C59.2232 8.21645 60.2274 7.32345 61.5228 6.68885C62.8181 6.05753 64.3097 5.74023 65.9976 5.74023C67.6855 5.74023 69.1477 6.05753 70.443 6.68885C71.7384 7.32017 72.7426 8.21645 73.4557 9.37115C74.1688 10.5258 74.5254 11.867 74.5254 13.3946V14.3596H61.4802C61.4999 15.3049 61.8924 16.0736 62.6546 16.6657C63.4167 17.2578 64.5322 17.5554 65.9976 17.5554C68.3692 17.5554 69.8248 16.8227 70.3678 15.3573H74.3749C74.1328 16.6232 73.5898 17.683 72.7492 18.5368C71.9052 19.3905 70.8912 20.0284 69.707 20.4504C68.5229 20.8723 67.2864 21.0817 66.0009 21.0817C64.313 21.0817 62.8214 20.7644 61.526 20.1331L61.5228 20.1265ZM70.3056 11.5562C70.0243 10.8137 69.501 10.2445 68.7388 9.85527C67.9766 9.46274 67.0607 9.26648 65.9976 9.26648C64.9345 9.26648 64.0186 9.46274 63.2564 9.85527C62.4943 10.2478 61.9807 10.8137 61.719 11.5562H70.3056Z" fill="white"/>
<path d="M54.5849 5.33789H50.0642V9.85855H54.5849V5.33789Z" fill="#B0FA4F"/>
<path d="M81.4536 0.924805H76.933V16.5574H81.4536V0.924805Z" fill="white"/>
<path d="M54.5847 21.0751L43.1031 5.33789H38.5857L44.1532 12.9694L38.239 21.0751H42.7597L46.4102 16.0671L50.064 21.0751H54.5847Z" fill="white"/>
<path d="M86.5696 14.4444H86.0527V14.2939H87.2728V14.4444H86.756V15.6515H86.5728V14.4444H86.5696Z" fill="white"/>
<path d="M87.4266 14.29H87.7407L88.2084 15.5298H88.2117L88.6827 14.29H89V15.6475H88.8169V14.4274L88.3556 15.6475H88.0743L87.6131 14.4274V15.6475H87.4299V14.29H87.4266Z" fill="white"/>
</g>
<defs>
<clipPath id="clip0_8_32">
<rect width="89" height="20.15" fill="white" transform="translate(0 0.924805)"/>
</clipPath>
</defs>
</svg>
