<svg width="27" height="27" viewBox="0 0 27 27" fill="none" xmlns="http://www.w3.org/2000/svg">
<rect x="1.12507" y="0.410714" width="25.4643" height="25.4643" rx="2.875" stroke="#8E8E8E" stroke-width="0.821429"/>
<path d="M21.503 10.229C21.1074 9.35493 20.5395 8.57014 19.8186 7.89381C19.0976 7.22387 18.2617 6.6943 17.3302 6.32424C16.3668 5.94141 15.3459 5.75 14.2931 5.75C13.2404 5.75 12.2195 5.94141 11.256 6.32424C10.3245 6.6943 9.48867 7.21749 8.76769 7.89381C8.0467 8.57014 7.47885 9.35493 7.08327 10.229C6.67492 11.1351 6.46436 12.1049 6.46436 13.1002C6.46436 14.8421 7.11515 16.5137 8.30828 17.8409L7.67024 21.3182L11.0646 19.806C12.0791 20.2399 13.1574 20.4568 14.2867 20.4568C15.3395 20.4568 16.3604 20.2654 17.3238 19.8826C18.2553 19.5125 19.0912 18.9893 19.8122 18.313C20.5332 17.6367 21.101 16.8519 21.4966 15.9778C21.9049 15.0718 22.1155 14.1019 22.1155 13.1066C22.1219 12.1049 21.9113 11.1414 21.503 10.229Z" stroke="#8E8E8E" stroke-width="0.821429"/>
<path d="M17.4707 14.5674C17.1389 14.4015 16.8964 14.2994 16.7242 14.2356C16.6157 14.1973 16.3605 14.0825 16.2712 14.1527C15.9904 14.3824 15.6905 15.0332 15.3715 15.1544C14.5803 15.0013 13.8466 14.4589 13.2724 13.9038C13.0171 13.6614 12.545 12.9723 12.4429 12.7873C12.4238 12.5959 12.7683 12.3406 12.8449 12.1939C13.2404 11.7473 12.9406 11.4665 12.8895 11.2815C12.8002 11.0901 12.6471 10.7455 12.5131 10.4648C12.3983 10.2798 12.3727 10.0054 12.1685 9.90333C11.3008 9.4567 10.8032 10.35 10.599 10.8157C9.36756 13.7826 16.7688 19.4293 18.2746 15.5372C18.3512 15.1991 18.3192 15.0715 18.2044 14.9183C17.9747 14.7588 17.7067 14.6886 17.4707 14.5674Z" stroke="#8E8E8E" stroke-width="0.821429"/>
</svg>
